%TF.GenerationSoftware,KiCad,Pcbnew,7.0.8*%
%TF.CreationDate,2024-03-17T19:54:23-04:00*%
%TF.ProjectId,snes-umd,736e6573-2d75-46d6-942e-6b696361645f,0.1*%
%TF.SameCoordinates,Original*%
%TF.FileFunction,Legend,Top*%
%TF.FilePolarity,Positive*%
%FSLAX46Y46*%
G04 Gerber Fmt 4.6, Leading zero omitted, Abs format (unit mm)*
G04 Created by KiCad (PCBNEW 7.0.8) date 2024-03-17 19:54:23*
%MOMM*%
%LPD*%
G01*
G04 APERTURE LIST*
%ADD10C,0.203200*%
%ADD11C,0.222250*%
%ADD12C,0.177800*%
%ADD13C,0.010000*%
%ADD14C,0.254000*%
G04 APERTURE END LIST*
D10*
X138199617Y-130191104D02*
X138241950Y-130148770D01*
X138241950Y-130148770D02*
X138326617Y-130106437D01*
X138326617Y-130106437D02*
X138538284Y-130106437D01*
X138538284Y-130106437D02*
X138622950Y-130148770D01*
X138622950Y-130148770D02*
X138665284Y-130191104D01*
X138665284Y-130191104D02*
X138707617Y-130275770D01*
X138707617Y-130275770D02*
X138707617Y-130360437D01*
X138707617Y-130360437D02*
X138665284Y-130487437D01*
X138665284Y-130487437D02*
X138157284Y-130995437D01*
X138157284Y-130995437D02*
X138707617Y-130995437D01*
X139003951Y-130106437D02*
X139596617Y-130106437D01*
X139596617Y-130106437D02*
X139215617Y-130995437D01*
X131430835Y-107700232D02*
X131430835Y-107996565D01*
X131896502Y-107996565D02*
X131007502Y-107996565D01*
X131007502Y-107996565D02*
X131007502Y-107573232D01*
X131896502Y-106726565D02*
X131473169Y-107022898D01*
X131896502Y-107234565D02*
X131007502Y-107234565D01*
X131007502Y-107234565D02*
X131007502Y-106895898D01*
X131007502Y-106895898D02*
X131049835Y-106811232D01*
X131049835Y-106811232D02*
X131092169Y-106768898D01*
X131092169Y-106768898D02*
X131176835Y-106726565D01*
X131176835Y-106726565D02*
X131303835Y-106726565D01*
X131303835Y-106726565D02*
X131388502Y-106768898D01*
X131388502Y-106768898D02*
X131430835Y-106811232D01*
X131430835Y-106811232D02*
X131473169Y-106895898D01*
X131473169Y-106895898D02*
X131473169Y-107234565D01*
X131007502Y-106176232D02*
X131007502Y-106006898D01*
X131007502Y-106006898D02*
X131049835Y-105922232D01*
X131049835Y-105922232D02*
X131134502Y-105837565D01*
X131134502Y-105837565D02*
X131303835Y-105795232D01*
X131303835Y-105795232D02*
X131600169Y-105795232D01*
X131600169Y-105795232D02*
X131769502Y-105837565D01*
X131769502Y-105837565D02*
X131854169Y-105922232D01*
X131854169Y-105922232D02*
X131896502Y-106006898D01*
X131896502Y-106006898D02*
X131896502Y-106176232D01*
X131896502Y-106176232D02*
X131854169Y-106260898D01*
X131854169Y-106260898D02*
X131769502Y-106345565D01*
X131769502Y-106345565D02*
X131600169Y-106387898D01*
X131600169Y-106387898D02*
X131303835Y-106387898D01*
X131303835Y-106387898D02*
X131134502Y-106345565D01*
X131134502Y-106345565D02*
X131049835Y-106260898D01*
X131049835Y-106260898D02*
X131007502Y-106176232D01*
X131896502Y-105414232D02*
X131007502Y-105414232D01*
X131007502Y-105414232D02*
X131896502Y-104906232D01*
X131896502Y-104906232D02*
X131007502Y-104906232D01*
X131007502Y-104609899D02*
X131007502Y-104101899D01*
X131896502Y-104355899D02*
X131007502Y-104355899D01*
X130965169Y-103170566D02*
X132108169Y-103932566D01*
X131896502Y-102450900D02*
X131896502Y-102874233D01*
X131896502Y-102874233D02*
X131007502Y-102874233D01*
X131642502Y-102196899D02*
X131642502Y-101773566D01*
X131896502Y-102281566D02*
X131007502Y-101985233D01*
X131007502Y-101985233D02*
X131896502Y-101688899D01*
X131430835Y-101096233D02*
X131473169Y-100969233D01*
X131473169Y-100969233D02*
X131515502Y-100926899D01*
X131515502Y-100926899D02*
X131600169Y-100884566D01*
X131600169Y-100884566D02*
X131727169Y-100884566D01*
X131727169Y-100884566D02*
X131811835Y-100926899D01*
X131811835Y-100926899D02*
X131854169Y-100969233D01*
X131854169Y-100969233D02*
X131896502Y-101053899D01*
X131896502Y-101053899D02*
X131896502Y-101392566D01*
X131896502Y-101392566D02*
X131007502Y-101392566D01*
X131007502Y-101392566D02*
X131007502Y-101096233D01*
X131007502Y-101096233D02*
X131049835Y-101011566D01*
X131049835Y-101011566D02*
X131092169Y-100969233D01*
X131092169Y-100969233D02*
X131176835Y-100926899D01*
X131176835Y-100926899D02*
X131261502Y-100926899D01*
X131261502Y-100926899D02*
X131346169Y-100969233D01*
X131346169Y-100969233D02*
X131388502Y-101011566D01*
X131388502Y-101011566D02*
X131430835Y-101096233D01*
X131430835Y-101096233D02*
X131430835Y-101392566D01*
X131430835Y-100503566D02*
X131430835Y-100207233D01*
X131896502Y-100080233D02*
X131896502Y-100503566D01*
X131896502Y-100503566D02*
X131007502Y-100503566D01*
X131007502Y-100503566D02*
X131007502Y-100080233D01*
X131896502Y-99275900D02*
X131896502Y-99699233D01*
X131896502Y-99699233D02*
X131007502Y-99699233D01*
X131854169Y-98344566D02*
X131896502Y-98217566D01*
X131896502Y-98217566D02*
X131896502Y-98005900D01*
X131896502Y-98005900D02*
X131854169Y-97921233D01*
X131854169Y-97921233D02*
X131811835Y-97878900D01*
X131811835Y-97878900D02*
X131727169Y-97836566D01*
X131727169Y-97836566D02*
X131642502Y-97836566D01*
X131642502Y-97836566D02*
X131557835Y-97878900D01*
X131557835Y-97878900D02*
X131515502Y-97921233D01*
X131515502Y-97921233D02*
X131473169Y-98005900D01*
X131473169Y-98005900D02*
X131430835Y-98175233D01*
X131430835Y-98175233D02*
X131388502Y-98259900D01*
X131388502Y-98259900D02*
X131346169Y-98302233D01*
X131346169Y-98302233D02*
X131261502Y-98344566D01*
X131261502Y-98344566D02*
X131176835Y-98344566D01*
X131176835Y-98344566D02*
X131092169Y-98302233D01*
X131092169Y-98302233D02*
X131049835Y-98259900D01*
X131049835Y-98259900D02*
X131007502Y-98175233D01*
X131007502Y-98175233D02*
X131007502Y-97963566D01*
X131007502Y-97963566D02*
X131049835Y-97836566D01*
X131896502Y-97455566D02*
X131007502Y-97455566D01*
X131896502Y-97032233D02*
X131007502Y-97032233D01*
X131007502Y-97032233D02*
X131007502Y-96820566D01*
X131007502Y-96820566D02*
X131049835Y-96693566D01*
X131049835Y-96693566D02*
X131134502Y-96608900D01*
X131134502Y-96608900D02*
X131219169Y-96566566D01*
X131219169Y-96566566D02*
X131388502Y-96524233D01*
X131388502Y-96524233D02*
X131515502Y-96524233D01*
X131515502Y-96524233D02*
X131684835Y-96566566D01*
X131684835Y-96566566D02*
X131769502Y-96608900D01*
X131769502Y-96608900D02*
X131854169Y-96693566D01*
X131854169Y-96693566D02*
X131896502Y-96820566D01*
X131896502Y-96820566D02*
X131896502Y-97032233D01*
X131430835Y-96143233D02*
X131430835Y-95846900D01*
X131896502Y-95719900D02*
X131896502Y-96143233D01*
X131896502Y-96143233D02*
X131007502Y-96143233D01*
X131007502Y-96143233D02*
X131007502Y-95719900D01*
X131515502Y-149948896D02*
X130626502Y-149948896D01*
X131515502Y-149567896D02*
X131049835Y-149567896D01*
X131049835Y-149567896D02*
X130965169Y-149610229D01*
X130965169Y-149610229D02*
X130922835Y-149694896D01*
X130922835Y-149694896D02*
X130922835Y-149821896D01*
X130922835Y-149821896D02*
X130965169Y-149906563D01*
X130965169Y-149906563D02*
X131007502Y-149948896D01*
X130922835Y-149271563D02*
X130922835Y-148932896D01*
X130626502Y-149144563D02*
X131388502Y-149144563D01*
X131388502Y-149144563D02*
X131473169Y-149102230D01*
X131473169Y-149102230D02*
X131515502Y-149017563D01*
X131515502Y-149017563D02*
X131515502Y-148932896D01*
X130922835Y-148763563D02*
X130922835Y-148424896D01*
X130626502Y-148636563D02*
X131388502Y-148636563D01*
X131388502Y-148636563D02*
X131473169Y-148594230D01*
X131473169Y-148594230D02*
X131515502Y-148509563D01*
X131515502Y-148509563D02*
X131515502Y-148424896D01*
X130922835Y-148128563D02*
X131811835Y-148128563D01*
X130965169Y-148128563D02*
X130922835Y-148043896D01*
X130922835Y-148043896D02*
X130922835Y-147874563D01*
X130922835Y-147874563D02*
X130965169Y-147789896D01*
X130965169Y-147789896D02*
X131007502Y-147747563D01*
X131007502Y-147747563D02*
X131092169Y-147705230D01*
X131092169Y-147705230D02*
X131346169Y-147705230D01*
X131346169Y-147705230D02*
X131430835Y-147747563D01*
X131430835Y-147747563D02*
X131473169Y-147789896D01*
X131473169Y-147789896D02*
X131515502Y-147874563D01*
X131515502Y-147874563D02*
X131515502Y-148043896D01*
X131515502Y-148043896D02*
X131473169Y-148128563D01*
X131473169Y-147366563D02*
X131515502Y-147281897D01*
X131515502Y-147281897D02*
X131515502Y-147112563D01*
X131515502Y-147112563D02*
X131473169Y-147027897D01*
X131473169Y-147027897D02*
X131388502Y-146985563D01*
X131388502Y-146985563D02*
X131346169Y-146985563D01*
X131346169Y-146985563D02*
X131261502Y-147027897D01*
X131261502Y-147027897D02*
X131219169Y-147112563D01*
X131219169Y-147112563D02*
X131219169Y-147239563D01*
X131219169Y-147239563D02*
X131176835Y-147324230D01*
X131176835Y-147324230D02*
X131092169Y-147366563D01*
X131092169Y-147366563D02*
X131049835Y-147366563D01*
X131049835Y-147366563D02*
X130965169Y-147324230D01*
X130965169Y-147324230D02*
X130922835Y-147239563D01*
X130922835Y-147239563D02*
X130922835Y-147112563D01*
X130922835Y-147112563D02*
X130965169Y-147027897D01*
X131430835Y-146604563D02*
X131473169Y-146562230D01*
X131473169Y-146562230D02*
X131515502Y-146604563D01*
X131515502Y-146604563D02*
X131473169Y-146646896D01*
X131473169Y-146646896D02*
X131430835Y-146604563D01*
X131430835Y-146604563D02*
X131515502Y-146604563D01*
X130965169Y-146604563D02*
X131007502Y-146562230D01*
X131007502Y-146562230D02*
X131049835Y-146604563D01*
X131049835Y-146604563D02*
X131007502Y-146646896D01*
X131007502Y-146646896D02*
X130965169Y-146604563D01*
X130965169Y-146604563D02*
X131049835Y-146604563D01*
X130584169Y-145546230D02*
X131727169Y-146308230D01*
X130584169Y-144614897D02*
X131727169Y-145376897D01*
X130922835Y-143937564D02*
X131642502Y-143937564D01*
X131642502Y-143937564D02*
X131727169Y-143979897D01*
X131727169Y-143979897D02*
X131769502Y-144022231D01*
X131769502Y-144022231D02*
X131811835Y-144106897D01*
X131811835Y-144106897D02*
X131811835Y-144233897D01*
X131811835Y-144233897D02*
X131769502Y-144318564D01*
X131473169Y-143937564D02*
X131515502Y-144022231D01*
X131515502Y-144022231D02*
X131515502Y-144191564D01*
X131515502Y-144191564D02*
X131473169Y-144276231D01*
X131473169Y-144276231D02*
X131430835Y-144318564D01*
X131430835Y-144318564D02*
X131346169Y-144360897D01*
X131346169Y-144360897D02*
X131092169Y-144360897D01*
X131092169Y-144360897D02*
X131007502Y-144318564D01*
X131007502Y-144318564D02*
X130965169Y-144276231D01*
X130965169Y-144276231D02*
X130922835Y-144191564D01*
X130922835Y-144191564D02*
X130922835Y-144022231D01*
X130922835Y-144022231D02*
X130965169Y-143937564D01*
X131515502Y-143514231D02*
X130922835Y-143514231D01*
X130626502Y-143514231D02*
X130668835Y-143556564D01*
X130668835Y-143556564D02*
X130711169Y-143514231D01*
X130711169Y-143514231D02*
X130668835Y-143471898D01*
X130668835Y-143471898D02*
X130626502Y-143514231D01*
X130626502Y-143514231D02*
X130711169Y-143514231D01*
X130922835Y-143217898D02*
X130922835Y-142879231D01*
X130626502Y-143090898D02*
X131388502Y-143090898D01*
X131388502Y-143090898D02*
X131473169Y-143048565D01*
X131473169Y-143048565D02*
X131515502Y-142963898D01*
X131515502Y-142963898D02*
X131515502Y-142879231D01*
X131515502Y-142582898D02*
X130626502Y-142582898D01*
X131515502Y-142201898D02*
X131049835Y-142201898D01*
X131049835Y-142201898D02*
X130965169Y-142244231D01*
X130965169Y-142244231D02*
X130922835Y-142328898D01*
X130922835Y-142328898D02*
X130922835Y-142455898D01*
X130922835Y-142455898D02*
X130965169Y-142540565D01*
X130965169Y-142540565D02*
X131007502Y-142582898D01*
X130922835Y-141397565D02*
X131515502Y-141397565D01*
X130922835Y-141778565D02*
X131388502Y-141778565D01*
X131388502Y-141778565D02*
X131473169Y-141736232D01*
X131473169Y-141736232D02*
X131515502Y-141651565D01*
X131515502Y-141651565D02*
X131515502Y-141524565D01*
X131515502Y-141524565D02*
X131473169Y-141439898D01*
X131473169Y-141439898D02*
X131430835Y-141397565D01*
X131515502Y-140974232D02*
X130626502Y-140974232D01*
X130965169Y-140974232D02*
X130922835Y-140889565D01*
X130922835Y-140889565D02*
X130922835Y-140720232D01*
X130922835Y-140720232D02*
X130965169Y-140635565D01*
X130965169Y-140635565D02*
X131007502Y-140593232D01*
X131007502Y-140593232D02*
X131092169Y-140550899D01*
X131092169Y-140550899D02*
X131346169Y-140550899D01*
X131346169Y-140550899D02*
X131430835Y-140593232D01*
X131430835Y-140593232D02*
X131473169Y-140635565D01*
X131473169Y-140635565D02*
X131515502Y-140720232D01*
X131515502Y-140720232D02*
X131515502Y-140889565D01*
X131515502Y-140889565D02*
X131473169Y-140974232D01*
X131430835Y-140169899D02*
X131473169Y-140127566D01*
X131473169Y-140127566D02*
X131515502Y-140169899D01*
X131515502Y-140169899D02*
X131473169Y-140212232D01*
X131473169Y-140212232D02*
X131430835Y-140169899D01*
X131430835Y-140169899D02*
X131515502Y-140169899D01*
X131473169Y-139365566D02*
X131515502Y-139450233D01*
X131515502Y-139450233D02*
X131515502Y-139619566D01*
X131515502Y-139619566D02*
X131473169Y-139704233D01*
X131473169Y-139704233D02*
X131430835Y-139746566D01*
X131430835Y-139746566D02*
X131346169Y-139788899D01*
X131346169Y-139788899D02*
X131092169Y-139788899D01*
X131092169Y-139788899D02*
X131007502Y-139746566D01*
X131007502Y-139746566D02*
X130965169Y-139704233D01*
X130965169Y-139704233D02*
X130922835Y-139619566D01*
X130922835Y-139619566D02*
X130922835Y-139450233D01*
X130922835Y-139450233D02*
X130965169Y-139365566D01*
X131515502Y-138857566D02*
X131473169Y-138942233D01*
X131473169Y-138942233D02*
X131430835Y-138984566D01*
X131430835Y-138984566D02*
X131346169Y-139026899D01*
X131346169Y-139026899D02*
X131092169Y-139026899D01*
X131092169Y-139026899D02*
X131007502Y-138984566D01*
X131007502Y-138984566D02*
X130965169Y-138942233D01*
X130965169Y-138942233D02*
X130922835Y-138857566D01*
X130922835Y-138857566D02*
X130922835Y-138730566D01*
X130922835Y-138730566D02*
X130965169Y-138645899D01*
X130965169Y-138645899D02*
X131007502Y-138603566D01*
X131007502Y-138603566D02*
X131092169Y-138561233D01*
X131092169Y-138561233D02*
X131346169Y-138561233D01*
X131346169Y-138561233D02*
X131430835Y-138603566D01*
X131430835Y-138603566D02*
X131473169Y-138645899D01*
X131473169Y-138645899D02*
X131515502Y-138730566D01*
X131515502Y-138730566D02*
X131515502Y-138857566D01*
X131515502Y-138180233D02*
X130922835Y-138180233D01*
X131007502Y-138180233D02*
X130965169Y-138137900D01*
X130965169Y-138137900D02*
X130922835Y-138053233D01*
X130922835Y-138053233D02*
X130922835Y-137926233D01*
X130922835Y-137926233D02*
X130965169Y-137841566D01*
X130965169Y-137841566D02*
X131049835Y-137799233D01*
X131049835Y-137799233D02*
X131515502Y-137799233D01*
X131049835Y-137799233D02*
X130965169Y-137756900D01*
X130965169Y-137756900D02*
X130922835Y-137672233D01*
X130922835Y-137672233D02*
X130922835Y-137545233D01*
X130922835Y-137545233D02*
X130965169Y-137460566D01*
X130965169Y-137460566D02*
X131049835Y-137418233D01*
X131049835Y-137418233D02*
X131515502Y-137418233D01*
X130584169Y-136359900D02*
X131727169Y-137121900D01*
X131515502Y-135682567D02*
X130626502Y-135682567D01*
X131473169Y-135682567D02*
X131515502Y-135767234D01*
X131515502Y-135767234D02*
X131515502Y-135936567D01*
X131515502Y-135936567D02*
X131473169Y-136021234D01*
X131473169Y-136021234D02*
X131430835Y-136063567D01*
X131430835Y-136063567D02*
X131346169Y-136105900D01*
X131346169Y-136105900D02*
X131092169Y-136105900D01*
X131092169Y-136105900D02*
X131007502Y-136063567D01*
X131007502Y-136063567D02*
X130965169Y-136021234D01*
X130965169Y-136021234D02*
X130922835Y-135936567D01*
X130922835Y-135936567D02*
X130922835Y-135767234D01*
X130922835Y-135767234D02*
X130965169Y-135682567D01*
X131515502Y-135259234D02*
X130626502Y-135259234D01*
X130965169Y-135259234D02*
X130922835Y-135174567D01*
X130922835Y-135174567D02*
X130922835Y-135005234D01*
X130922835Y-135005234D02*
X130965169Y-134920567D01*
X130965169Y-134920567D02*
X131007502Y-134878234D01*
X131007502Y-134878234D02*
X131092169Y-134835901D01*
X131092169Y-134835901D02*
X131346169Y-134835901D01*
X131346169Y-134835901D02*
X131430835Y-134878234D01*
X131430835Y-134878234D02*
X131473169Y-134920567D01*
X131473169Y-134920567D02*
X131515502Y-135005234D01*
X131515502Y-135005234D02*
X131515502Y-135174567D01*
X131515502Y-135174567D02*
X131473169Y-135259234D01*
X131176835Y-134454901D02*
X131176835Y-133777568D01*
X131473169Y-133015567D02*
X131515502Y-133100234D01*
X131515502Y-133100234D02*
X131515502Y-133269567D01*
X131515502Y-133269567D02*
X131473169Y-133354234D01*
X131473169Y-133354234D02*
X131388502Y-133396567D01*
X131388502Y-133396567D02*
X131049835Y-133396567D01*
X131049835Y-133396567D02*
X130965169Y-133354234D01*
X130965169Y-133354234D02*
X130922835Y-133269567D01*
X130922835Y-133269567D02*
X130922835Y-133100234D01*
X130922835Y-133100234D02*
X130965169Y-133015567D01*
X130965169Y-133015567D02*
X131049835Y-132973234D01*
X131049835Y-132973234D02*
X131134502Y-132973234D01*
X131134502Y-132973234D02*
X131219169Y-133396567D01*
X131515502Y-132465234D02*
X131473169Y-132549901D01*
X131473169Y-132549901D02*
X131388502Y-132592234D01*
X131388502Y-132592234D02*
X130626502Y-132592234D01*
X131473169Y-131787900D02*
X131515502Y-131872567D01*
X131515502Y-131872567D02*
X131515502Y-132041900D01*
X131515502Y-132041900D02*
X131473169Y-132126567D01*
X131473169Y-132126567D02*
X131388502Y-132168900D01*
X131388502Y-132168900D02*
X131049835Y-132168900D01*
X131049835Y-132168900D02*
X130965169Y-132126567D01*
X130965169Y-132126567D02*
X130922835Y-132041900D01*
X130922835Y-132041900D02*
X130922835Y-131872567D01*
X130922835Y-131872567D02*
X130965169Y-131787900D01*
X130965169Y-131787900D02*
X131049835Y-131745567D01*
X131049835Y-131745567D02*
X131134502Y-131745567D01*
X131134502Y-131745567D02*
X131219169Y-132168900D01*
X131473169Y-130983567D02*
X131515502Y-131068234D01*
X131515502Y-131068234D02*
X131515502Y-131237567D01*
X131515502Y-131237567D02*
X131473169Y-131322234D01*
X131473169Y-131322234D02*
X131430835Y-131364567D01*
X131430835Y-131364567D02*
X131346169Y-131406900D01*
X131346169Y-131406900D02*
X131092169Y-131406900D01*
X131092169Y-131406900D02*
X131007502Y-131364567D01*
X131007502Y-131364567D02*
X130965169Y-131322234D01*
X130965169Y-131322234D02*
X130922835Y-131237567D01*
X130922835Y-131237567D02*
X130922835Y-131068234D01*
X130922835Y-131068234D02*
X130965169Y-130983567D01*
X130922835Y-130729567D02*
X130922835Y-130390900D01*
X130626502Y-130602567D02*
X131388502Y-130602567D01*
X131388502Y-130602567D02*
X131473169Y-130560234D01*
X131473169Y-130560234D02*
X131515502Y-130475567D01*
X131515502Y-130475567D02*
X131515502Y-130390900D01*
X131515502Y-130094567D02*
X130922835Y-130094567D01*
X131092169Y-130094567D02*
X131007502Y-130052234D01*
X131007502Y-130052234D02*
X130965169Y-130009900D01*
X130965169Y-130009900D02*
X130922835Y-129925234D01*
X130922835Y-129925234D02*
X130922835Y-129840567D01*
X131515502Y-129417234D02*
X131473169Y-129501901D01*
X131473169Y-129501901D02*
X131430835Y-129544234D01*
X131430835Y-129544234D02*
X131346169Y-129586567D01*
X131346169Y-129586567D02*
X131092169Y-129586567D01*
X131092169Y-129586567D02*
X131007502Y-129544234D01*
X131007502Y-129544234D02*
X130965169Y-129501901D01*
X130965169Y-129501901D02*
X130922835Y-129417234D01*
X130922835Y-129417234D02*
X130922835Y-129290234D01*
X130922835Y-129290234D02*
X130965169Y-129205567D01*
X130965169Y-129205567D02*
X131007502Y-129163234D01*
X131007502Y-129163234D02*
X131092169Y-129120901D01*
X131092169Y-129120901D02*
X131346169Y-129120901D01*
X131346169Y-129120901D02*
X131430835Y-129163234D01*
X131430835Y-129163234D02*
X131473169Y-129205567D01*
X131473169Y-129205567D02*
X131515502Y-129290234D01*
X131515502Y-129290234D02*
X131515502Y-129417234D01*
X130922835Y-128739901D02*
X131515502Y-128739901D01*
X131007502Y-128739901D02*
X130965169Y-128697568D01*
X130965169Y-128697568D02*
X130922835Y-128612901D01*
X130922835Y-128612901D02*
X130922835Y-128485901D01*
X130922835Y-128485901D02*
X130965169Y-128401234D01*
X130965169Y-128401234D02*
X131049835Y-128358901D01*
X131049835Y-128358901D02*
X131515502Y-128358901D01*
X131515502Y-127935568D02*
X130922835Y-127935568D01*
X130626502Y-127935568D02*
X130668835Y-127977901D01*
X130668835Y-127977901D02*
X130711169Y-127935568D01*
X130711169Y-127935568D02*
X130668835Y-127893235D01*
X130668835Y-127893235D02*
X130626502Y-127935568D01*
X130626502Y-127935568D02*
X130711169Y-127935568D01*
X131473169Y-127131235D02*
X131515502Y-127215902D01*
X131515502Y-127215902D02*
X131515502Y-127385235D01*
X131515502Y-127385235D02*
X131473169Y-127469902D01*
X131473169Y-127469902D02*
X131430835Y-127512235D01*
X131430835Y-127512235D02*
X131346169Y-127554568D01*
X131346169Y-127554568D02*
X131092169Y-127554568D01*
X131092169Y-127554568D02*
X131007502Y-127512235D01*
X131007502Y-127512235D02*
X130965169Y-127469902D01*
X130965169Y-127469902D02*
X130922835Y-127385235D01*
X130922835Y-127385235D02*
X130922835Y-127215902D01*
X130922835Y-127215902D02*
X130965169Y-127131235D01*
X131473169Y-126792568D02*
X131515502Y-126707902D01*
X131515502Y-126707902D02*
X131515502Y-126538568D01*
X131515502Y-126538568D02*
X131473169Y-126453902D01*
X131473169Y-126453902D02*
X131388502Y-126411568D01*
X131388502Y-126411568D02*
X131346169Y-126411568D01*
X131346169Y-126411568D02*
X131261502Y-126453902D01*
X131261502Y-126453902D02*
X131219169Y-126538568D01*
X131219169Y-126538568D02*
X131219169Y-126665568D01*
X131219169Y-126665568D02*
X131176835Y-126750235D01*
X131176835Y-126750235D02*
X131092169Y-126792568D01*
X131092169Y-126792568D02*
X131049835Y-126792568D01*
X131049835Y-126792568D02*
X130965169Y-126750235D01*
X130965169Y-126750235D02*
X130922835Y-126665568D01*
X130922835Y-126665568D02*
X130922835Y-126538568D01*
X130922835Y-126538568D02*
X130965169Y-126453902D01*
X130584169Y-125395568D02*
X131727169Y-126157568D01*
X130626502Y-125099235D02*
X131346169Y-125099235D01*
X131346169Y-125099235D02*
X131430835Y-125056902D01*
X131430835Y-125056902D02*
X131473169Y-125014568D01*
X131473169Y-125014568D02*
X131515502Y-124929902D01*
X131515502Y-124929902D02*
X131515502Y-124760568D01*
X131515502Y-124760568D02*
X131473169Y-124675902D01*
X131473169Y-124675902D02*
X131430835Y-124633568D01*
X131430835Y-124633568D02*
X131346169Y-124591235D01*
X131346169Y-124591235D02*
X130626502Y-124591235D01*
X131515502Y-124167902D02*
X130626502Y-124167902D01*
X130626502Y-124167902D02*
X131261502Y-123871569D01*
X131261502Y-123871569D02*
X130626502Y-123575235D01*
X130626502Y-123575235D02*
X131515502Y-123575235D01*
X131515502Y-123151902D02*
X130626502Y-123151902D01*
X130626502Y-123151902D02*
X130626502Y-122940235D01*
X130626502Y-122940235D02*
X130668835Y-122813235D01*
X130668835Y-122813235D02*
X130753502Y-122728569D01*
X130753502Y-122728569D02*
X130838169Y-122686235D01*
X130838169Y-122686235D02*
X131007502Y-122643902D01*
X131007502Y-122643902D02*
X131134502Y-122643902D01*
X131134502Y-122643902D02*
X131303835Y-122686235D01*
X131303835Y-122686235D02*
X131388502Y-122728569D01*
X131388502Y-122728569D02*
X131473169Y-122813235D01*
X131473169Y-122813235D02*
X131515502Y-122940235D01*
X131515502Y-122940235D02*
X131515502Y-123151902D01*
X130922835Y-122347569D02*
X131515502Y-122135902D01*
X131515502Y-122135902D02*
X130922835Y-121924235D01*
X130626502Y-121670236D02*
X130626502Y-121119902D01*
X130626502Y-121119902D02*
X130965169Y-121416236D01*
X130965169Y-121416236D02*
X130965169Y-121289236D01*
X130965169Y-121289236D02*
X131007502Y-121204569D01*
X131007502Y-121204569D02*
X131049835Y-121162236D01*
X131049835Y-121162236D02*
X131134502Y-121119902D01*
X131134502Y-121119902D02*
X131346169Y-121119902D01*
X131346169Y-121119902D02*
X131430835Y-121162236D01*
X131430835Y-121162236D02*
X131473169Y-121204569D01*
X131473169Y-121204569D02*
X131515502Y-121289236D01*
X131515502Y-121289236D02*
X131515502Y-121543236D01*
X131515502Y-121543236D02*
X131473169Y-121627902D01*
X131473169Y-121627902D02*
X131430835Y-121670236D01*
X131176835Y-120738902D02*
X131176835Y-120061569D01*
X131515502Y-119638235D02*
X130626502Y-119638235D01*
X131176835Y-119553568D02*
X131515502Y-119299568D01*
X130922835Y-119299568D02*
X131261502Y-119638235D01*
X131515502Y-118918568D02*
X130922835Y-118918568D01*
X130626502Y-118918568D02*
X130668835Y-118960901D01*
X130668835Y-118960901D02*
X130711169Y-118918568D01*
X130711169Y-118918568D02*
X130668835Y-118876235D01*
X130668835Y-118876235D02*
X130626502Y-118918568D01*
X130626502Y-118918568D02*
X130711169Y-118918568D01*
X131473169Y-118114235D02*
X131515502Y-118198902D01*
X131515502Y-118198902D02*
X131515502Y-118368235D01*
X131515502Y-118368235D02*
X131473169Y-118452902D01*
X131473169Y-118452902D02*
X131430835Y-118495235D01*
X131430835Y-118495235D02*
X131346169Y-118537568D01*
X131346169Y-118537568D02*
X131092169Y-118537568D01*
X131092169Y-118537568D02*
X131007502Y-118495235D01*
X131007502Y-118495235D02*
X130965169Y-118452902D01*
X130965169Y-118452902D02*
X130922835Y-118368235D01*
X130922835Y-118368235D02*
X130922835Y-118198902D01*
X130922835Y-118198902D02*
X130965169Y-118114235D01*
X131515502Y-117352235D02*
X131049835Y-117352235D01*
X131049835Y-117352235D02*
X130965169Y-117394568D01*
X130965169Y-117394568D02*
X130922835Y-117479235D01*
X130922835Y-117479235D02*
X130922835Y-117648568D01*
X130922835Y-117648568D02*
X130965169Y-117733235D01*
X131473169Y-117352235D02*
X131515502Y-117436902D01*
X131515502Y-117436902D02*
X131515502Y-117648568D01*
X131515502Y-117648568D02*
X131473169Y-117733235D01*
X131473169Y-117733235D02*
X131388502Y-117775568D01*
X131388502Y-117775568D02*
X131303835Y-117775568D01*
X131303835Y-117775568D02*
X131219169Y-117733235D01*
X131219169Y-117733235D02*
X131176835Y-117648568D01*
X131176835Y-117648568D02*
X131176835Y-117436902D01*
X131176835Y-117436902D02*
X131134502Y-117352235D01*
X131515502Y-116547902D02*
X130626502Y-116547902D01*
X131473169Y-116547902D02*
X131515502Y-116632569D01*
X131515502Y-116632569D02*
X131515502Y-116801902D01*
X131515502Y-116801902D02*
X131473169Y-116886569D01*
X131473169Y-116886569D02*
X131430835Y-116928902D01*
X131430835Y-116928902D02*
X131346169Y-116971235D01*
X131346169Y-116971235D02*
X131092169Y-116971235D01*
X131092169Y-116971235D02*
X131007502Y-116928902D01*
X131007502Y-116928902D02*
X130965169Y-116886569D01*
X130965169Y-116886569D02*
X130922835Y-116801902D01*
X130922835Y-116801902D02*
X130922835Y-116632569D01*
X130922835Y-116632569D02*
X130965169Y-116547902D01*
X138995484Y-75140837D02*
X138572150Y-75140837D01*
X138572150Y-75140837D02*
X138529817Y-75564170D01*
X138529817Y-75564170D02*
X138572150Y-75521837D01*
X138572150Y-75521837D02*
X138656817Y-75479504D01*
X138656817Y-75479504D02*
X138868484Y-75479504D01*
X138868484Y-75479504D02*
X138953150Y-75521837D01*
X138953150Y-75521837D02*
X138995484Y-75564170D01*
X138995484Y-75564170D02*
X139037817Y-75648837D01*
X139037817Y-75648837D02*
X139037817Y-75860504D01*
X139037817Y-75860504D02*
X138995484Y-75945170D01*
X138995484Y-75945170D02*
X138953150Y-75987504D01*
X138953150Y-75987504D02*
X138868484Y-76029837D01*
X138868484Y-76029837D02*
X138656817Y-76029837D01*
X138656817Y-76029837D02*
X138572150Y-75987504D01*
X138572150Y-75987504D02*
X138529817Y-75945170D01*
X150963435Y-108051599D02*
X151005769Y-107924599D01*
X151005769Y-107924599D02*
X151048102Y-107882265D01*
X151048102Y-107882265D02*
X151132769Y-107839932D01*
X151132769Y-107839932D02*
X151259769Y-107839932D01*
X151259769Y-107839932D02*
X151344435Y-107882265D01*
X151344435Y-107882265D02*
X151386769Y-107924599D01*
X151386769Y-107924599D02*
X151429102Y-108009265D01*
X151429102Y-108009265D02*
X151429102Y-108347932D01*
X151429102Y-108347932D02*
X150540102Y-108347932D01*
X150540102Y-108347932D02*
X150540102Y-108051599D01*
X150540102Y-108051599D02*
X150582435Y-107966932D01*
X150582435Y-107966932D02*
X150624769Y-107924599D01*
X150624769Y-107924599D02*
X150709435Y-107882265D01*
X150709435Y-107882265D02*
X150794102Y-107882265D01*
X150794102Y-107882265D02*
X150878769Y-107924599D01*
X150878769Y-107924599D02*
X150921102Y-107966932D01*
X150921102Y-107966932D02*
X150963435Y-108051599D01*
X150963435Y-108051599D02*
X150963435Y-108347932D01*
X151175102Y-107501265D02*
X151175102Y-107077932D01*
X151429102Y-107585932D02*
X150540102Y-107289599D01*
X150540102Y-107289599D02*
X151429102Y-106993265D01*
X151344435Y-106188932D02*
X151386769Y-106231265D01*
X151386769Y-106231265D02*
X151429102Y-106358265D01*
X151429102Y-106358265D02*
X151429102Y-106442932D01*
X151429102Y-106442932D02*
X151386769Y-106569932D01*
X151386769Y-106569932D02*
X151302102Y-106654599D01*
X151302102Y-106654599D02*
X151217435Y-106696932D01*
X151217435Y-106696932D02*
X151048102Y-106739265D01*
X151048102Y-106739265D02*
X150921102Y-106739265D01*
X150921102Y-106739265D02*
X150751769Y-106696932D01*
X150751769Y-106696932D02*
X150667102Y-106654599D01*
X150667102Y-106654599D02*
X150582435Y-106569932D01*
X150582435Y-106569932D02*
X150540102Y-106442932D01*
X150540102Y-106442932D02*
X150540102Y-106358265D01*
X150540102Y-106358265D02*
X150582435Y-106231265D01*
X150582435Y-106231265D02*
X150624769Y-106188932D01*
X151429102Y-105807932D02*
X150540102Y-105807932D01*
X151429102Y-105299932D02*
X150921102Y-105680932D01*
X150540102Y-105299932D02*
X151048102Y-105807932D01*
X150497769Y-104283932D02*
X151640769Y-105045932D01*
X151344435Y-103479599D02*
X151386769Y-103521932D01*
X151386769Y-103521932D02*
X151429102Y-103648932D01*
X151429102Y-103648932D02*
X151429102Y-103733599D01*
X151429102Y-103733599D02*
X151386769Y-103860599D01*
X151386769Y-103860599D02*
X151302102Y-103945266D01*
X151302102Y-103945266D02*
X151217435Y-103987599D01*
X151217435Y-103987599D02*
X151048102Y-104029932D01*
X151048102Y-104029932D02*
X150921102Y-104029932D01*
X150921102Y-104029932D02*
X150751769Y-103987599D01*
X150751769Y-103987599D02*
X150667102Y-103945266D01*
X150667102Y-103945266D02*
X150582435Y-103860599D01*
X150582435Y-103860599D02*
X150540102Y-103733599D01*
X150540102Y-103733599D02*
X150540102Y-103648932D01*
X150540102Y-103648932D02*
X150582435Y-103521932D01*
X150582435Y-103521932D02*
X150624769Y-103479599D01*
X150540102Y-102929266D02*
X150540102Y-102759932D01*
X150540102Y-102759932D02*
X150582435Y-102675266D01*
X150582435Y-102675266D02*
X150667102Y-102590599D01*
X150667102Y-102590599D02*
X150836435Y-102548266D01*
X150836435Y-102548266D02*
X151132769Y-102548266D01*
X151132769Y-102548266D02*
X151302102Y-102590599D01*
X151302102Y-102590599D02*
X151386769Y-102675266D01*
X151386769Y-102675266D02*
X151429102Y-102759932D01*
X151429102Y-102759932D02*
X151429102Y-102929266D01*
X151429102Y-102929266D02*
X151386769Y-103013932D01*
X151386769Y-103013932D02*
X151302102Y-103098599D01*
X151302102Y-103098599D02*
X151132769Y-103140932D01*
X151132769Y-103140932D02*
X150836435Y-103140932D01*
X150836435Y-103140932D02*
X150667102Y-103098599D01*
X150667102Y-103098599D02*
X150582435Y-103013932D01*
X150582435Y-103013932D02*
X150540102Y-102929266D01*
X151429102Y-102167266D02*
X150540102Y-102167266D01*
X150540102Y-102167266D02*
X151175102Y-101870933D01*
X151175102Y-101870933D02*
X150540102Y-101574599D01*
X150540102Y-101574599D02*
X151429102Y-101574599D01*
X151429102Y-101151266D02*
X150540102Y-101151266D01*
X150540102Y-101151266D02*
X150540102Y-100812599D01*
X150540102Y-100812599D02*
X150582435Y-100727933D01*
X150582435Y-100727933D02*
X150624769Y-100685599D01*
X150624769Y-100685599D02*
X150709435Y-100643266D01*
X150709435Y-100643266D02*
X150836435Y-100643266D01*
X150836435Y-100643266D02*
X150921102Y-100685599D01*
X150921102Y-100685599D02*
X150963435Y-100727933D01*
X150963435Y-100727933D02*
X151005769Y-100812599D01*
X151005769Y-100812599D02*
X151005769Y-101151266D01*
X150540102Y-100092933D02*
X150540102Y-99923599D01*
X150540102Y-99923599D02*
X150582435Y-99838933D01*
X150582435Y-99838933D02*
X150667102Y-99754266D01*
X150667102Y-99754266D02*
X150836435Y-99711933D01*
X150836435Y-99711933D02*
X151132769Y-99711933D01*
X151132769Y-99711933D02*
X151302102Y-99754266D01*
X151302102Y-99754266D02*
X151386769Y-99838933D01*
X151386769Y-99838933D02*
X151429102Y-99923599D01*
X151429102Y-99923599D02*
X151429102Y-100092933D01*
X151429102Y-100092933D02*
X151386769Y-100177599D01*
X151386769Y-100177599D02*
X151302102Y-100262266D01*
X151302102Y-100262266D02*
X151132769Y-100304599D01*
X151132769Y-100304599D02*
X150836435Y-100304599D01*
X150836435Y-100304599D02*
X150667102Y-100262266D01*
X150667102Y-100262266D02*
X150582435Y-100177599D01*
X150582435Y-100177599D02*
X150540102Y-100092933D01*
X151429102Y-99330933D02*
X150540102Y-99330933D01*
X150540102Y-99330933D02*
X151429102Y-98822933D01*
X151429102Y-98822933D02*
X150540102Y-98822933D01*
X150963435Y-98399600D02*
X150963435Y-98103267D01*
X151429102Y-97976267D02*
X151429102Y-98399600D01*
X151429102Y-98399600D02*
X150540102Y-98399600D01*
X150540102Y-98399600D02*
X150540102Y-97976267D01*
X151429102Y-97595267D02*
X150540102Y-97595267D01*
X150540102Y-97595267D02*
X151429102Y-97087267D01*
X151429102Y-97087267D02*
X150540102Y-97087267D01*
X150540102Y-96790934D02*
X150540102Y-96282934D01*
X151429102Y-96536934D02*
X150540102Y-96536934D01*
X151386769Y-96028934D02*
X151429102Y-95901934D01*
X151429102Y-95901934D02*
X151429102Y-95690268D01*
X151429102Y-95690268D02*
X151386769Y-95605601D01*
X151386769Y-95605601D02*
X151344435Y-95563268D01*
X151344435Y-95563268D02*
X151259769Y-95520934D01*
X151259769Y-95520934D02*
X151175102Y-95520934D01*
X151175102Y-95520934D02*
X151090435Y-95563268D01*
X151090435Y-95563268D02*
X151048102Y-95605601D01*
X151048102Y-95605601D02*
X151005769Y-95690268D01*
X151005769Y-95690268D02*
X150963435Y-95859601D01*
X150963435Y-95859601D02*
X150921102Y-95944268D01*
X150921102Y-95944268D02*
X150878769Y-95986601D01*
X150878769Y-95986601D02*
X150794102Y-96028934D01*
X150794102Y-96028934D02*
X150709435Y-96028934D01*
X150709435Y-96028934D02*
X150624769Y-95986601D01*
X150624769Y-95986601D02*
X150582435Y-95944268D01*
X150582435Y-95944268D02*
X150540102Y-95859601D01*
X150540102Y-95859601D02*
X150540102Y-95647934D01*
X150540102Y-95647934D02*
X150582435Y-95520934D01*
X150222284Y-75090037D02*
X150772617Y-75090037D01*
X150772617Y-75090037D02*
X150476284Y-75428704D01*
X150476284Y-75428704D02*
X150603284Y-75428704D01*
X150603284Y-75428704D02*
X150687950Y-75471037D01*
X150687950Y-75471037D02*
X150730284Y-75513370D01*
X150730284Y-75513370D02*
X150772617Y-75598037D01*
X150772617Y-75598037D02*
X150772617Y-75809704D01*
X150772617Y-75809704D02*
X150730284Y-75894370D01*
X150730284Y-75894370D02*
X150687950Y-75936704D01*
X150687950Y-75936704D02*
X150603284Y-75979037D01*
X150603284Y-75979037D02*
X150349284Y-75979037D01*
X150349284Y-75979037D02*
X150264617Y-75936704D01*
X150264617Y-75936704D02*
X150222284Y-75894370D01*
X151534617Y-75090037D02*
X151365284Y-75090037D01*
X151365284Y-75090037D02*
X151280617Y-75132370D01*
X151280617Y-75132370D02*
X151238284Y-75174704D01*
X151238284Y-75174704D02*
X151153617Y-75301704D01*
X151153617Y-75301704D02*
X151111284Y-75471037D01*
X151111284Y-75471037D02*
X151111284Y-75809704D01*
X151111284Y-75809704D02*
X151153617Y-75894370D01*
X151153617Y-75894370D02*
X151195951Y-75936704D01*
X151195951Y-75936704D02*
X151280617Y-75979037D01*
X151280617Y-75979037D02*
X151449951Y-75979037D01*
X151449951Y-75979037D02*
X151534617Y-75936704D01*
X151534617Y-75936704D02*
X151576951Y-75894370D01*
X151576951Y-75894370D02*
X151619284Y-75809704D01*
X151619284Y-75809704D02*
X151619284Y-75598037D01*
X151619284Y-75598037D02*
X151576951Y-75513370D01*
X151576951Y-75513370D02*
X151534617Y-75471037D01*
X151534617Y-75471037D02*
X151449951Y-75428704D01*
X151449951Y-75428704D02*
X151280617Y-75428704D01*
X151280617Y-75428704D02*
X151195951Y-75471037D01*
X151195951Y-75471037D02*
X151153617Y-75513370D01*
X151153617Y-75513370D02*
X151111284Y-75598037D01*
D11*
X131853179Y-70734766D02*
X131895512Y-70607766D01*
X131895512Y-70607766D02*
X131895512Y-70396100D01*
X131895512Y-70396100D02*
X131853179Y-70311433D01*
X131853179Y-70311433D02*
X131810845Y-70269100D01*
X131810845Y-70269100D02*
X131726179Y-70226766D01*
X131726179Y-70226766D02*
X131641512Y-70226766D01*
X131641512Y-70226766D02*
X131556845Y-70269100D01*
X131556845Y-70269100D02*
X131514512Y-70311433D01*
X131514512Y-70311433D02*
X131472179Y-70396100D01*
X131472179Y-70396100D02*
X131429845Y-70565433D01*
X131429845Y-70565433D02*
X131387512Y-70650100D01*
X131387512Y-70650100D02*
X131345179Y-70692433D01*
X131345179Y-70692433D02*
X131260512Y-70734766D01*
X131260512Y-70734766D02*
X131175845Y-70734766D01*
X131175845Y-70734766D02*
X131091179Y-70692433D01*
X131091179Y-70692433D02*
X131048845Y-70650100D01*
X131048845Y-70650100D02*
X131006512Y-70565433D01*
X131006512Y-70565433D02*
X131006512Y-70353766D01*
X131006512Y-70353766D02*
X131048845Y-70226766D01*
X131895512Y-69845766D02*
X131006512Y-69845766D01*
X131006512Y-69845766D02*
X131895512Y-69337766D01*
X131895512Y-69337766D02*
X131006512Y-69337766D01*
X131429845Y-68914433D02*
X131429845Y-68618100D01*
X131895512Y-68491100D02*
X131895512Y-68914433D01*
X131895512Y-68914433D02*
X131006512Y-68914433D01*
X131006512Y-68914433D02*
X131006512Y-68491100D01*
X131853179Y-68152433D02*
X131895512Y-68025433D01*
X131895512Y-68025433D02*
X131895512Y-67813767D01*
X131895512Y-67813767D02*
X131853179Y-67729100D01*
X131853179Y-67729100D02*
X131810845Y-67686767D01*
X131810845Y-67686767D02*
X131726179Y-67644433D01*
X131726179Y-67644433D02*
X131641512Y-67644433D01*
X131641512Y-67644433D02*
X131556845Y-67686767D01*
X131556845Y-67686767D02*
X131514512Y-67729100D01*
X131514512Y-67729100D02*
X131472179Y-67813767D01*
X131472179Y-67813767D02*
X131429845Y-67983100D01*
X131429845Y-67983100D02*
X131387512Y-68067767D01*
X131387512Y-68067767D02*
X131345179Y-68110100D01*
X131345179Y-68110100D02*
X131260512Y-68152433D01*
X131260512Y-68152433D02*
X131175845Y-68152433D01*
X131175845Y-68152433D02*
X131091179Y-68110100D01*
X131091179Y-68110100D02*
X131048845Y-68067767D01*
X131048845Y-68067767D02*
X131006512Y-67983100D01*
X131006512Y-67983100D02*
X131006512Y-67771433D01*
X131006512Y-67771433D02*
X131048845Y-67644433D01*
X131302845Y-66670767D02*
X131895512Y-66459100D01*
X131895512Y-66459100D02*
X131302845Y-66247433D01*
X131006512Y-65993434D02*
X131006512Y-65443100D01*
X131006512Y-65443100D02*
X131345179Y-65739434D01*
X131345179Y-65739434D02*
X131345179Y-65612434D01*
X131345179Y-65612434D02*
X131387512Y-65527767D01*
X131387512Y-65527767D02*
X131429845Y-65485434D01*
X131429845Y-65485434D02*
X131514512Y-65443100D01*
X131514512Y-65443100D02*
X131726179Y-65443100D01*
X131726179Y-65443100D02*
X131810845Y-65485434D01*
X131810845Y-65485434D02*
X131853179Y-65527767D01*
X131853179Y-65527767D02*
X131895512Y-65612434D01*
X131895512Y-65612434D02*
X131895512Y-65866434D01*
X131895512Y-65866434D02*
X131853179Y-65951100D01*
X131853179Y-65951100D02*
X131810845Y-65993434D01*
X131810845Y-65062100D02*
X131853179Y-65019767D01*
X131853179Y-65019767D02*
X131895512Y-65062100D01*
X131895512Y-65062100D02*
X131853179Y-65104433D01*
X131853179Y-65104433D02*
X131810845Y-65062100D01*
X131810845Y-65062100D02*
X131895512Y-65062100D01*
X131006512Y-64469434D02*
X131006512Y-64384767D01*
X131006512Y-64384767D02*
X131048845Y-64300100D01*
X131048845Y-64300100D02*
X131091179Y-64257767D01*
X131091179Y-64257767D02*
X131175845Y-64215434D01*
X131175845Y-64215434D02*
X131345179Y-64173100D01*
X131345179Y-64173100D02*
X131556845Y-64173100D01*
X131556845Y-64173100D02*
X131726179Y-64215434D01*
X131726179Y-64215434D02*
X131810845Y-64257767D01*
X131810845Y-64257767D02*
X131853179Y-64300100D01*
X131853179Y-64300100D02*
X131895512Y-64384767D01*
X131895512Y-64384767D02*
X131895512Y-64469434D01*
X131895512Y-64469434D02*
X131853179Y-64554100D01*
X131853179Y-64554100D02*
X131810845Y-64596434D01*
X131810845Y-64596434D02*
X131726179Y-64638767D01*
X131726179Y-64638767D02*
X131556845Y-64681100D01*
X131556845Y-64681100D02*
X131345179Y-64681100D01*
X131345179Y-64681100D02*
X131175845Y-64638767D01*
X131175845Y-64638767D02*
X131091179Y-64596434D01*
X131091179Y-64596434D02*
X131048845Y-64554100D01*
X131048845Y-64554100D02*
X131006512Y-64469434D01*
X131895512Y-63114767D02*
X131006512Y-63114767D01*
X131895512Y-62691434D02*
X131006512Y-62691434D01*
X131006512Y-62691434D02*
X131006512Y-62479767D01*
X131006512Y-62479767D02*
X131048845Y-62352767D01*
X131048845Y-62352767D02*
X131133512Y-62268101D01*
X131133512Y-62268101D02*
X131218179Y-62225767D01*
X131218179Y-62225767D02*
X131387512Y-62183434D01*
X131387512Y-62183434D02*
X131514512Y-62183434D01*
X131514512Y-62183434D02*
X131683845Y-62225767D01*
X131683845Y-62225767D02*
X131768512Y-62268101D01*
X131768512Y-62268101D02*
X131853179Y-62352767D01*
X131853179Y-62352767D02*
X131895512Y-62479767D01*
X131895512Y-62479767D02*
X131895512Y-62691434D01*
X131429845Y-61125101D02*
X131429845Y-60447768D01*
X131683845Y-60447768D02*
X131683845Y-61125101D01*
X131006512Y-59177768D02*
X131006512Y-59093101D01*
X131006512Y-59093101D02*
X131048845Y-59008434D01*
X131048845Y-59008434D02*
X131091179Y-58966101D01*
X131091179Y-58966101D02*
X131175845Y-58923768D01*
X131175845Y-58923768D02*
X131345179Y-58881434D01*
X131345179Y-58881434D02*
X131556845Y-58881434D01*
X131556845Y-58881434D02*
X131726179Y-58923768D01*
X131726179Y-58923768D02*
X131810845Y-58966101D01*
X131810845Y-58966101D02*
X131853179Y-59008434D01*
X131853179Y-59008434D02*
X131895512Y-59093101D01*
X131895512Y-59093101D02*
X131895512Y-59177768D01*
X131895512Y-59177768D02*
X131853179Y-59262434D01*
X131853179Y-59262434D02*
X131810845Y-59304768D01*
X131810845Y-59304768D02*
X131726179Y-59347101D01*
X131726179Y-59347101D02*
X131556845Y-59389434D01*
X131556845Y-59389434D02*
X131345179Y-59389434D01*
X131345179Y-59389434D02*
X131175845Y-59347101D01*
X131175845Y-59347101D02*
X131091179Y-59304768D01*
X131091179Y-59304768D02*
X131048845Y-59262434D01*
X131048845Y-59262434D02*
X131006512Y-59177768D01*
X131895512Y-58585101D02*
X131302845Y-58119434D01*
X131302845Y-58585101D02*
X131895512Y-58119434D01*
X131006512Y-57611434D02*
X131006512Y-57526767D01*
X131006512Y-57526767D02*
X131048845Y-57442100D01*
X131048845Y-57442100D02*
X131091179Y-57399767D01*
X131091179Y-57399767D02*
X131175845Y-57357434D01*
X131175845Y-57357434D02*
X131345179Y-57315100D01*
X131345179Y-57315100D02*
X131556845Y-57315100D01*
X131556845Y-57315100D02*
X131726179Y-57357434D01*
X131726179Y-57357434D02*
X131810845Y-57399767D01*
X131810845Y-57399767D02*
X131853179Y-57442100D01*
X131853179Y-57442100D02*
X131895512Y-57526767D01*
X131895512Y-57526767D02*
X131895512Y-57611434D01*
X131895512Y-57611434D02*
X131853179Y-57696100D01*
X131853179Y-57696100D02*
X131810845Y-57738434D01*
X131810845Y-57738434D02*
X131726179Y-57780767D01*
X131726179Y-57780767D02*
X131556845Y-57823100D01*
X131556845Y-57823100D02*
X131345179Y-57823100D01*
X131345179Y-57823100D02*
X131175845Y-57780767D01*
X131175845Y-57780767D02*
X131091179Y-57738434D01*
X131091179Y-57738434D02*
X131048845Y-57696100D01*
X131048845Y-57696100D02*
X131006512Y-57611434D01*
X131006512Y-57018767D02*
X131006512Y-56468433D01*
X131006512Y-56468433D02*
X131345179Y-56764767D01*
X131345179Y-56764767D02*
X131345179Y-56637767D01*
X131345179Y-56637767D02*
X131387512Y-56553100D01*
X131387512Y-56553100D02*
X131429845Y-56510767D01*
X131429845Y-56510767D02*
X131514512Y-56468433D01*
X131514512Y-56468433D02*
X131726179Y-56468433D01*
X131726179Y-56468433D02*
X131810845Y-56510767D01*
X131810845Y-56510767D02*
X131853179Y-56553100D01*
X131853179Y-56553100D02*
X131895512Y-56637767D01*
X131895512Y-56637767D02*
X131895512Y-56891767D01*
X131895512Y-56891767D02*
X131853179Y-56976433D01*
X131853179Y-56976433D02*
X131810845Y-57018767D01*
D10*
X150603284Y-130106437D02*
X150179950Y-130106437D01*
X150179950Y-130106437D02*
X150137617Y-130529770D01*
X150137617Y-130529770D02*
X150179950Y-130487437D01*
X150179950Y-130487437D02*
X150264617Y-130445104D01*
X150264617Y-130445104D02*
X150476284Y-130445104D01*
X150476284Y-130445104D02*
X150560950Y-130487437D01*
X150560950Y-130487437D02*
X150603284Y-130529770D01*
X150603284Y-130529770D02*
X150645617Y-130614437D01*
X150645617Y-130614437D02*
X150645617Y-130826104D01*
X150645617Y-130826104D02*
X150603284Y-130910770D01*
X150603284Y-130910770D02*
X150560950Y-130953104D01*
X150560950Y-130953104D02*
X150476284Y-130995437D01*
X150476284Y-130995437D02*
X150264617Y-130995437D01*
X150264617Y-130995437D02*
X150179950Y-130953104D01*
X150179950Y-130953104D02*
X150137617Y-130910770D01*
X151153617Y-130487437D02*
X151068951Y-130445104D01*
X151068951Y-130445104D02*
X151026617Y-130402770D01*
X151026617Y-130402770D02*
X150984284Y-130318104D01*
X150984284Y-130318104D02*
X150984284Y-130275770D01*
X150984284Y-130275770D02*
X151026617Y-130191104D01*
X151026617Y-130191104D02*
X151068951Y-130148770D01*
X151068951Y-130148770D02*
X151153617Y-130106437D01*
X151153617Y-130106437D02*
X151322951Y-130106437D01*
X151322951Y-130106437D02*
X151407617Y-130148770D01*
X151407617Y-130148770D02*
X151449951Y-130191104D01*
X151449951Y-130191104D02*
X151492284Y-130275770D01*
X151492284Y-130275770D02*
X151492284Y-130318104D01*
X151492284Y-130318104D02*
X151449951Y-130402770D01*
X151449951Y-130402770D02*
X151407617Y-130445104D01*
X151407617Y-130445104D02*
X151322951Y-130487437D01*
X151322951Y-130487437D02*
X151153617Y-130487437D01*
X151153617Y-130487437D02*
X151068951Y-130529770D01*
X151068951Y-130529770D02*
X151026617Y-130572104D01*
X151026617Y-130572104D02*
X150984284Y-130656770D01*
X150984284Y-130656770D02*
X150984284Y-130826104D01*
X150984284Y-130826104D02*
X151026617Y-130910770D01*
X151026617Y-130910770D02*
X151068951Y-130953104D01*
X151068951Y-130953104D02*
X151153617Y-130995437D01*
X151153617Y-130995437D02*
X151322951Y-130995437D01*
X151322951Y-130995437D02*
X151407617Y-130953104D01*
X151407617Y-130953104D02*
X151449951Y-130910770D01*
X151449951Y-130910770D02*
X151492284Y-130826104D01*
X151492284Y-130826104D02*
X151492284Y-130656770D01*
X151492284Y-130656770D02*
X151449951Y-130572104D01*
X151449951Y-130572104D02*
X151407617Y-130529770D01*
X151407617Y-130529770D02*
X151322951Y-130487437D01*
D12*
X156121469Y-63851972D02*
X155359469Y-63851972D01*
X156085184Y-63851972D02*
X156121469Y-63924543D01*
X156121469Y-63924543D02*
X156121469Y-64069686D01*
X156121469Y-64069686D02*
X156085184Y-64142257D01*
X156085184Y-64142257D02*
X156048898Y-64178543D01*
X156048898Y-64178543D02*
X155976326Y-64214829D01*
X155976326Y-64214829D02*
X155758612Y-64214829D01*
X155758612Y-64214829D02*
X155686041Y-64178543D01*
X155686041Y-64178543D02*
X155649755Y-64142257D01*
X155649755Y-64142257D02*
X155613469Y-64069686D01*
X155613469Y-64069686D02*
X155613469Y-63924543D01*
X155613469Y-63924543D02*
X155649755Y-63851972D01*
X156121469Y-63489114D02*
X155359469Y-63489114D01*
X155649755Y-63489114D02*
X155613469Y-63416543D01*
X155613469Y-63416543D02*
X155613469Y-63271400D01*
X155613469Y-63271400D02*
X155649755Y-63198828D01*
X155649755Y-63198828D02*
X155686041Y-63162543D01*
X155686041Y-63162543D02*
X155758612Y-63126257D01*
X155758612Y-63126257D02*
X155976326Y-63126257D01*
X155976326Y-63126257D02*
X156048898Y-63162543D01*
X156048898Y-63162543D02*
X156085184Y-63198828D01*
X156085184Y-63198828D02*
X156121469Y-63271400D01*
X156121469Y-63271400D02*
X156121469Y-63416543D01*
X156121469Y-63416543D02*
X156085184Y-63489114D01*
X155722326Y-62219114D02*
X155722326Y-61965114D01*
X156121469Y-61856257D02*
X156121469Y-62219114D01*
X156121469Y-62219114D02*
X155359469Y-62219114D01*
X155359469Y-62219114D02*
X155359469Y-61856257D01*
X156121469Y-61420828D02*
X156085184Y-61493399D01*
X156085184Y-61493399D02*
X156012612Y-61529685D01*
X156012612Y-61529685D02*
X155359469Y-61529685D01*
X156085184Y-60840256D02*
X156121469Y-60912828D01*
X156121469Y-60912828D02*
X156121469Y-61057971D01*
X156121469Y-61057971D02*
X156085184Y-61130542D01*
X156085184Y-61130542D02*
X156012612Y-61166828D01*
X156012612Y-61166828D02*
X155722326Y-61166828D01*
X155722326Y-61166828D02*
X155649755Y-61130542D01*
X155649755Y-61130542D02*
X155613469Y-61057971D01*
X155613469Y-61057971D02*
X155613469Y-60912828D01*
X155613469Y-60912828D02*
X155649755Y-60840256D01*
X155649755Y-60840256D02*
X155722326Y-60803971D01*
X155722326Y-60803971D02*
X155794898Y-60803971D01*
X155794898Y-60803971D02*
X155867469Y-61166828D01*
X156085184Y-60150828D02*
X156121469Y-60223399D01*
X156121469Y-60223399D02*
X156121469Y-60368542D01*
X156121469Y-60368542D02*
X156085184Y-60441113D01*
X156085184Y-60441113D02*
X156048898Y-60477399D01*
X156048898Y-60477399D02*
X155976326Y-60513685D01*
X155976326Y-60513685D02*
X155758612Y-60513685D01*
X155758612Y-60513685D02*
X155686041Y-60477399D01*
X155686041Y-60477399D02*
X155649755Y-60441113D01*
X155649755Y-60441113D02*
X155613469Y-60368542D01*
X155613469Y-60368542D02*
X155613469Y-60223399D01*
X155613469Y-60223399D02*
X155649755Y-60150828D01*
X155613469Y-59933113D02*
X155613469Y-59642827D01*
X155359469Y-59824256D02*
X156012612Y-59824256D01*
X156012612Y-59824256D02*
X156085184Y-59787970D01*
X156085184Y-59787970D02*
X156121469Y-59715399D01*
X156121469Y-59715399D02*
X156121469Y-59642827D01*
X156121469Y-59388827D02*
X155613469Y-59388827D01*
X155758612Y-59388827D02*
X155686041Y-59352541D01*
X155686041Y-59352541D02*
X155649755Y-59316256D01*
X155649755Y-59316256D02*
X155613469Y-59243684D01*
X155613469Y-59243684D02*
X155613469Y-59171113D01*
X156121469Y-58808256D02*
X156085184Y-58880827D01*
X156085184Y-58880827D02*
X156048898Y-58917113D01*
X156048898Y-58917113D02*
X155976326Y-58953399D01*
X155976326Y-58953399D02*
X155758612Y-58953399D01*
X155758612Y-58953399D02*
X155686041Y-58917113D01*
X155686041Y-58917113D02*
X155649755Y-58880827D01*
X155649755Y-58880827D02*
X155613469Y-58808256D01*
X155613469Y-58808256D02*
X155613469Y-58699399D01*
X155613469Y-58699399D02*
X155649755Y-58626827D01*
X155649755Y-58626827D02*
X155686041Y-58590542D01*
X155686041Y-58590542D02*
X155758612Y-58554256D01*
X155758612Y-58554256D02*
X155976326Y-58554256D01*
X155976326Y-58554256D02*
X156048898Y-58590542D01*
X156048898Y-58590542D02*
X156085184Y-58626827D01*
X156085184Y-58626827D02*
X156121469Y-58699399D01*
X156121469Y-58699399D02*
X156121469Y-58808256D01*
X155613469Y-58227684D02*
X156121469Y-58227684D01*
X155686041Y-58227684D02*
X155649755Y-58191398D01*
X155649755Y-58191398D02*
X155613469Y-58118827D01*
X155613469Y-58118827D02*
X155613469Y-58009970D01*
X155613469Y-58009970D02*
X155649755Y-57937398D01*
X155649755Y-57937398D02*
X155722326Y-57901113D01*
X155722326Y-57901113D02*
X156121469Y-57901113D01*
X156121469Y-57538255D02*
X155613469Y-57538255D01*
X155359469Y-57538255D02*
X155395755Y-57574541D01*
X155395755Y-57574541D02*
X155432041Y-57538255D01*
X155432041Y-57538255D02*
X155395755Y-57501969D01*
X155395755Y-57501969D02*
X155359469Y-57538255D01*
X155359469Y-57538255D02*
X155432041Y-57538255D01*
X156085184Y-56848827D02*
X156121469Y-56921398D01*
X156121469Y-56921398D02*
X156121469Y-57066541D01*
X156121469Y-57066541D02*
X156085184Y-57139112D01*
X156085184Y-57139112D02*
X156048898Y-57175398D01*
X156048898Y-57175398D02*
X155976326Y-57211684D01*
X155976326Y-57211684D02*
X155758612Y-57211684D01*
X155758612Y-57211684D02*
X155686041Y-57175398D01*
X155686041Y-57175398D02*
X155649755Y-57139112D01*
X155649755Y-57139112D02*
X155613469Y-57066541D01*
X155613469Y-57066541D02*
X155613469Y-56921398D01*
X155613469Y-56921398D02*
X155649755Y-56848827D01*
X156085184Y-56558541D02*
X156121469Y-56485969D01*
X156121469Y-56485969D02*
X156121469Y-56340826D01*
X156121469Y-56340826D02*
X156085184Y-56268255D01*
X156085184Y-56268255D02*
X156012612Y-56231969D01*
X156012612Y-56231969D02*
X155976326Y-56231969D01*
X155976326Y-56231969D02*
X155903755Y-56268255D01*
X155903755Y-56268255D02*
X155867469Y-56340826D01*
X155867469Y-56340826D02*
X155867469Y-56449684D01*
X155867469Y-56449684D02*
X155831184Y-56522255D01*
X155831184Y-56522255D02*
X155758612Y-56558541D01*
X155758612Y-56558541D02*
X155722326Y-56558541D01*
X155722326Y-56558541D02*
X155649755Y-56522255D01*
X155649755Y-56522255D02*
X155613469Y-56449684D01*
X155613469Y-56449684D02*
X155613469Y-56340826D01*
X155613469Y-56340826D02*
X155649755Y-56268255D01*
D10*
X134199435Y-69109166D02*
X134241769Y-69151499D01*
X134241769Y-69151499D02*
X134284102Y-69278499D01*
X134284102Y-69278499D02*
X134284102Y-69363166D01*
X134284102Y-69363166D02*
X134241769Y-69490166D01*
X134241769Y-69490166D02*
X134157102Y-69574833D01*
X134157102Y-69574833D02*
X134072435Y-69617166D01*
X134072435Y-69617166D02*
X133903102Y-69659499D01*
X133903102Y-69659499D02*
X133776102Y-69659499D01*
X133776102Y-69659499D02*
X133606769Y-69617166D01*
X133606769Y-69617166D02*
X133522102Y-69574833D01*
X133522102Y-69574833D02*
X133437435Y-69490166D01*
X133437435Y-69490166D02*
X133395102Y-69363166D01*
X133395102Y-69363166D02*
X133395102Y-69278499D01*
X133395102Y-69278499D02*
X133437435Y-69151499D01*
X133437435Y-69151499D02*
X133479769Y-69109166D01*
X133395102Y-68558833D02*
X133395102Y-68389499D01*
X133395102Y-68389499D02*
X133437435Y-68304833D01*
X133437435Y-68304833D02*
X133522102Y-68220166D01*
X133522102Y-68220166D02*
X133691435Y-68177833D01*
X133691435Y-68177833D02*
X133987769Y-68177833D01*
X133987769Y-68177833D02*
X134157102Y-68220166D01*
X134157102Y-68220166D02*
X134241769Y-68304833D01*
X134241769Y-68304833D02*
X134284102Y-68389499D01*
X134284102Y-68389499D02*
X134284102Y-68558833D01*
X134284102Y-68558833D02*
X134241769Y-68643499D01*
X134241769Y-68643499D02*
X134157102Y-68728166D01*
X134157102Y-68728166D02*
X133987769Y-68770499D01*
X133987769Y-68770499D02*
X133691435Y-68770499D01*
X133691435Y-68770499D02*
X133522102Y-68728166D01*
X133522102Y-68728166D02*
X133437435Y-68643499D01*
X133437435Y-68643499D02*
X133395102Y-68558833D01*
X134284102Y-67796833D02*
X133395102Y-67796833D01*
X133395102Y-67796833D02*
X134284102Y-67288833D01*
X134284102Y-67288833D02*
X133395102Y-67288833D01*
X134284102Y-66399833D02*
X134284102Y-66907833D01*
X134284102Y-66653833D02*
X133395102Y-66653833D01*
X133395102Y-66653833D02*
X133522102Y-66738500D01*
X133522102Y-66738500D02*
X133606769Y-66823167D01*
X133606769Y-66823167D02*
X133649102Y-66907833D01*
X133395102Y-65849500D02*
X133395102Y-65764833D01*
X133395102Y-65764833D02*
X133437435Y-65680166D01*
X133437435Y-65680166D02*
X133479769Y-65637833D01*
X133479769Y-65637833D02*
X133564435Y-65595500D01*
X133564435Y-65595500D02*
X133733769Y-65553166D01*
X133733769Y-65553166D02*
X133945435Y-65553166D01*
X133945435Y-65553166D02*
X134114769Y-65595500D01*
X134114769Y-65595500D02*
X134199435Y-65637833D01*
X134199435Y-65637833D02*
X134241769Y-65680166D01*
X134241769Y-65680166D02*
X134284102Y-65764833D01*
X134284102Y-65764833D02*
X134284102Y-65849500D01*
X134284102Y-65849500D02*
X134241769Y-65934166D01*
X134241769Y-65934166D02*
X134199435Y-65976500D01*
X134199435Y-65976500D02*
X134114769Y-66018833D01*
X134114769Y-66018833D02*
X133945435Y-66061166D01*
X133945435Y-66061166D02*
X133733769Y-66061166D01*
X133733769Y-66061166D02*
X133564435Y-66018833D01*
X133564435Y-66018833D02*
X133479769Y-65976500D01*
X133479769Y-65976500D02*
X133437435Y-65934166D01*
X133437435Y-65934166D02*
X133395102Y-65849500D01*
X134284102Y-64706499D02*
X134284102Y-65214499D01*
X134284102Y-64960499D02*
X133395102Y-64960499D01*
X133395102Y-64960499D02*
X133522102Y-65045166D01*
X133522102Y-65045166D02*
X133606769Y-65129833D01*
X133606769Y-65129833D02*
X133649102Y-65214499D01*
%TO.C,logo101*%
D13*
X155058820Y-56711312D02*
X155058740Y-56781411D01*
X155058512Y-56845735D01*
X155058156Y-56902335D01*
X155057690Y-56949263D01*
X155057132Y-56984571D01*
X155056503Y-57006309D01*
X155055908Y-57012668D01*
X155049768Y-57006309D01*
X155035498Y-56989144D01*
X155015437Y-56964037D01*
X154998914Y-56942897D01*
X154908747Y-56838353D01*
X154806264Y-56740401D01*
X154694288Y-56651063D01*
X154575641Y-56572362D01*
X154453147Y-56506323D01*
X154329628Y-56454969D01*
X154307843Y-56447552D01*
X154274952Y-56436093D01*
X154249324Y-56425933D01*
X154234618Y-56418587D01*
X154232504Y-56416413D01*
X154240784Y-56415124D01*
X154264621Y-56413920D01*
X154302354Y-56412829D01*
X154352320Y-56411875D01*
X154412857Y-56411084D01*
X154482301Y-56410484D01*
X154558991Y-56410099D01*
X154641265Y-56409956D01*
X155058820Y-56409956D01*
X155058820Y-56711312D01*
G36*
X155058820Y-56711312D02*
G01*
X155058740Y-56781411D01*
X155058512Y-56845735D01*
X155058156Y-56902335D01*
X155057690Y-56949263D01*
X155057132Y-56984571D01*
X155056503Y-57006309D01*
X155055908Y-57012668D01*
X155049768Y-57006309D01*
X155035498Y-56989144D01*
X155015437Y-56964037D01*
X154998914Y-56942897D01*
X154908747Y-56838353D01*
X154806264Y-56740401D01*
X154694288Y-56651063D01*
X154575641Y-56572362D01*
X154453147Y-56506323D01*
X154329628Y-56454969D01*
X154307843Y-56447552D01*
X154274952Y-56436093D01*
X154249324Y-56425933D01*
X154234618Y-56418587D01*
X154232504Y-56416413D01*
X154240784Y-56415124D01*
X154264621Y-56413920D01*
X154302354Y-56412829D01*
X154352320Y-56411875D01*
X154412857Y-56411084D01*
X154482301Y-56410484D01*
X154558991Y-56410099D01*
X154641265Y-56409956D01*
X155058820Y-56409956D01*
X155058820Y-56711312D01*
G37*
X152549109Y-60346495D02*
X152605844Y-60346815D01*
X152651781Y-60347336D01*
X152685179Y-60348045D01*
X152704293Y-60348928D01*
X152708244Y-60349628D01*
X152702868Y-60357816D01*
X152688449Y-60375622D01*
X152667550Y-60399943D01*
X152654931Y-60414180D01*
X152565604Y-60525184D01*
X152484701Y-60648203D01*
X152414301Y-60779347D01*
X152356485Y-60914725D01*
X152313332Y-61050449D01*
X152312045Y-61055423D01*
X152289398Y-61163433D01*
X152274068Y-61279650D01*
X152266328Y-61398821D01*
X152266447Y-61515689D01*
X152274697Y-61625001D01*
X152280501Y-61666464D01*
X152314829Y-61827170D01*
X152364230Y-61980828D01*
X152427957Y-62126618D01*
X152505267Y-62263716D01*
X152595413Y-62391301D01*
X152697650Y-62508551D01*
X152811232Y-62614644D01*
X152935415Y-62708757D01*
X153069453Y-62790070D01*
X153212600Y-62857759D01*
X153364111Y-62911003D01*
X153423796Y-62927295D01*
X153500550Y-62944986D01*
X153572119Y-62957565D01*
X153643506Y-62965518D01*
X153719711Y-62969334D01*
X153805736Y-62969502D01*
X153846863Y-62968577D01*
X153977360Y-62960878D01*
X154096669Y-62944806D01*
X154209211Y-62919259D01*
X154319409Y-62883134D01*
X154431685Y-62835329D01*
X154484200Y-62809643D01*
X154619883Y-62733025D01*
X154743070Y-62646534D01*
X154856195Y-62548176D01*
X154961692Y-62435959D01*
X155005516Y-62382697D01*
X155058820Y-62315404D01*
X155058820Y-63969684D01*
X151950509Y-63969684D01*
X151952681Y-62159396D01*
X151954854Y-60349108D01*
X152331549Y-60346865D01*
X152410219Y-60346507D01*
X152483320Y-60346388D01*
X152549109Y-60346495D01*
G36*
X152549109Y-60346495D02*
G01*
X152605844Y-60346815D01*
X152651781Y-60347336D01*
X152685179Y-60348045D01*
X152704293Y-60348928D01*
X152708244Y-60349628D01*
X152702868Y-60357816D01*
X152688449Y-60375622D01*
X152667550Y-60399943D01*
X152654931Y-60414180D01*
X152565604Y-60525184D01*
X152484701Y-60648203D01*
X152414301Y-60779347D01*
X152356485Y-60914725D01*
X152313332Y-61050449D01*
X152312045Y-61055423D01*
X152289398Y-61163433D01*
X152274068Y-61279650D01*
X152266328Y-61398821D01*
X152266447Y-61515689D01*
X152274697Y-61625001D01*
X152280501Y-61666464D01*
X152314829Y-61827170D01*
X152364230Y-61980828D01*
X152427957Y-62126618D01*
X152505267Y-62263716D01*
X152595413Y-62391301D01*
X152697650Y-62508551D01*
X152811232Y-62614644D01*
X152935415Y-62708757D01*
X153069453Y-62790070D01*
X153212600Y-62857759D01*
X153364111Y-62911003D01*
X153423796Y-62927295D01*
X153500550Y-62944986D01*
X153572119Y-62957565D01*
X153643506Y-62965518D01*
X153719711Y-62969334D01*
X153805736Y-62969502D01*
X153846863Y-62968577D01*
X153977360Y-62960878D01*
X154096669Y-62944806D01*
X154209211Y-62919259D01*
X154319409Y-62883134D01*
X154431685Y-62835329D01*
X154484200Y-62809643D01*
X154619883Y-62733025D01*
X154743070Y-62646534D01*
X154856195Y-62548176D01*
X154961692Y-62435959D01*
X155005516Y-62382697D01*
X155058820Y-62315404D01*
X155058820Y-63969684D01*
X151950509Y-63969684D01*
X151952681Y-62159396D01*
X151954854Y-60349108D01*
X152331549Y-60346865D01*
X152410219Y-60346507D01*
X152483320Y-60346388D01*
X152549109Y-60346495D01*
G37*
X152765180Y-56410010D02*
X152868677Y-56410168D01*
X152965801Y-56410421D01*
X153055280Y-56410760D01*
X153135840Y-56411179D01*
X153206209Y-56411667D01*
X153265112Y-56412218D01*
X153311279Y-56412823D01*
X153343434Y-56413473D01*
X153360306Y-56414160D01*
X153362617Y-56414531D01*
X153355916Y-56421122D01*
X153351854Y-56422890D01*
X153294436Y-56443269D01*
X153249832Y-56459607D01*
X153214506Y-56473272D01*
X153184923Y-56485633D01*
X153157549Y-56498059D01*
X153157003Y-56498316D01*
X153017641Y-56572547D01*
X152886911Y-56659474D01*
X152766913Y-56757504D01*
X152659746Y-56865041D01*
X152632500Y-56896430D01*
X152533396Y-57026370D01*
X152450138Y-57162009D01*
X152382395Y-57304159D01*
X152329835Y-57453629D01*
X152292126Y-57611229D01*
X152268935Y-57777767D01*
X152268330Y-57784338D01*
X152263635Y-57926759D01*
X152274328Y-58072733D01*
X152299720Y-58219653D01*
X152339119Y-58364910D01*
X152391835Y-58505895D01*
X152457177Y-58640000D01*
X152523851Y-58749182D01*
X152551578Y-58788568D01*
X152583380Y-58831227D01*
X152616187Y-58873265D01*
X152646926Y-58910790D01*
X152672524Y-58939908D01*
X152682289Y-58949956D01*
X152690809Y-58958129D01*
X152697112Y-58964897D01*
X152699847Y-58970393D01*
X152697664Y-58974748D01*
X152689211Y-58978094D01*
X152673137Y-58980565D01*
X152648092Y-58982292D01*
X152612726Y-58983407D01*
X152565685Y-58984043D01*
X152505621Y-58984332D01*
X152431183Y-58984405D01*
X152341018Y-58984397D01*
X152330451Y-58984396D01*
X151950549Y-58984396D01*
X151950549Y-56409956D01*
X152656583Y-56409956D01*
X152765180Y-56410010D01*
G36*
X152765180Y-56410010D02*
G01*
X152868677Y-56410168D01*
X152965801Y-56410421D01*
X153055280Y-56410760D01*
X153135840Y-56411179D01*
X153206209Y-56411667D01*
X153265112Y-56412218D01*
X153311279Y-56412823D01*
X153343434Y-56413473D01*
X153360306Y-56414160D01*
X153362617Y-56414531D01*
X153355916Y-56421122D01*
X153351854Y-56422890D01*
X153294436Y-56443269D01*
X153249832Y-56459607D01*
X153214506Y-56473272D01*
X153184923Y-56485633D01*
X153157549Y-56498059D01*
X153157003Y-56498316D01*
X153017641Y-56572547D01*
X152886911Y-56659474D01*
X152766913Y-56757504D01*
X152659746Y-56865041D01*
X152632500Y-56896430D01*
X152533396Y-57026370D01*
X152450138Y-57162009D01*
X152382395Y-57304159D01*
X152329835Y-57453629D01*
X152292126Y-57611229D01*
X152268935Y-57777767D01*
X152268330Y-57784338D01*
X152263635Y-57926759D01*
X152274328Y-58072733D01*
X152299720Y-58219653D01*
X152339119Y-58364910D01*
X152391835Y-58505895D01*
X152457177Y-58640000D01*
X152523851Y-58749182D01*
X152551578Y-58788568D01*
X152583380Y-58831227D01*
X152616187Y-58873265D01*
X152646926Y-58910790D01*
X152672524Y-58939908D01*
X152682289Y-58949956D01*
X152690809Y-58958129D01*
X152697112Y-58964897D01*
X152699847Y-58970393D01*
X152697664Y-58974748D01*
X152689211Y-58978094D01*
X152673137Y-58980565D01*
X152648092Y-58982292D01*
X152612726Y-58983407D01*
X152565685Y-58984043D01*
X152505621Y-58984332D01*
X152431183Y-58984405D01*
X152341018Y-58984397D01*
X152330451Y-58984396D01*
X151950549Y-58984396D01*
X151950549Y-56409956D01*
X152656583Y-56409956D01*
X152765180Y-56410010D01*
G37*
X153835943Y-60350257D02*
X153900780Y-60353039D01*
X153958763Y-60357909D01*
X154005108Y-60364814D01*
X154008380Y-60365498D01*
X154144260Y-60403377D01*
X154273875Y-60456947D01*
X154395637Y-60525535D01*
X154413057Y-60537030D01*
X154459887Y-60572261D01*
X154512264Y-60617764D01*
X154566209Y-60669547D01*
X154617739Y-60723617D01*
X154662874Y-60775983D01*
X154697108Y-60821866D01*
X154765512Y-60939111D01*
X154819084Y-61063054D01*
X154857405Y-61191836D01*
X154880055Y-61323599D01*
X154886616Y-61456486D01*
X154876667Y-61588638D01*
X154874057Y-61606193D01*
X154855317Y-61700442D01*
X154828964Y-61788807D01*
X154792720Y-61878411D01*
X154774961Y-61916159D01*
X154708709Y-62033662D01*
X154630795Y-62139544D01*
X154542501Y-62233480D01*
X154445110Y-62315146D01*
X154339907Y-62384215D01*
X154228174Y-62440363D01*
X154111194Y-62483265D01*
X153990252Y-62512595D01*
X153866630Y-62528029D01*
X153741611Y-62529242D01*
X153616479Y-62515907D01*
X153492518Y-62487702D01*
X153371010Y-62444299D01*
X153253238Y-62385374D01*
X153160278Y-62325190D01*
X153061551Y-62244126D01*
X152971957Y-62150571D01*
X152893162Y-62046947D01*
X152826831Y-61935675D01*
X152774630Y-61819175D01*
X152742778Y-61718489D01*
X152716775Y-61583928D01*
X152707298Y-61450733D01*
X152713656Y-61319995D01*
X152735157Y-61192805D01*
X152771108Y-61070254D01*
X152820818Y-60953432D01*
X152883595Y-60843431D01*
X152958748Y-60741340D01*
X153045584Y-60648252D01*
X153143411Y-60565256D01*
X153251538Y-60493445D01*
X153369273Y-60433908D01*
X153495924Y-60387736D01*
X153603702Y-60361055D01*
X153648130Y-60354962D01*
X153704835Y-60351166D01*
X153769034Y-60349615D01*
X153835943Y-60350257D01*
G36*
X153835943Y-60350257D02*
G01*
X153900780Y-60353039D01*
X153958763Y-60357909D01*
X154005108Y-60364814D01*
X154008380Y-60365498D01*
X154144260Y-60403377D01*
X154273875Y-60456947D01*
X154395637Y-60525535D01*
X154413057Y-60537030D01*
X154459887Y-60572261D01*
X154512264Y-60617764D01*
X154566209Y-60669547D01*
X154617739Y-60723617D01*
X154662874Y-60775983D01*
X154697108Y-60821866D01*
X154765512Y-60939111D01*
X154819084Y-61063054D01*
X154857405Y-61191836D01*
X154880055Y-61323599D01*
X154886616Y-61456486D01*
X154876667Y-61588638D01*
X154874057Y-61606193D01*
X154855317Y-61700442D01*
X154828964Y-61788807D01*
X154792720Y-61878411D01*
X154774961Y-61916159D01*
X154708709Y-62033662D01*
X154630795Y-62139544D01*
X154542501Y-62233480D01*
X154445110Y-62315146D01*
X154339907Y-62384215D01*
X154228174Y-62440363D01*
X154111194Y-62483265D01*
X153990252Y-62512595D01*
X153866630Y-62528029D01*
X153741611Y-62529242D01*
X153616479Y-62515907D01*
X153492518Y-62487702D01*
X153371010Y-62444299D01*
X153253238Y-62385374D01*
X153160278Y-62325190D01*
X153061551Y-62244126D01*
X152971957Y-62150571D01*
X152893162Y-62046947D01*
X152826831Y-61935675D01*
X152774630Y-61819175D01*
X152742778Y-61718489D01*
X152716775Y-61583928D01*
X152707298Y-61450733D01*
X152713656Y-61319995D01*
X152735157Y-61192805D01*
X152771108Y-61070254D01*
X152820818Y-60953432D01*
X152883595Y-60843431D01*
X152958748Y-60741340D01*
X153045584Y-60648252D01*
X153143411Y-60565256D01*
X153251538Y-60493445D01*
X153369273Y-60433908D01*
X153495924Y-60387736D01*
X153603702Y-60361055D01*
X153648130Y-60354962D01*
X153704835Y-60351166D01*
X153769034Y-60349615D01*
X153835943Y-60350257D01*
G37*
X153971769Y-56817584D02*
X154101026Y-56846598D01*
X154225020Y-56890755D01*
X154342439Y-56949428D01*
X154451968Y-57021986D01*
X154552296Y-57107802D01*
X154642108Y-57206247D01*
X154699578Y-57284675D01*
X154764209Y-57392694D01*
X154814200Y-57501802D01*
X154851680Y-57617006D01*
X154865790Y-57675651D01*
X154870662Y-57706093D01*
X154875098Y-57748209D01*
X154878900Y-57797833D01*
X154881871Y-57850804D01*
X154883812Y-57902958D01*
X154884527Y-57950131D01*
X154883817Y-57988161D01*
X154881743Y-58011447D01*
X154878550Y-58030823D01*
X154873722Y-58060636D01*
X154868494Y-58093244D01*
X154843386Y-58202434D01*
X154803479Y-58312992D01*
X154750523Y-58421532D01*
X154686269Y-58524666D01*
X154612470Y-58619008D01*
X154576651Y-58657652D01*
X154475271Y-58749476D01*
X154365284Y-58826606D01*
X154246126Y-58889359D01*
X154117236Y-58938051D01*
X154042820Y-58958750D01*
X153988639Y-58969000D01*
X153922812Y-58976690D01*
X153850760Y-58981583D01*
X153777901Y-58983436D01*
X153709653Y-58982012D01*
X153651436Y-58977069D01*
X153646032Y-58976323D01*
X153510305Y-58948390D01*
X153381891Y-58904991D01*
X153261283Y-58846368D01*
X153148970Y-58772760D01*
X153045442Y-58684406D01*
X153041949Y-58681015D01*
X152951103Y-58582542D01*
X152875402Y-58478385D01*
X152813623Y-58366417D01*
X152764542Y-58244514D01*
X152736833Y-58151163D01*
X152728329Y-58117060D01*
X152722122Y-58087771D01*
X152717857Y-58059484D01*
X152715184Y-58028389D01*
X152713750Y-57990674D01*
X152713202Y-57942528D01*
X152713164Y-57895210D01*
X152713501Y-57834290D01*
X152714543Y-57786821D01*
X152716601Y-57749036D01*
X152719989Y-57717172D01*
X152725018Y-57687461D01*
X152732003Y-57656139D01*
X152733546Y-57649820D01*
X152756558Y-57566481D01*
X152782987Y-57492172D01*
X152815927Y-57418704D01*
X152835058Y-57381145D01*
X152904757Y-57266730D01*
X152987394Y-57162841D01*
X153081645Y-57070353D01*
X153186183Y-56990142D01*
X153299684Y-56923084D01*
X153420823Y-56870055D01*
X153548275Y-56831932D01*
X153680715Y-56809589D01*
X153702718Y-56807501D01*
X153838562Y-56804342D01*
X153971769Y-56817584D01*
G36*
X153971769Y-56817584D02*
G01*
X154101026Y-56846598D01*
X154225020Y-56890755D01*
X154342439Y-56949428D01*
X154451968Y-57021986D01*
X154552296Y-57107802D01*
X154642108Y-57206247D01*
X154699578Y-57284675D01*
X154764209Y-57392694D01*
X154814200Y-57501802D01*
X154851680Y-57617006D01*
X154865790Y-57675651D01*
X154870662Y-57706093D01*
X154875098Y-57748209D01*
X154878900Y-57797833D01*
X154881871Y-57850804D01*
X154883812Y-57902958D01*
X154884527Y-57950131D01*
X154883817Y-57988161D01*
X154881743Y-58011447D01*
X154878550Y-58030823D01*
X154873722Y-58060636D01*
X154868494Y-58093244D01*
X154843386Y-58202434D01*
X154803479Y-58312992D01*
X154750523Y-58421532D01*
X154686269Y-58524666D01*
X154612470Y-58619008D01*
X154576651Y-58657652D01*
X154475271Y-58749476D01*
X154365284Y-58826606D01*
X154246126Y-58889359D01*
X154117236Y-58938051D01*
X154042820Y-58958750D01*
X153988639Y-58969000D01*
X153922812Y-58976690D01*
X153850760Y-58981583D01*
X153777901Y-58983436D01*
X153709653Y-58982012D01*
X153651436Y-58977069D01*
X153646032Y-58976323D01*
X153510305Y-58948390D01*
X153381891Y-58904991D01*
X153261283Y-58846368D01*
X153148970Y-58772760D01*
X153045442Y-58684406D01*
X153041949Y-58681015D01*
X152951103Y-58582542D01*
X152875402Y-58478385D01*
X152813623Y-58366417D01*
X152764542Y-58244514D01*
X152736833Y-58151163D01*
X152728329Y-58117060D01*
X152722122Y-58087771D01*
X152717857Y-58059484D01*
X152715184Y-58028389D01*
X152713750Y-57990674D01*
X152713202Y-57942528D01*
X152713164Y-57895210D01*
X152713501Y-57834290D01*
X152714543Y-57786821D01*
X152716601Y-57749036D01*
X152719989Y-57717172D01*
X152725018Y-57687461D01*
X152732003Y-57656139D01*
X152733546Y-57649820D01*
X152756558Y-57566481D01*
X152782987Y-57492172D01*
X152815927Y-57418704D01*
X152835058Y-57381145D01*
X152904757Y-57266730D01*
X152987394Y-57162841D01*
X153081645Y-57070353D01*
X153186183Y-56990142D01*
X153299684Y-56923084D01*
X153420823Y-56870055D01*
X153548275Y-56831932D01*
X153680715Y-56809589D01*
X153702718Y-56807501D01*
X153838562Y-56804342D01*
X153971769Y-56817584D01*
G37*
X155049390Y-58787049D02*
X155051037Y-58793142D01*
X155052490Y-58805817D01*
X155053760Y-58825943D01*
X155054857Y-58854386D01*
X155055793Y-58892016D01*
X155056580Y-58939699D01*
X155057227Y-58998304D01*
X155057747Y-59068698D01*
X155058150Y-59151749D01*
X155058447Y-59248325D01*
X155058651Y-59359294D01*
X155058770Y-59485524D01*
X155058818Y-59627882D01*
X155058820Y-59667348D01*
X155058820Y-60560634D01*
X154989907Y-60474960D01*
X154882754Y-60355355D01*
X154763842Y-60247864D01*
X154634430Y-60153332D01*
X154495782Y-60072605D01*
X154349158Y-60006527D01*
X154229818Y-59965627D01*
X154203163Y-59957622D01*
X154179245Y-59950442D01*
X154157033Y-59944037D01*
X154135500Y-59938360D01*
X154113616Y-59933361D01*
X154090353Y-59928992D01*
X154064681Y-59925203D01*
X154035572Y-59921945D01*
X154001996Y-59919170D01*
X153962926Y-59916828D01*
X153917331Y-59914872D01*
X153864184Y-59913251D01*
X153802454Y-59911918D01*
X153731114Y-59910823D01*
X153649135Y-59909917D01*
X153555487Y-59909151D01*
X153449142Y-59908477D01*
X153329070Y-59907846D01*
X153194244Y-59907208D01*
X153043633Y-59906516D01*
X152979464Y-59906216D01*
X151954854Y-59901379D01*
X151950272Y-59432125D01*
X152900922Y-59432125D01*
X153057735Y-59432100D01*
X153198392Y-59432003D01*
X153323961Y-59431803D01*
X153435506Y-59431469D01*
X153534093Y-59430970D01*
X153620787Y-59430274D01*
X153696654Y-59429350D01*
X153762759Y-59428166D01*
X153820169Y-59426691D01*
X153869948Y-59424895D01*
X153913162Y-59422745D01*
X153950877Y-59420210D01*
X153984158Y-59417260D01*
X154014071Y-59413862D01*
X154041681Y-59409985D01*
X154068054Y-59405599D01*
X154094255Y-59400671D01*
X154115226Y-59396438D01*
X154238323Y-59364529D01*
X154363631Y-59319828D01*
X154486921Y-59264338D01*
X154603963Y-59200063D01*
X154710526Y-59129006D01*
X154758042Y-59091984D01*
X154798647Y-59056441D01*
X154845228Y-59012341D01*
X154893371Y-58964145D01*
X154938663Y-58916315D01*
X154976691Y-58873310D01*
X154988010Y-58859549D01*
X155011000Y-58830989D01*
X155030923Y-58806529D01*
X155044580Y-58790086D01*
X155047537Y-58786670D01*
X155049390Y-58787049D01*
G36*
X155049390Y-58787049D02*
G01*
X155051037Y-58793142D01*
X155052490Y-58805817D01*
X155053760Y-58825943D01*
X155054857Y-58854386D01*
X155055793Y-58892016D01*
X155056580Y-58939699D01*
X155057227Y-58998304D01*
X155057747Y-59068698D01*
X155058150Y-59151749D01*
X155058447Y-59248325D01*
X155058651Y-59359294D01*
X155058770Y-59485524D01*
X155058818Y-59627882D01*
X155058820Y-59667348D01*
X155058820Y-60560634D01*
X154989907Y-60474960D01*
X154882754Y-60355355D01*
X154763842Y-60247864D01*
X154634430Y-60153332D01*
X154495782Y-60072605D01*
X154349158Y-60006527D01*
X154229818Y-59965627D01*
X154203163Y-59957622D01*
X154179245Y-59950442D01*
X154157033Y-59944037D01*
X154135500Y-59938360D01*
X154113616Y-59933361D01*
X154090353Y-59928992D01*
X154064681Y-59925203D01*
X154035572Y-59921945D01*
X154001996Y-59919170D01*
X153962926Y-59916828D01*
X153917331Y-59914872D01*
X153864184Y-59913251D01*
X153802454Y-59911918D01*
X153731114Y-59910823D01*
X153649135Y-59909917D01*
X153555487Y-59909151D01*
X153449142Y-59908477D01*
X153329070Y-59907846D01*
X153194244Y-59907208D01*
X153043633Y-59906516D01*
X152979464Y-59906216D01*
X151954854Y-59901379D01*
X151950272Y-59432125D01*
X152900922Y-59432125D01*
X153057735Y-59432100D01*
X153198392Y-59432003D01*
X153323961Y-59431803D01*
X153435506Y-59431469D01*
X153534093Y-59430970D01*
X153620787Y-59430274D01*
X153696654Y-59429350D01*
X153762759Y-59428166D01*
X153820169Y-59426691D01*
X153869948Y-59424895D01*
X153913162Y-59422745D01*
X153950877Y-59420210D01*
X153984158Y-59417260D01*
X154014071Y-59413862D01*
X154041681Y-59409985D01*
X154068054Y-59405599D01*
X154094255Y-59400671D01*
X154115226Y-59396438D01*
X154238323Y-59364529D01*
X154363631Y-59319828D01*
X154486921Y-59264338D01*
X154603963Y-59200063D01*
X154710526Y-59129006D01*
X154758042Y-59091984D01*
X154798647Y-59056441D01*
X154845228Y-59012341D01*
X154893371Y-58964145D01*
X154938663Y-58916315D01*
X154976691Y-58873310D01*
X154988010Y-58859549D01*
X155011000Y-58830989D01*
X155030923Y-58806529D01*
X155044580Y-58790086D01*
X155047537Y-58786670D01*
X155049390Y-58787049D01*
G37*
D12*
%TO.C,CON102*%
X140240000Y-55202000D02*
X140240000Y-61202000D01*
X140240000Y-55202000D02*
X147240000Y-55202000D01*
X140240000Y-61202000D02*
X140240000Y-151102000D01*
X140240000Y-151102000D02*
X149240000Y-151102000D01*
X147240000Y-55202000D02*
X149240000Y-55202000D01*
X149240000Y-55202000D02*
X149240000Y-70952000D01*
X149240000Y-70952000D02*
X149240000Y-151102000D01*
D14*
%TO.C,CON101*%
X134620000Y-64770000D02*
X134620000Y-146050000D01*
X134620000Y-67310000D02*
X137160000Y-67310000D01*
X134620000Y-146050000D02*
X137160000Y-146050000D01*
X137160000Y-64770000D02*
X134620000Y-64770000D01*
X137160000Y-146050000D02*
X137160000Y-64770000D01*
X152400000Y-64770000D02*
X152400000Y-146050000D01*
X152400000Y-67310000D02*
X154940000Y-67310000D01*
X152400000Y-146050000D02*
X154940000Y-146050000D01*
X154940000Y-64770000D02*
X152400000Y-64770000D01*
X154940000Y-146050000D02*
X154940000Y-64770000D01*
%TD*%
M02*
