%TF.GenerationSoftware,KiCad,Pcbnew,7.0.8*%
%TF.CreationDate,2024-03-17T19:54:23-04:00*%
%TF.ProjectId,snes-umd,736e6573-2d75-46d6-942e-6b696361645f,0.1*%
%TF.SameCoordinates,Original*%
%TF.FileFunction,Copper,L2,Bot*%
%TF.FilePolarity,Positive*%
%FSLAX46Y46*%
G04 Gerber Fmt 4.6, Leading zero omitted, Abs format (unit mm)*
G04 Created by KiCad (PCBNEW 7.0.8) date 2024-03-17 19:54:23*
%MOMM*%
%LPD*%
G01*
G04 APERTURE LIST*
%TA.AperFunction,ComponentPad*%
%ADD10C,1.524000*%
%TD*%
%TA.AperFunction,SMDPad,CuDef*%
%ADD11R,0.800000X1.000000*%
%TD*%
%TA.AperFunction,SMDPad,CuDef*%
%ADD12R,2.000000X0.300000*%
%TD*%
%TA.AperFunction,ViaPad*%
%ADD13C,0.609600*%
%TD*%
%TA.AperFunction,Conductor*%
%ADD14C,0.177800*%
%TD*%
%TA.AperFunction,Conductor*%
%ADD15C,0.304800*%
%TD*%
G04 APERTURE END LIST*
D10*
%TO.P,CON102,1,CLK_21.477MHz*%
%TO.N,/CLK*%
X142240000Y-60452000D03*
%TO.P,CON102,2,EXPAND*%
%TO.N,/EXPAND*%
X142240000Y-62952000D03*
%TO.P,CON102,3,PA6*%
%TO.N,/D14*%
X142240000Y-65452000D03*
%TO.P,CON102,4,~{PARD}*%
%TO.N,/~{PARD}*%
X142240000Y-67952000D03*
%TO.P,CON102,5,GND*%
%TO.N,GND*%
X142240000Y-75652000D03*
%TO.P,CON102,6,A11*%
%TO.N,/A11*%
X142240000Y-78152000D03*
%TO.P,CON102,7,A10*%
%TO.N,/A10*%
X142240000Y-80652000D03*
%TO.P,CON102,8,A9*%
%TO.N,/A9*%
X142240000Y-83152000D03*
%TO.P,CON102,9,A8*%
%TO.N,/A8*%
X142240000Y-85652000D03*
%TO.P,CON102,10,A7*%
%TO.N,/A7*%
X142240000Y-88152000D03*
%TO.P,CON102,11,A6*%
%TO.N,/A6*%
X142240000Y-90652000D03*
%TO.P,CON102,12,A5*%
%TO.N,/A5*%
X142240000Y-93152000D03*
%TO.P,CON102,13,A4*%
%TO.N,/A4*%
X142240000Y-95652000D03*
%TO.P,CON102,14,A3*%
%TO.N,/A3*%
X142240000Y-98152000D03*
%TO.P,CON102,15,A2*%
%TO.N,/A2*%
X142240000Y-100652000D03*
%TO.P,CON102,16,A1*%
%TO.N,/A1*%
X142240000Y-103152000D03*
%TO.P,CON102,17,A0*%
%TO.N,/A0*%
X142240000Y-105652000D03*
%TO.P,CON102,18,~{IRQ}*%
%TO.N,/~{IRQ}*%
X142240000Y-108152000D03*
%TO.P,CON102,19,D0*%
%TO.N,/D0*%
X142240000Y-110652000D03*
%TO.P,CON102,20,D1*%
%TO.N,/D1*%
X142240000Y-113152000D03*
%TO.P,CON102,21,D2*%
%TO.N,/D2*%
X142240000Y-115652000D03*
%TO.P,CON102,22,D3*%
%TO.N,/D3*%
X142240000Y-118152000D03*
%TO.P,CON102,23,~{RD}*%
%TO.N,/~{RD}*%
X142240000Y-120652000D03*
%TO.P,CON102,24,CIC_OUT*%
%TO.N,unconnected-(CON102-CIC_OUT-Pad24)*%
X142240000Y-123152000D03*
%TO.P,CON102,25,CIC_RST*%
%TO.N,unconnected-(CON102-CIC_RST-Pad25)*%
X142240000Y-125652000D03*
%TO.P,CON102,26,~{RESET}*%
%TO.N,/~{RESET}*%
X142240000Y-128152000D03*
%TO.P,CON102,27,Vcc*%
%TO.N,/5V_1*%
X142240000Y-130652000D03*
%TO.P,CON102,28,PA0*%
%TO.N,/D8*%
X142240000Y-138352000D03*
%TO.P,CON102,29,PA2*%
%TO.N,/D10*%
X142240000Y-140852000D03*
%TO.P,CON102,30,PA4*%
%TO.N,/D12*%
X142240000Y-143352000D03*
%TO.P,CON102,31,AUDIO_L*%
%TO.N,unconnected-(CON102-AUDIO_L-Pad31)*%
X142240000Y-145852000D03*
%TO.P,CON102,32,~{WRAM}*%
%TO.N,/~{WRAM}*%
X147240000Y-60452000D03*
%TO.P,CON102,33,REFRESH*%
%TO.N,/REFRESH*%
X147240000Y-62952000D03*
%TO.P,CON102,34,PA7*%
%TO.N,/D15*%
X147240000Y-65452000D03*
%TO.P,CON102,35,~{PAWR}*%
%TO.N,/~{PAWR}*%
X147240000Y-67952000D03*
%TO.P,CON102,36,GND*%
%TO.N,GND*%
X147240000Y-75652000D03*
%TO.P,CON102,37,A12*%
%TO.N,/A12*%
X147240000Y-78152000D03*
%TO.P,CON102,38,A13*%
%TO.N,/A13*%
X147240000Y-80652000D03*
%TO.P,CON102,39,A14*%
%TO.N,/A14*%
X147240000Y-83152000D03*
%TO.P,CON102,40,A15*%
%TO.N,/A15*%
X147240000Y-85652000D03*
%TO.P,CON102,41,BA0*%
%TO.N,/A16*%
X147240000Y-88152000D03*
%TO.P,CON102,42,BA1*%
%TO.N,/A17*%
X147240000Y-90652000D03*
%TO.P,CON102,43,BA2*%
%TO.N,/A18*%
X147240000Y-93152000D03*
%TO.P,CON102,44,BA3*%
%TO.N,/A19*%
X147240000Y-95652000D03*
%TO.P,CON102,45,BA4*%
%TO.N,/A20*%
X147240000Y-98152000D03*
%TO.P,CON102,46,BA5*%
%TO.N,/A21*%
X147240000Y-100652000D03*
%TO.P,CON102,47,BA6*%
%TO.N,/A22*%
X147240000Y-103152000D03*
%TO.P,CON102,48,BA7*%
%TO.N,/A23*%
X147240000Y-105652000D03*
%TO.P,CON102,49,~{CE}*%
%TO.N,/~{CE}*%
X147240000Y-108152000D03*
%TO.P,CON102,50,D4*%
%TO.N,/D4*%
X147240000Y-110652000D03*
%TO.P,CON102,51,D5*%
%TO.N,/D5*%
X147240000Y-113152000D03*
%TO.P,CON102,52,D6*%
%TO.N,/D6*%
X147240000Y-115652000D03*
%TO.P,CON102,53,D7*%
%TO.N,/D7*%
X147240000Y-118152000D03*
%TO.P,CON102,54,~{WR}*%
%TO.N,/~{WR}*%
X147240000Y-120652000D03*
%TO.P,CON102,55,CIC_IN*%
%TO.N,unconnected-(CON102-CIC_IN-Pad55)*%
X147240000Y-123152000D03*
%TO.P,CON102,56,CIC_CLK*%
%TO.N,unconnected-(CON102-CIC_CLK-Pad56)*%
X147240000Y-125652000D03*
%TO.P,CON102,57,CPU_CLK*%
%TO.N,unconnected-(CON102-CPU_CLK-Pad57)*%
X147240000Y-128152000D03*
%TO.P,CON102,58,Vcc*%
%TO.N,/5V_1*%
X147240000Y-130652000D03*
%TO.P,CON102,59,PA1*%
%TO.N,/D9*%
X147240000Y-138352000D03*
%TO.P,CON102,60,PA3*%
%TO.N,/D11*%
X147240000Y-140852000D03*
%TO.P,CON102,61,PA5*%
%TO.N,/D13*%
X147240000Y-143352000D03*
%TO.P,CON102,62,AUDIO_R*%
%TO.N,unconnected-(CON102-AUDIO_R-Pad62)*%
X147240000Y-145852000D03*
%TD*%
%TO.P,CON101,1,+3.3V*%
%TO.N,+3V3*%
X135890000Y-66040000D03*
%TO.P,CON101,2,SCL*%
%TO.N,/SCL*%
X135890000Y-68580000D03*
%TO.P,CON101,3,SDA*%
%TO.N,/SDA*%
X135890000Y-71120000D03*
%TO.P,CON101,4,MOSI/IO6*%
%TO.N,/EXPAND*%
X135890000Y-73660000D03*
%TO.P,CON101,5,SCK/IO4*%
%TO.N,/~{PARD}*%
X135890000Y-76200000D03*
%TO.P,CON101,6,TIMER*%
%TO.N,unconnected-(CON101A-TIMER-Pad6)*%
X135890000Y-78740000D03*
%TO.P,CON101,7,A15*%
%TO.N,/A15*%
X135890000Y-81280000D03*
%TO.P,CON101,8,A13*%
%TO.N,/A13*%
X135890000Y-83820000D03*
%TO.P,CON101,9,A18*%
%TO.N,/A18*%
X135890000Y-86360000D03*
%TO.P,CON101,10,A16*%
%TO.N,/A16*%
X135890000Y-88900000D03*
%TO.P,CON101,11,~{WR}*%
%TO.N,/~{WR}*%
X135890000Y-91440000D03*
%TO.P,CON101,12,A10*%
%TO.N,/A10*%
X135890000Y-93980000D03*
%TO.P,CON101,13,A8*%
%TO.N,/A8*%
X135890000Y-96520000D03*
%TO.P,CON101,14,D0*%
%TO.N,/D0*%
X135890000Y-99060000D03*
%TO.P,CON101,15,D14*%
%TO.N,/D14*%
X135890000Y-101600000D03*
%TO.P,CON101,16,D2*%
%TO.N,/D2*%
X135890000Y-104140000D03*
%TO.P,CON101,17,D12*%
%TO.N,/D12*%
X135890000Y-106680000D03*
%TO.P,CON101,18,D10*%
%TO.N,/D10*%
X135890000Y-109220000D03*
%TO.P,CON101,19,D8*%
%TO.N,/D8*%
X135890000Y-111760000D03*
%TO.P,CON101,20,D6*%
%TO.N,/D6*%
X135890000Y-114300000D03*
%TO.P,CON101,21,D4*%
%TO.N,/D4*%
X135890000Y-116840000D03*
%TO.P,CON101,22,IO0*%
%TO.N,unconnected-(CON101A-IO0-Pad22)*%
X135890000Y-119380000D03*
%TO.P,CON101,23,IO2*%
%TO.N,unconnected-(CON101A-IO2-Pad23)*%
X135890000Y-121920000D03*
%TO.P,CON101,24,~{CE0}*%
%TO.N,/~{CE}*%
X135890000Y-124460000D03*
%TO.P,CON101,25,~{CE2}*%
%TO.N,unconnected-(CON101A-~{CE2}-Pad25)*%
X135890000Y-127000000D03*
%TO.P,CON101,26,A5*%
%TO.N,/A5*%
X135890000Y-129540000D03*
%TO.P,CON101,27,A3*%
%TO.N,/A3*%
X135890000Y-132080000D03*
%TO.P,CON101,28,A1*%
%TO.N,/A1*%
X135890000Y-134620000D03*
%TO.P,CON101,29,A22*%
%TO.N,/A22*%
X135890000Y-137160000D03*
%TO.P,CON101,30,A20*%
%TO.N,/A20*%
X135890000Y-139700000D03*
%TO.P,CON101,31,A19*%
%TO.N,/A19*%
X135890000Y-142240000D03*
%TO.P,CON101,32,A23*%
%TO.N,/A23*%
X135890000Y-144780000D03*
%TO.P,CON101,33,GND*%
%TO.N,GND*%
X153670000Y-144780000D03*
%TO.P,CON101,34,+5V*%
%TO.N,/5V_1*%
X153670000Y-142240000D03*
%TO.P,CON101,35,A21*%
%TO.N,/A21*%
X153670000Y-139700000D03*
%TO.P,CON101,36,A0*%
%TO.N,/A0*%
X153670000Y-137160000D03*
%TO.P,CON101,37,A2*%
%TO.N,/A2*%
X153670000Y-134620000D03*
%TO.P,CON101,38,A4*%
%TO.N,/A4*%
X153670000Y-132080000D03*
%TO.P,CON101,39,~{CE3}*%
%TO.N,unconnected-(CON101B-~{CE3}-Pad39)*%
X153670000Y-129540000D03*
%TO.P,CON101,40,~{CE1}*%
%TO.N,unconnected-(CON101B-~{CE1}-Pad40)*%
X153670000Y-127000000D03*
%TO.P,CON101,41,A6*%
%TO.N,/A6*%
X153670000Y-124460000D03*
%TO.P,CON101,42,IO3*%
%TO.N,unconnected-(CON101B-IO3-Pad42)*%
X153670000Y-121920000D03*
%TO.P,CON101,43,IO1*%
%TO.N,unconnected-(CON101B-IO1-Pad43)*%
X153670000Y-119380000D03*
%TO.P,CON101,44,D5*%
%TO.N,/D5*%
X153670000Y-116840000D03*
%TO.P,CON101,45,D7*%
%TO.N,/D7*%
X153670000Y-114300000D03*
%TO.P,CON101,46,D9*%
%TO.N,/D9*%
X153670000Y-111760000D03*
%TO.P,CON101,47,D11*%
%TO.N,/D11*%
X153670000Y-109220000D03*
%TO.P,CON101,48,D3*%
%TO.N,/D3*%
X153670000Y-106680000D03*
%TO.P,CON101,49,D13*%
%TO.N,/D13*%
X153670000Y-104140000D03*
%TO.P,CON101,50,D15*%
%TO.N,/D15*%
X153670000Y-101600000D03*
%TO.P,CON101,51,D1*%
%TO.N,/D1*%
X153670000Y-99060000D03*
%TO.P,CON101,52,A7*%
%TO.N,/A7*%
X153670000Y-96520000D03*
%TO.P,CON101,53,A9*%
%TO.N,/A9*%
X153670000Y-93980000D03*
%TO.P,CON101,54,A11*%
%TO.N,/A11*%
X153670000Y-91440000D03*
%TO.P,CON101,55,~{RD}*%
%TO.N,/~{RD}*%
X153670000Y-88900000D03*
%TO.P,CON101,56,A17*%
%TO.N,/A17*%
X153670000Y-86360000D03*
%TO.P,CON101,57,A12*%
%TO.N,/A12*%
X153670000Y-83820000D03*
%TO.P,CON101,58,A14*%
%TO.N,/A14*%
X153670000Y-81280000D03*
%TO.P,CON101,59,CLK*%
%TO.N,/CLK*%
X153670000Y-78740000D03*
%TO.P,CON101,60,NSS/IO5*%
%TO.N,/~{PAWR}*%
X153670000Y-76200000D03*
%TO.P,CON101,61,MISO/IO7*%
%TO.N,/REFRESH*%
X153670000Y-73660000D03*
%TO.P,CON101,62,IO8*%
%TO.N,/~{WRAM}*%
X153670000Y-71120000D03*
%TO.P,CON101,63,+5V*%
%TO.N,/5V_0*%
X153670000Y-68580000D03*
%TO.P,CON101,64,GND*%
%TO.N,GND*%
X153670000Y-66040000D03*
%TD*%
D11*
%TO.P,C101,1*%
%TO.N,+3V3*%
X137988000Y-64389000D03*
%TO.P,C101,2*%
%TO.N,GND*%
X139888000Y-64389000D03*
%TD*%
D12*
%TO.P,U101,1,SCL*%
%TO.N,/SCL*%
X132117000Y-62894400D03*
%TO.P,U101,2,SDA*%
%TO.N,/SDA*%
X132117000Y-62244400D03*
%TO.P,U101,3,A2*%
%TO.N,GND*%
X132117000Y-61594400D03*
%TO.P,U101,4,A1*%
X132117000Y-60944400D03*
%TO.P,U101,5,A0*%
X132117000Y-60294400D03*
%TO.P,U101,6,~{RESET}*%
%TO.N,+3V3*%
X132117000Y-59644400D03*
%TO.P,U101,7,NC*%
%TO.N,unconnected-(U101A-NC-Pad7)*%
X132117000Y-58994400D03*
%TO.P,U101,8,INT*%
%TO.N,GND*%
X132117000Y-58344400D03*
%TO.P,U101,9,Vss*%
X132117000Y-57694400D03*
%TO.P,U101,10,NC*%
%TO.N,unconnected-(U101A-NC-Pad10)*%
X132117000Y-57044400D03*
%TO.P,U101,11,NC*%
%TO.N,unconnected-(U101A-NC-Pad11)*%
X139917000Y-57044400D03*
%TO.P,U101,12,GP0*%
%TO.N,+3V3*%
X139917000Y-57694400D03*
%TO.P,U101,13,GP1*%
X139917000Y-58344400D03*
%TO.P,U101,14,GP2*%
%TO.N,GND*%
X139917000Y-58994400D03*
%TO.P,U101,15,GP3*%
X139917000Y-59644400D03*
%TO.P,U101,16,GP4*%
X139917000Y-60294400D03*
%TO.P,U101,17,GP5*%
X139917000Y-60944400D03*
%TO.P,U101,18,GP6*%
X139917000Y-61594400D03*
%TO.P,U101,19,GP7*%
X139917000Y-62244400D03*
%TO.P,U101,20,Vdd*%
%TO.N,+3V3*%
X139917000Y-62894400D03*
%TD*%
D13*
%TO.N,GND*%
X155575000Y-149225000D03*
X131445000Y-149225000D03*
X140335000Y-105410000D03*
X149225000Y-107950000D03*
%TO.N,/D13*%
X150063200Y-110134400D03*
%TO.N,/D11*%
X150063200Y-110921800D03*
%TO.N,GND*%
X134061200Y-57683400D03*
X148590000Y-120015000D03*
X144145000Y-81280000D03*
X140335000Y-110490000D03*
X150495000Y-81280000D03*
X150495000Y-91440000D03*
X139065000Y-86360000D03*
X134035800Y-60934600D03*
X150495000Y-86360000D03*
X144145000Y-116840000D03*
%TO.N,/A11*%
X149326600Y-79349600D03*
%TO.N,/~{WR}*%
X136956800Y-120650000D03*
%TO.N,/A21*%
X150291800Y-104978200D03*
%TO.N,/A20*%
X145740067Y-104312629D03*
%TO.N,/A19*%
X145186400Y-106426000D03*
%TO.N,/D9*%
X150075900Y-111760000D03*
%TO.N,/~{CE}*%
X145770600Y-124510800D03*
%TD*%
D14*
%TO.N,/A2*%
X151282400Y-132232400D02*
X153670000Y-134620000D01*
X151282400Y-104724200D02*
X151282400Y-132232400D01*
X150622000Y-104063800D02*
X151282400Y-104724200D01*
X149047200Y-104063800D02*
X150622000Y-104063800D01*
X148513800Y-103530400D02*
X149047200Y-104063800D01*
X148513800Y-102641400D02*
X148513800Y-103530400D01*
X147751800Y-101879400D02*
X148513800Y-102641400D01*
X143467400Y-101879400D02*
X147751800Y-101879400D01*
X142240000Y-100652000D02*
X143467400Y-101879400D01*
%TO.N,/D9*%
X150291800Y-134162800D02*
X150291800Y-111975900D01*
X147240000Y-137214600D02*
X150291800Y-134162800D01*
X150291800Y-111975900D02*
X150075900Y-111760000D01*
X147240000Y-138352000D02*
X147240000Y-137214600D01*
%TO.N,/D13*%
X149199600Y-112141000D02*
X149199600Y-110998000D01*
X149199600Y-110998000D02*
X150063200Y-110134400D01*
%TO.N,/D11*%
X149529800Y-111429800D02*
X150037800Y-110921800D01*
X150037800Y-110921800D02*
X150063200Y-110921800D01*
X149529800Y-112004226D02*
X149529800Y-111429800D01*
D15*
%TO.N,GND*%
X132117000Y-57694400D02*
X134050200Y-57694400D01*
X134026000Y-60944400D02*
X134035800Y-60934600D01*
X132117000Y-60944400D02*
X134026000Y-60944400D01*
X134050200Y-57694400D02*
X134061200Y-57683400D01*
D14*
%TO.N,/A11*%
X149326600Y-79349600D02*
X143437600Y-79349600D01*
X143437600Y-79349600D02*
X142240000Y-78152000D01*
%TO.N,/A6*%
X153670000Y-124460000D02*
X151942800Y-122732800D01*
X143536000Y-91948000D02*
X142240000Y-90652000D01*
X151942800Y-122732800D02*
X151942800Y-95275400D01*
X148615400Y-91948000D02*
X143536000Y-91948000D01*
X151942800Y-95275400D02*
X148615400Y-91948000D01*
%TO.N,/A5*%
X137541000Y-97851000D02*
X137541000Y-127889000D01*
X142240000Y-93152000D02*
X137541000Y-97851000D01*
X137541000Y-127889000D02*
X135890000Y-129540000D01*
%TO.N,/A4*%
X149580600Y-96926400D02*
X143514400Y-96926400D01*
X143514400Y-96926400D02*
X142240000Y-95652000D01*
X151612600Y-98958400D02*
X149580600Y-96926400D01*
X153670000Y-132080000D02*
X151612600Y-130022600D01*
X151612600Y-130022600D02*
X151612600Y-98958400D01*
%TO.N,/A3*%
X142240000Y-98152000D02*
X137871200Y-102520800D01*
X137871200Y-102520800D02*
X137871200Y-130098800D01*
X137871200Y-130098800D02*
X135890000Y-132080000D01*
%TO.N,/A1*%
X138201400Y-105365052D02*
X138201400Y-132308600D01*
X142240000Y-103152000D02*
X140414452Y-103152000D01*
X138201400Y-132308600D02*
X135890000Y-134620000D01*
X140414452Y-103152000D02*
X138201400Y-105365052D01*
%TO.N,/A0*%
X150952200Y-104866297D02*
X150479903Y-104394000D01*
X150952200Y-134442200D02*
X150952200Y-104866297D01*
X145173000Y-105652000D02*
X142240000Y-105652000D01*
X146431000Y-104394000D02*
X145173000Y-105652000D01*
X153670000Y-137160000D02*
X150952200Y-134442200D01*
X150479903Y-104394000D02*
X146431000Y-104394000D01*
%TO.N,/~{WR}*%
X137210800Y-92760800D02*
X135890000Y-91440000D01*
X137210800Y-120396000D02*
X137210800Y-92760800D01*
X136956800Y-120650000D02*
X137210800Y-120396000D01*
%TO.N,/A23*%
X145831000Y-107061000D02*
X140208000Y-107061000D01*
X139522200Y-107746800D02*
X139522200Y-141147800D01*
X140208000Y-107061000D02*
X139522200Y-107746800D01*
X139522200Y-141147800D02*
X135890000Y-144780000D01*
X147240000Y-105652000D02*
X145831000Y-107061000D01*
%TO.N,/A22*%
X147240000Y-103152000D02*
X145920400Y-103152000D01*
X138531600Y-134518400D02*
X135890000Y-137160000D01*
X145920400Y-103152000D02*
X144830800Y-104241600D01*
X144830800Y-104241600D02*
X139791827Y-104241600D01*
X138531600Y-105501827D02*
X138531600Y-134518400D01*
X139791827Y-104241600D02*
X138531600Y-105501827D01*
%TO.N,/A21*%
X150622000Y-105308400D02*
X150291800Y-104978200D01*
X150622000Y-136652000D02*
X150622000Y-105308400D01*
X153670000Y-139700000D02*
X150622000Y-136652000D01*
%TO.N,/A20*%
X135890000Y-139700000D02*
X138861800Y-136728200D01*
X138861800Y-105638600D02*
X139928600Y-104571800D01*
X138861800Y-136728200D02*
X138861800Y-105638600D01*
X139928600Y-104571800D02*
X145480896Y-104571800D01*
X145480896Y-104571800D02*
X145740067Y-104312629D01*
%TO.N,/A19*%
X144835484Y-106730800D02*
X144881600Y-106730800D01*
X144881600Y-106730800D02*
X145186400Y-106426000D01*
X139192000Y-138938000D02*
X139192000Y-107610027D01*
X139192000Y-107610027D02*
X140071227Y-106730800D01*
X140071227Y-106730800D02*
X144835484Y-106730800D01*
X135890000Y-142240000D02*
X139192000Y-138938000D01*
D15*
%TO.N,+3V3*%
X137988000Y-58343800D02*
X137988000Y-57896800D01*
X137988000Y-59639200D02*
X137988000Y-58343800D01*
X136337000Y-66040000D02*
X137988000Y-64389000D01*
X138190400Y-57694400D02*
X139917000Y-57694400D01*
X139917000Y-62894400D02*
X137992000Y-62894400D01*
X137988600Y-58344400D02*
X137988000Y-58343800D01*
X137988000Y-57896800D02*
X138190400Y-57694400D01*
X137982800Y-59644400D02*
X137988000Y-59639200D01*
X137992000Y-62894400D02*
X137988000Y-62890400D01*
X132117000Y-59644400D02*
X137982800Y-59644400D01*
X139917000Y-58344400D02*
X137988600Y-58344400D01*
X137988000Y-64389000D02*
X137988000Y-62890400D01*
X137988000Y-62890400D02*
X137988000Y-59639200D01*
X135890000Y-66040000D02*
X136337000Y-66040000D01*
D14*
%TO.N,/SCL*%
X135890000Y-68580000D02*
X134112000Y-66802000D01*
X134112000Y-66802000D02*
X134112000Y-63296800D01*
X134112000Y-63296800D02*
X133709600Y-62894400D01*
X133709600Y-62894400D02*
X132117000Y-62894400D01*
%TO.N,/SDA*%
X133770800Y-62244400D02*
X134442200Y-62915800D01*
X134442200Y-66649600D02*
X135102600Y-67310000D01*
X136753600Y-67310000D02*
X137261600Y-67818000D01*
X134442200Y-62915800D02*
X134442200Y-66649600D01*
X137261600Y-67818000D02*
X137261600Y-69748400D01*
X132117000Y-62244400D02*
X133770800Y-62244400D01*
X135102600Y-67310000D02*
X136753600Y-67310000D01*
X137261600Y-69748400D02*
X135890000Y-71120000D01*
%TO.N,/D13*%
X149631400Y-112572800D02*
X149199600Y-112141000D01*
X145745200Y-137769600D02*
X149631400Y-133883400D01*
X147240000Y-143352000D02*
X145745200Y-141857200D01*
X149631400Y-133883400D02*
X149631400Y-112572800D01*
X145745200Y-141857200D02*
X145745200Y-137769600D01*
%TO.N,/D11*%
X146075400Y-139687400D02*
X146075400Y-137906374D01*
X149961600Y-112436026D02*
X149529800Y-112004226D01*
X146075400Y-137906374D02*
X149961600Y-134020173D01*
X147240000Y-140852000D02*
X146075400Y-139687400D01*
X149961600Y-134020173D02*
X149961600Y-112436026D01*
%TO.N,/~{CE}*%
X145770600Y-109621400D02*
X147240000Y-108152000D01*
X145770600Y-124510800D02*
X145770600Y-109621400D01*
%TD*%
%TA.AperFunction,Conductor*%
%TO.N,GND*%
G36*
X141400340Y-104935765D02*
G01*
X141430404Y-104987836D01*
X141419963Y-105047050D01*
X141411787Y-105058862D01*
X141390724Y-105084527D01*
X141296335Y-105261116D01*
X141296333Y-105261120D01*
X141238209Y-105452726D01*
X141238208Y-105452728D01*
X141238208Y-105452731D01*
X141218582Y-105652000D01*
X141238208Y-105851269D01*
X141296333Y-106042880D01*
X141350350Y-106143937D01*
X141390724Y-106219472D01*
X141410638Y-106243738D01*
X141430585Y-106300460D01*
X141409404Y-106356733D01*
X141357007Y-106386226D01*
X141342690Y-106387400D01*
X140088127Y-106387400D01*
X140084312Y-106387233D01*
X140066585Y-106385682D01*
X140040838Y-106383429D01*
X139998686Y-106394723D01*
X139994944Y-106395552D01*
X139951970Y-106403131D01*
X139951968Y-106403131D01*
X139951966Y-106403132D01*
X139951964Y-106403132D01*
X139951964Y-106403133D01*
X139948694Y-106405021D01*
X139927515Y-106413793D01*
X139923863Y-106414772D01*
X139923861Y-106414772D01*
X139888105Y-106439808D01*
X139884873Y-106441867D01*
X139847092Y-106463681D01*
X139847087Y-106463685D01*
X139819049Y-106497098D01*
X139816459Y-106499925D01*
X139355255Y-106961130D01*
X139300761Y-106986541D01*
X139242683Y-106970979D01*
X139208195Y-106921725D01*
X139205200Y-106898975D01*
X139205200Y-105817251D01*
X139225765Y-105760750D01*
X139230945Y-105755096D01*
X140045096Y-104940945D01*
X140099590Y-104915534D01*
X140107251Y-104915200D01*
X141343839Y-104915200D01*
X141400340Y-104935765D01*
G37*
%TD.AperFunction*%
%TA.AperFunction,Conductor*%
G36*
X156305101Y-56409065D02*
G01*
X156335165Y-56461136D01*
X156336500Y-56476400D01*
X156336500Y-149898600D01*
X156315935Y-149955101D01*
X156263864Y-149985165D01*
X156248600Y-149986500D01*
X130771400Y-149986500D01*
X130714899Y-149965935D01*
X130684835Y-149913864D01*
X130683500Y-149898600D01*
X130683500Y-145852000D01*
X141218582Y-145852000D01*
X141238208Y-146051269D01*
X141296333Y-146242880D01*
X141390722Y-146419469D01*
X141517748Y-146574252D01*
X141672531Y-146701278D01*
X141849120Y-146795667D01*
X142040731Y-146853792D01*
X142240000Y-146873418D01*
X142439269Y-146853792D01*
X142630880Y-146795667D01*
X142807469Y-146701278D01*
X142962252Y-146574252D01*
X143089278Y-146419469D01*
X143183667Y-146242880D01*
X143241792Y-146051269D01*
X143261418Y-145852000D01*
X146218582Y-145852000D01*
X146238208Y-146051269D01*
X146296333Y-146242880D01*
X146390722Y-146419469D01*
X146517748Y-146574252D01*
X146672531Y-146701278D01*
X146849120Y-146795667D01*
X147040731Y-146853792D01*
X147240000Y-146873418D01*
X147439269Y-146853792D01*
X147630880Y-146795667D01*
X147807469Y-146701278D01*
X147962252Y-146574252D01*
X148089278Y-146419469D01*
X148183667Y-146242880D01*
X148241792Y-146051269D01*
X148261418Y-145852000D01*
X148241792Y-145652731D01*
X148183667Y-145461120D01*
X148089278Y-145284531D01*
X147962252Y-145129748D01*
X147807469Y-145002722D01*
X147630880Y-144908333D01*
X147518398Y-144874211D01*
X147439273Y-144850209D01*
X147439271Y-144850208D01*
X147439269Y-144850208D01*
X147240000Y-144830582D01*
X147040731Y-144850208D01*
X147040728Y-144850208D01*
X147040726Y-144850209D01*
X146849120Y-144908333D01*
X146849116Y-144908335D01*
X146672530Y-145002722D01*
X146517750Y-145129746D01*
X146517746Y-145129750D01*
X146390722Y-145284530D01*
X146296335Y-145461116D01*
X146296333Y-145461120D01*
X146238209Y-145652726D01*
X146238208Y-145652728D01*
X146238208Y-145652731D01*
X146218582Y-145852000D01*
X143261418Y-145852000D01*
X143241792Y-145652731D01*
X143183667Y-145461120D01*
X143089278Y-145284531D01*
X142962252Y-145129748D01*
X142807469Y-145002722D01*
X142630880Y-144908333D01*
X142518398Y-144874211D01*
X142439273Y-144850209D01*
X142439271Y-144850208D01*
X142439269Y-144850208D01*
X142240000Y-144830582D01*
X142040731Y-144850208D01*
X142040728Y-144850208D01*
X142040726Y-144850209D01*
X141849120Y-144908333D01*
X141849116Y-144908335D01*
X141672530Y-145002722D01*
X141517750Y-145129746D01*
X141517746Y-145129750D01*
X141390722Y-145284530D01*
X141296335Y-145461116D01*
X141296333Y-145461120D01*
X141238209Y-145652726D01*
X141238208Y-145652728D01*
X141238208Y-145652731D01*
X141218582Y-145852000D01*
X130683500Y-145852000D01*
X130683500Y-144780000D01*
X134868582Y-144780000D01*
X134888208Y-144979269D01*
X134888208Y-144979271D01*
X134888209Y-144979273D01*
X134895322Y-145002722D01*
X134946333Y-145170880D01*
X135040722Y-145347469D01*
X135167748Y-145502252D01*
X135322531Y-145629278D01*
X135499120Y-145723667D01*
X135690731Y-145781792D01*
X135890000Y-145801418D01*
X136089269Y-145781792D01*
X136280880Y-145723667D01*
X136457469Y-145629278D01*
X136612252Y-145502252D01*
X136739278Y-145347469D01*
X136833667Y-145170880D01*
X136891792Y-144979269D01*
X136911418Y-144780000D01*
X152598038Y-144780000D01*
X152618636Y-144989135D01*
X152679633Y-145190216D01*
X152778698Y-145375553D01*
X152814859Y-145419613D01*
X153218067Y-145016405D01*
X153282131Y-145116090D01*
X153392530Y-145211752D01*
X153434572Y-145230952D01*
X153030384Y-145635140D01*
X153074446Y-145671301D01*
X153074445Y-145671301D01*
X153259783Y-145770366D01*
X153460864Y-145831363D01*
X153670000Y-145851961D01*
X153879135Y-145831363D01*
X154080216Y-145770366D01*
X154265548Y-145671304D01*
X154309613Y-145635139D01*
X153905426Y-145230952D01*
X153947470Y-145211752D01*
X154057869Y-145116090D01*
X154121932Y-145016405D01*
X154525139Y-145419613D01*
X154561304Y-145375548D01*
X154660366Y-145190216D01*
X154721363Y-144989135D01*
X154741961Y-144780000D01*
X154721363Y-144570864D01*
X154660366Y-144369783D01*
X154561301Y-144184446D01*
X154525140Y-144140384D01*
X154121931Y-144543593D01*
X154057869Y-144443910D01*
X153947470Y-144348248D01*
X153905425Y-144329047D01*
X154309613Y-143924859D01*
X154265553Y-143888698D01*
X154265554Y-143888698D01*
X154080216Y-143789633D01*
X153879135Y-143728636D01*
X153670000Y-143708038D01*
X153460864Y-143728636D01*
X153259783Y-143789633D01*
X153074449Y-143888696D01*
X153030385Y-143924858D01*
X153434574Y-144329047D01*
X153392530Y-144348248D01*
X153282131Y-144443910D01*
X153218067Y-144543594D01*
X152814858Y-144140385D01*
X152778696Y-144184449D01*
X152679633Y-144369783D01*
X152618636Y-144570864D01*
X152598038Y-144780000D01*
X136911418Y-144780000D01*
X136891792Y-144580731D01*
X136886860Y-144564473D01*
X136833333Y-144388017D01*
X136836611Y-144327979D01*
X136855290Y-144300349D01*
X137803639Y-143352000D01*
X141218582Y-143352000D01*
X141238208Y-143551269D01*
X141296333Y-143742880D01*
X141390722Y-143919469D01*
X141517748Y-144074252D01*
X141672531Y-144201278D01*
X141849120Y-144295667D01*
X142040731Y-144353792D01*
X142240000Y-144373418D01*
X142439269Y-144353792D01*
X142630880Y-144295667D01*
X142807469Y-144201278D01*
X142962252Y-144074252D01*
X143089278Y-143919469D01*
X143183667Y-143742880D01*
X143241792Y-143551269D01*
X143261418Y-143352000D01*
X143241792Y-143152731D01*
X143183667Y-142961120D01*
X143089278Y-142784531D01*
X142962252Y-142629748D01*
X142807469Y-142502722D01*
X142630880Y-142408333D01*
X142518398Y-142374211D01*
X142439273Y-142350209D01*
X142439271Y-142350208D01*
X142439269Y-142350208D01*
X142240000Y-142330582D01*
X142040731Y-142350208D01*
X142040728Y-142350208D01*
X142040726Y-142350209D01*
X141849120Y-142408333D01*
X141849116Y-142408335D01*
X141672530Y-142502722D01*
X141517750Y-142629746D01*
X141517746Y-142629750D01*
X141390722Y-142784530D01*
X141296335Y-142961116D01*
X141296333Y-142961120D01*
X141238209Y-143152726D01*
X141238208Y-143152728D01*
X141238208Y-143152731D01*
X141218582Y-143352000D01*
X137803639Y-143352000D01*
X139753084Y-141402555D01*
X139755893Y-141399982D01*
X139789317Y-141371938D01*
X139811140Y-141334136D01*
X139813185Y-141330927D01*
X139838227Y-141295166D01*
X139839201Y-141291529D01*
X139847986Y-141270319D01*
X139849868Y-141267061D01*
X139857449Y-141224062D01*
X139858271Y-141220354D01*
X139869570Y-141178190D01*
X139865767Y-141134717D01*
X139865600Y-141130885D01*
X139865600Y-140852000D01*
X141218582Y-140852000D01*
X141238208Y-141051269D01*
X141296333Y-141242880D01*
X141390722Y-141419469D01*
X141517748Y-141574252D01*
X141672531Y-141701278D01*
X141849120Y-141795667D01*
X142040731Y-141853792D01*
X142240000Y-141873418D01*
X142439269Y-141853792D01*
X142630880Y-141795667D01*
X142807469Y-141701278D01*
X142962252Y-141574252D01*
X143089278Y-141419469D01*
X143183667Y-141242880D01*
X143241792Y-141051269D01*
X143261418Y-140852000D01*
X143241792Y-140652731D01*
X143183667Y-140461120D01*
X143089278Y-140284531D01*
X142962252Y-140129748D01*
X142807469Y-140002722D01*
X142630880Y-139908333D01*
X142518398Y-139874211D01*
X142439273Y-139850209D01*
X142439271Y-139850208D01*
X142439269Y-139850208D01*
X142240000Y-139830582D01*
X142040731Y-139850208D01*
X142040728Y-139850208D01*
X142040726Y-139850209D01*
X141849120Y-139908333D01*
X141849116Y-139908335D01*
X141672530Y-140002722D01*
X141517750Y-140129746D01*
X141517746Y-140129750D01*
X141390722Y-140284530D01*
X141296335Y-140461116D01*
X141296333Y-140461120D01*
X141238209Y-140652726D01*
X141238208Y-140652728D01*
X141238208Y-140652731D01*
X141218582Y-140852000D01*
X139865600Y-140852000D01*
X139865600Y-138352000D01*
X141218582Y-138352000D01*
X141238208Y-138551269D01*
X141296333Y-138742880D01*
X141390722Y-138919469D01*
X141517748Y-139074252D01*
X141672531Y-139201278D01*
X141849120Y-139295667D01*
X142040731Y-139353792D01*
X142240000Y-139373418D01*
X142439269Y-139353792D01*
X142630880Y-139295667D01*
X142807469Y-139201278D01*
X142962252Y-139074252D01*
X143089278Y-138919469D01*
X143183667Y-138742880D01*
X143241792Y-138551269D01*
X143261418Y-138352000D01*
X143241792Y-138152731D01*
X143183667Y-137961120D01*
X143089278Y-137784531D01*
X142962252Y-137629748D01*
X142807469Y-137502722D01*
X142630880Y-137408333D01*
X142495439Y-137367247D01*
X142439273Y-137350209D01*
X142439271Y-137350208D01*
X142439269Y-137350208D01*
X142240000Y-137330582D01*
X142040731Y-137350208D01*
X142040728Y-137350208D01*
X142040726Y-137350209D01*
X141849120Y-137408333D01*
X141849116Y-137408335D01*
X141672530Y-137502722D01*
X141517750Y-137629746D01*
X141517746Y-137629750D01*
X141390722Y-137784530D01*
X141296335Y-137961116D01*
X141296333Y-137961120D01*
X141238209Y-138152726D01*
X141238208Y-138152728D01*
X141238208Y-138152731D01*
X141218582Y-138352000D01*
X139865600Y-138352000D01*
X139865600Y-130652000D01*
X141218582Y-130652000D01*
X141238208Y-130851269D01*
X141296333Y-131042880D01*
X141390722Y-131219469D01*
X141517748Y-131374252D01*
X141672531Y-131501278D01*
X141849120Y-131595667D01*
X142040731Y-131653792D01*
X142240000Y-131673418D01*
X142439269Y-131653792D01*
X142630880Y-131595667D01*
X142807469Y-131501278D01*
X142962252Y-131374252D01*
X143089278Y-131219469D01*
X143183667Y-131042880D01*
X143241792Y-130851269D01*
X143261418Y-130652000D01*
X146218582Y-130652000D01*
X146238208Y-130851269D01*
X146296333Y-131042880D01*
X146390722Y-131219469D01*
X146517748Y-131374252D01*
X146672531Y-131501278D01*
X146849120Y-131595667D01*
X147040731Y-131653792D01*
X147240000Y-131673418D01*
X147439269Y-131653792D01*
X147630880Y-131595667D01*
X147807469Y-131501278D01*
X147962252Y-131374252D01*
X148089278Y-131219469D01*
X148183667Y-131042880D01*
X148241792Y-130851269D01*
X148261418Y-130652000D01*
X148241792Y-130452731D01*
X148183667Y-130261120D01*
X148089278Y-130084531D01*
X147962252Y-129929748D01*
X147807469Y-129802722D01*
X147630880Y-129708333D01*
X147518398Y-129674211D01*
X147439273Y-129650209D01*
X147439271Y-129650208D01*
X147439269Y-129650208D01*
X147240000Y-129630582D01*
X147040731Y-129650208D01*
X147040728Y-129650208D01*
X147040726Y-129650209D01*
X146849120Y-129708333D01*
X146849116Y-129708335D01*
X146672530Y-129802722D01*
X146517750Y-129929746D01*
X146517746Y-129929750D01*
X146390722Y-130084530D01*
X146296335Y-130261116D01*
X146296333Y-130261120D01*
X146238209Y-130452726D01*
X146238208Y-130452728D01*
X146238208Y-130452731D01*
X146218582Y-130652000D01*
X143261418Y-130652000D01*
X143241792Y-130452731D01*
X143183667Y-130261120D01*
X143089278Y-130084531D01*
X142962252Y-129929748D01*
X142807469Y-129802722D01*
X142630880Y-129708333D01*
X142518398Y-129674211D01*
X142439273Y-129650209D01*
X142439271Y-129650208D01*
X142439269Y-129650208D01*
X142240000Y-129630582D01*
X142040731Y-129650208D01*
X142040728Y-129650208D01*
X142040726Y-129650209D01*
X141849120Y-129708333D01*
X141849116Y-129708335D01*
X141672530Y-129802722D01*
X141517750Y-129929746D01*
X141517746Y-129929750D01*
X141390722Y-130084530D01*
X141296335Y-130261116D01*
X141296333Y-130261120D01*
X141238209Y-130452726D01*
X141238208Y-130452728D01*
X141238208Y-130452731D01*
X141218582Y-130652000D01*
X139865600Y-130652000D01*
X139865600Y-128152000D01*
X141218582Y-128152000D01*
X141238208Y-128351269D01*
X141296333Y-128542880D01*
X141390722Y-128719469D01*
X141517748Y-128874252D01*
X141672531Y-129001278D01*
X141849120Y-129095667D01*
X142040731Y-129153792D01*
X142240000Y-129173418D01*
X142439269Y-129153792D01*
X142630880Y-129095667D01*
X142807469Y-129001278D01*
X142962252Y-128874252D01*
X143089278Y-128719469D01*
X143183667Y-128542880D01*
X143241792Y-128351269D01*
X143261418Y-128152000D01*
X146218582Y-128152000D01*
X146238208Y-128351269D01*
X146296333Y-128542880D01*
X146390722Y-128719469D01*
X146517748Y-128874252D01*
X146672531Y-129001278D01*
X146849120Y-129095667D01*
X147040731Y-129153792D01*
X147240000Y-129173418D01*
X147439269Y-129153792D01*
X147630880Y-129095667D01*
X147807469Y-129001278D01*
X147962252Y-128874252D01*
X148089278Y-128719469D01*
X148183667Y-128542880D01*
X148241792Y-128351269D01*
X148261418Y-128152000D01*
X148241792Y-127952731D01*
X148183667Y-127761120D01*
X148089278Y-127584531D01*
X147962252Y-127429748D01*
X147807469Y-127302722D01*
X147630880Y-127208333D01*
X147518398Y-127174211D01*
X147439273Y-127150209D01*
X147439271Y-127150208D01*
X147439269Y-127150208D01*
X147240000Y-127130582D01*
X147040731Y-127150208D01*
X147040728Y-127150208D01*
X147040726Y-127150209D01*
X146849120Y-127208333D01*
X146849116Y-127208335D01*
X146672530Y-127302722D01*
X146517750Y-127429746D01*
X146517746Y-127429750D01*
X146390722Y-127584530D01*
X146296335Y-127761116D01*
X146296333Y-127761120D01*
X146238209Y-127952726D01*
X146238208Y-127952728D01*
X146238208Y-127952731D01*
X146218582Y-128152000D01*
X143261418Y-128152000D01*
X143241792Y-127952731D01*
X143183667Y-127761120D01*
X143089278Y-127584531D01*
X142962252Y-127429748D01*
X142807469Y-127302722D01*
X142630880Y-127208333D01*
X142518398Y-127174211D01*
X142439273Y-127150209D01*
X142439271Y-127150208D01*
X142439269Y-127150208D01*
X142240000Y-127130582D01*
X142040731Y-127150208D01*
X142040728Y-127150208D01*
X142040726Y-127150209D01*
X141849120Y-127208333D01*
X141849116Y-127208335D01*
X141672530Y-127302722D01*
X141517750Y-127429746D01*
X141517746Y-127429750D01*
X141390722Y-127584530D01*
X141296335Y-127761116D01*
X141296333Y-127761120D01*
X141238209Y-127952726D01*
X141238208Y-127952728D01*
X141238208Y-127952731D01*
X141218582Y-128152000D01*
X139865600Y-128152000D01*
X139865600Y-125652000D01*
X141218582Y-125652000D01*
X141238208Y-125851269D01*
X141296333Y-126042880D01*
X141390722Y-126219469D01*
X141517748Y-126374252D01*
X141672531Y-126501278D01*
X141849120Y-126595667D01*
X142040731Y-126653792D01*
X142240000Y-126673418D01*
X142439269Y-126653792D01*
X142630880Y-126595667D01*
X142807469Y-126501278D01*
X142962252Y-126374252D01*
X143089278Y-126219469D01*
X143183667Y-126042880D01*
X143241792Y-125851269D01*
X143261418Y-125652000D01*
X146218582Y-125652000D01*
X146238208Y-125851269D01*
X146296333Y-126042880D01*
X146390722Y-126219469D01*
X146517748Y-126374252D01*
X146672531Y-126501278D01*
X146849120Y-126595667D01*
X147040731Y-126653792D01*
X147240000Y-126673418D01*
X147439269Y-126653792D01*
X147630880Y-126595667D01*
X147807469Y-126501278D01*
X147962252Y-126374252D01*
X148089278Y-126219469D01*
X148183667Y-126042880D01*
X148241792Y-125851269D01*
X148261418Y-125652000D01*
X148241792Y-125452731D01*
X148183667Y-125261120D01*
X148089278Y-125084531D01*
X147962252Y-124929748D01*
X147807469Y-124802722D01*
X147630880Y-124708333D01*
X147518398Y-124674211D01*
X147439273Y-124650209D01*
X147439271Y-124650208D01*
X147439269Y-124650208D01*
X147240000Y-124630582D01*
X147040731Y-124650208D01*
X147040728Y-124650208D01*
X147040726Y-124650209D01*
X146849120Y-124708333D01*
X146849116Y-124708335D01*
X146672530Y-124802722D01*
X146517750Y-124929746D01*
X146517746Y-124929750D01*
X146390722Y-125084530D01*
X146296335Y-125261116D01*
X146296333Y-125261120D01*
X146238209Y-125452726D01*
X146238208Y-125452728D01*
X146238208Y-125452731D01*
X146218582Y-125652000D01*
X143261418Y-125652000D01*
X143241792Y-125452731D01*
X143183667Y-125261120D01*
X143089278Y-125084531D01*
X142962252Y-124929748D01*
X142807469Y-124802722D01*
X142630880Y-124708333D01*
X142518398Y-124674211D01*
X142439273Y-124650209D01*
X142439271Y-124650208D01*
X142439269Y-124650208D01*
X142240000Y-124630582D01*
X142040731Y-124650208D01*
X142040728Y-124650208D01*
X142040726Y-124650209D01*
X141849120Y-124708333D01*
X141849116Y-124708335D01*
X141672530Y-124802722D01*
X141517750Y-124929746D01*
X141517746Y-124929750D01*
X141390722Y-125084530D01*
X141296335Y-125261116D01*
X141296333Y-125261120D01*
X141238209Y-125452726D01*
X141238208Y-125452728D01*
X141238208Y-125452731D01*
X141218582Y-125652000D01*
X139865600Y-125652000D01*
X139865600Y-124510800D01*
X145206474Y-124510800D01*
X145225696Y-124656807D01*
X145282053Y-124792863D01*
X145282057Y-124792870D01*
X145371697Y-124909690D01*
X145371699Y-124909692D01*
X145371703Y-124909697D01*
X145371707Y-124909700D01*
X145371709Y-124909702D01*
X145488529Y-124999342D01*
X145488534Y-124999345D01*
X145488537Y-124999347D01*
X145624593Y-125055704D01*
X145770600Y-125074926D01*
X145916607Y-125055704D01*
X146052663Y-124999347D01*
X146169497Y-124909697D01*
X146259147Y-124792863D01*
X146315504Y-124656807D01*
X146334726Y-124510800D01*
X146315504Y-124364793D01*
X146259147Y-124228737D01*
X146169497Y-124111903D01*
X146148389Y-124095706D01*
X146116083Y-124044995D01*
X146114000Y-124025971D01*
X146114000Y-123534381D01*
X146134565Y-123477880D01*
X146186636Y-123447816D01*
X146245850Y-123458257D01*
X146284499Y-123504317D01*
X146286010Y-123508851D01*
X146296333Y-123542880D01*
X146390722Y-123719469D01*
X146517748Y-123874252D01*
X146672531Y-124001278D01*
X146849120Y-124095667D01*
X147040731Y-124153792D01*
X147240000Y-124173418D01*
X147439269Y-124153792D01*
X147630880Y-124095667D01*
X147807469Y-124001278D01*
X147962252Y-123874252D01*
X148089278Y-123719469D01*
X148183667Y-123542880D01*
X148241792Y-123351269D01*
X148261418Y-123152000D01*
X148241792Y-122952731D01*
X148183667Y-122761120D01*
X148089278Y-122584531D01*
X147962252Y-122429748D01*
X147807469Y-122302722D01*
X147630880Y-122208333D01*
X147518398Y-122174211D01*
X147439273Y-122150209D01*
X147439271Y-122150208D01*
X147439269Y-122150208D01*
X147240000Y-122130582D01*
X147040731Y-122150208D01*
X147040728Y-122150208D01*
X147040726Y-122150209D01*
X146849120Y-122208333D01*
X146849116Y-122208335D01*
X146672530Y-122302722D01*
X146517750Y-122429746D01*
X146517746Y-122429750D01*
X146390722Y-122584530D01*
X146296335Y-122761116D01*
X146296333Y-122761120D01*
X146286015Y-122795135D01*
X146249934Y-122843233D01*
X146191377Y-122856886D01*
X146137744Y-122829705D01*
X146114131Y-122774409D01*
X146114000Y-122769618D01*
X146114000Y-121034381D01*
X146134565Y-120977880D01*
X146186636Y-120947816D01*
X146245850Y-120958257D01*
X146284499Y-121004317D01*
X146286010Y-121008851D01*
X146296333Y-121042880D01*
X146390722Y-121219469D01*
X146517748Y-121374252D01*
X146672531Y-121501278D01*
X146849120Y-121595667D01*
X147040731Y-121653792D01*
X147240000Y-121673418D01*
X147439269Y-121653792D01*
X147630880Y-121595667D01*
X147807469Y-121501278D01*
X147962252Y-121374252D01*
X148089278Y-121219469D01*
X148183667Y-121042880D01*
X148241792Y-120851269D01*
X148261418Y-120652000D01*
X148241792Y-120452731D01*
X148183667Y-120261120D01*
X148089278Y-120084531D01*
X147962252Y-119929748D01*
X147807469Y-119802722D01*
X147630880Y-119708333D01*
X147518398Y-119674211D01*
X147439273Y-119650209D01*
X147439271Y-119650208D01*
X147439269Y-119650208D01*
X147240000Y-119630582D01*
X147040731Y-119650208D01*
X147040728Y-119650208D01*
X147040726Y-119650209D01*
X146849120Y-119708333D01*
X146849116Y-119708335D01*
X146672530Y-119802722D01*
X146517750Y-119929746D01*
X146517746Y-119929750D01*
X146390722Y-120084530D01*
X146296335Y-120261116D01*
X146296333Y-120261120D01*
X146286015Y-120295135D01*
X146249934Y-120343233D01*
X146191377Y-120356886D01*
X146137744Y-120329705D01*
X146114131Y-120274409D01*
X146114000Y-120269618D01*
X146114000Y-118534381D01*
X146134565Y-118477880D01*
X146186636Y-118447816D01*
X146245850Y-118458257D01*
X146284499Y-118504317D01*
X146286010Y-118508851D01*
X146296333Y-118542880D01*
X146390722Y-118719469D01*
X146517748Y-118874252D01*
X146672531Y-119001278D01*
X146849120Y-119095667D01*
X147040731Y-119153792D01*
X147240000Y-119173418D01*
X147439269Y-119153792D01*
X147630880Y-119095667D01*
X147807469Y-119001278D01*
X147962252Y-118874252D01*
X148089278Y-118719469D01*
X148183667Y-118542880D01*
X148241792Y-118351269D01*
X148261418Y-118152000D01*
X148241792Y-117952731D01*
X148183667Y-117761120D01*
X148089278Y-117584531D01*
X147962252Y-117429748D01*
X147807469Y-117302722D01*
X147630880Y-117208333D01*
X147518398Y-117174211D01*
X147439273Y-117150209D01*
X147439271Y-117150208D01*
X147439269Y-117150208D01*
X147240000Y-117130582D01*
X147040731Y-117150208D01*
X147040728Y-117150208D01*
X147040726Y-117150209D01*
X146849120Y-117208333D01*
X146849116Y-117208335D01*
X146672530Y-117302722D01*
X146517750Y-117429746D01*
X146517746Y-117429750D01*
X146390722Y-117584530D01*
X146334734Y-117689277D01*
X146296333Y-117761120D01*
X146289494Y-117783667D01*
X146286015Y-117795135D01*
X146249934Y-117843233D01*
X146191377Y-117856886D01*
X146137744Y-117829705D01*
X146114131Y-117774409D01*
X146114000Y-117769618D01*
X146114000Y-116034381D01*
X146134565Y-115977880D01*
X146186636Y-115947816D01*
X146245850Y-115958257D01*
X146284499Y-116004317D01*
X146286010Y-116008851D01*
X146296333Y-116042880D01*
X146390722Y-116219469D01*
X146517748Y-116374252D01*
X146672531Y-116501278D01*
X146849120Y-116595667D01*
X147040731Y-116653792D01*
X147240000Y-116673418D01*
X147439269Y-116653792D01*
X147630880Y-116595667D01*
X147807469Y-116501278D01*
X147962252Y-116374252D01*
X148089278Y-116219469D01*
X148183667Y-116042880D01*
X148241792Y-115851269D01*
X148261418Y-115652000D01*
X148241792Y-115452731D01*
X148183667Y-115261120D01*
X148089278Y-115084531D01*
X147962252Y-114929748D01*
X147807469Y-114802722D01*
X147630880Y-114708333D01*
X147518398Y-114674211D01*
X147439273Y-114650209D01*
X147439271Y-114650208D01*
X147439269Y-114650208D01*
X147240000Y-114630582D01*
X147040731Y-114650208D01*
X147040728Y-114650208D01*
X147040726Y-114650209D01*
X146849120Y-114708333D01*
X146849116Y-114708335D01*
X146672530Y-114802722D01*
X146517750Y-114929746D01*
X146517746Y-114929750D01*
X146390722Y-115084530D01*
X146296335Y-115261116D01*
X146296333Y-115261120D01*
X146286015Y-115295135D01*
X146249934Y-115343233D01*
X146191377Y-115356886D01*
X146137744Y-115329705D01*
X146114131Y-115274409D01*
X146114000Y-115269618D01*
X146114000Y-113534381D01*
X146134565Y-113477880D01*
X146186636Y-113447816D01*
X146245850Y-113458257D01*
X146284499Y-113504317D01*
X146286010Y-113508851D01*
X146296333Y-113542880D01*
X146390722Y-113719469D01*
X146517748Y-113874252D01*
X146672531Y-114001278D01*
X146849120Y-114095667D01*
X147040731Y-114153792D01*
X147240000Y-114173418D01*
X147439269Y-114153792D01*
X147630880Y-114095667D01*
X147807469Y-114001278D01*
X147962252Y-113874252D01*
X148089278Y-113719469D01*
X148183667Y-113542880D01*
X148241792Y-113351269D01*
X148261418Y-113152000D01*
X148241792Y-112952731D01*
X148183667Y-112761120D01*
X148089278Y-112584531D01*
X147962252Y-112429748D01*
X147807469Y-112302722D01*
X147630880Y-112208333D01*
X147518398Y-112174211D01*
X147439273Y-112150209D01*
X147439271Y-112150208D01*
X147439269Y-112150208D01*
X147240000Y-112130582D01*
X147040731Y-112150208D01*
X147040728Y-112150208D01*
X147040726Y-112150209D01*
X146849120Y-112208333D01*
X146849116Y-112208335D01*
X146672530Y-112302722D01*
X146517750Y-112429746D01*
X146517746Y-112429750D01*
X146390722Y-112584530D01*
X146296335Y-112761116D01*
X146296333Y-112761120D01*
X146286015Y-112795135D01*
X146249934Y-112843233D01*
X146191377Y-112856886D01*
X146137744Y-112829705D01*
X146114131Y-112774409D01*
X146114000Y-112769618D01*
X146114000Y-111034381D01*
X146134565Y-110977880D01*
X146186636Y-110947816D01*
X146245850Y-110958257D01*
X146284499Y-111004317D01*
X146286010Y-111008851D01*
X146296333Y-111042880D01*
X146390722Y-111219469D01*
X146517748Y-111374252D01*
X146672531Y-111501278D01*
X146849120Y-111595667D01*
X147040731Y-111653792D01*
X147240000Y-111673418D01*
X147439269Y-111653792D01*
X147630880Y-111595667D01*
X147807469Y-111501278D01*
X147962252Y-111374252D01*
X148089278Y-111219469D01*
X148183667Y-111042880D01*
X148241792Y-110851269D01*
X148261418Y-110652000D01*
X148241792Y-110452731D01*
X148183667Y-110261120D01*
X148089278Y-110084531D01*
X147962252Y-109929748D01*
X147807469Y-109802722D01*
X147630880Y-109708333D01*
X147518398Y-109674211D01*
X147439273Y-109650209D01*
X147439271Y-109650208D01*
X147439269Y-109650208D01*
X147240000Y-109630582D01*
X147040731Y-109650208D01*
X147040728Y-109650208D01*
X147040726Y-109650209D01*
X146849120Y-109708333D01*
X146849116Y-109708335D01*
X146672530Y-109802722D01*
X146517750Y-109929746D01*
X146517746Y-109929750D01*
X146390722Y-110084530D01*
X146296335Y-110261116D01*
X146296333Y-110261120D01*
X146286015Y-110295135D01*
X146249934Y-110343233D01*
X146191377Y-110356886D01*
X146137744Y-110329705D01*
X146114131Y-110274409D01*
X146114000Y-110269618D01*
X146114000Y-109800050D01*
X146134565Y-109743549D01*
X146139734Y-109737906D01*
X146760347Y-109117292D01*
X146814840Y-109091882D01*
X146848017Y-109095333D01*
X147040724Y-109153790D01*
X147040731Y-109153792D01*
X147240000Y-109173418D01*
X147439269Y-109153792D01*
X147630880Y-109095667D01*
X147807469Y-109001278D01*
X147962252Y-108874252D01*
X148089278Y-108719469D01*
X148183667Y-108542880D01*
X148241792Y-108351269D01*
X148261418Y-108152000D01*
X148241792Y-107952731D01*
X148183667Y-107761120D01*
X148089278Y-107584531D01*
X147962252Y-107429748D01*
X147807469Y-107302722D01*
X147630880Y-107208333D01*
X147518398Y-107174211D01*
X147439273Y-107150209D01*
X147439271Y-107150208D01*
X147439269Y-107150208D01*
X147240000Y-107130582D01*
X147040731Y-107150208D01*
X147040728Y-107150208D01*
X147040726Y-107150209D01*
X146849120Y-107208333D01*
X146849116Y-107208335D01*
X146672530Y-107302722D01*
X146517750Y-107429746D01*
X146517746Y-107429750D01*
X146390722Y-107584530D01*
X146296335Y-107761116D01*
X146296333Y-107761120D01*
X146238209Y-107952726D01*
X146238208Y-107952728D01*
X146238208Y-107952731D01*
X146218582Y-108152000D01*
X146238209Y-108351275D01*
X146296666Y-108543980D01*
X146293388Y-108604018D01*
X146274706Y-108631651D01*
X145539729Y-109366628D01*
X145536901Y-109369218D01*
X145503485Y-109397259D01*
X145503483Y-109397261D01*
X145481667Y-109435046D01*
X145479608Y-109438278D01*
X145454572Y-109474034D01*
X145454572Y-109474036D01*
X145453593Y-109477688D01*
X145444821Y-109498867D01*
X145442933Y-109502137D01*
X145442931Y-109502143D01*
X145435352Y-109545117D01*
X145434523Y-109548859D01*
X145423229Y-109591011D01*
X145424969Y-109610883D01*
X145427033Y-109634486D01*
X145427200Y-109638298D01*
X145427200Y-124025971D01*
X145406635Y-124082472D01*
X145392811Y-124095706D01*
X145371704Y-124111902D01*
X145371699Y-124111907D01*
X145282054Y-124228735D01*
X145282053Y-124228736D01*
X145225696Y-124364792D01*
X145206474Y-124510799D01*
X145206474Y-124510800D01*
X139865600Y-124510800D01*
X139865600Y-123152000D01*
X141218582Y-123152000D01*
X141238208Y-123351269D01*
X141238208Y-123351271D01*
X141238209Y-123351273D01*
X141247438Y-123381696D01*
X141296333Y-123542880D01*
X141390722Y-123719469D01*
X141517748Y-123874252D01*
X141672531Y-124001278D01*
X141849120Y-124095667D01*
X142040731Y-124153792D01*
X142240000Y-124173418D01*
X142439269Y-124153792D01*
X142630880Y-124095667D01*
X142807469Y-124001278D01*
X142962252Y-123874252D01*
X143089278Y-123719469D01*
X143183667Y-123542880D01*
X143241792Y-123351269D01*
X143261418Y-123152000D01*
X143241792Y-122952731D01*
X143183667Y-122761120D01*
X143089278Y-122584531D01*
X142962252Y-122429748D01*
X142807469Y-122302722D01*
X142630880Y-122208333D01*
X142518398Y-122174211D01*
X142439273Y-122150209D01*
X142439271Y-122150208D01*
X142439269Y-122150208D01*
X142240000Y-122130582D01*
X142040731Y-122150208D01*
X142040728Y-122150208D01*
X142040726Y-122150209D01*
X141849120Y-122208333D01*
X141849116Y-122208335D01*
X141672530Y-122302722D01*
X141517750Y-122429746D01*
X141517746Y-122429750D01*
X141390722Y-122584530D01*
X141296335Y-122761116D01*
X141296333Y-122761120D01*
X141238209Y-122952726D01*
X141238208Y-122952728D01*
X141238208Y-122952731D01*
X141218582Y-123152000D01*
X139865600Y-123152000D01*
X139865600Y-120652000D01*
X141218582Y-120652000D01*
X141238208Y-120851269D01*
X141296333Y-121042880D01*
X141390722Y-121219469D01*
X141517748Y-121374252D01*
X141672531Y-121501278D01*
X141849120Y-121595667D01*
X142040731Y-121653792D01*
X142240000Y-121673418D01*
X142439269Y-121653792D01*
X142630880Y-121595667D01*
X142807469Y-121501278D01*
X142962252Y-121374252D01*
X143089278Y-121219469D01*
X143183667Y-121042880D01*
X143241792Y-120851269D01*
X143261418Y-120652000D01*
X143241792Y-120452731D01*
X143183667Y-120261120D01*
X143089278Y-120084531D01*
X142962252Y-119929748D01*
X142807469Y-119802722D01*
X142630880Y-119708333D01*
X142518398Y-119674211D01*
X142439273Y-119650209D01*
X142439271Y-119650208D01*
X142439269Y-119650208D01*
X142240000Y-119630582D01*
X142040731Y-119650208D01*
X142040728Y-119650208D01*
X142040726Y-119650209D01*
X141849120Y-119708333D01*
X141849116Y-119708335D01*
X141672530Y-119802722D01*
X141517750Y-119929746D01*
X141517746Y-119929750D01*
X141390722Y-120084530D01*
X141296335Y-120261116D01*
X141296333Y-120261120D01*
X141238209Y-120452726D01*
X141238208Y-120452728D01*
X141238208Y-120452731D01*
X141218582Y-120652000D01*
X139865600Y-120652000D01*
X139865600Y-118152000D01*
X141218582Y-118152000D01*
X141238208Y-118351269D01*
X141296333Y-118542880D01*
X141390722Y-118719469D01*
X141517748Y-118874252D01*
X141672531Y-119001278D01*
X141849120Y-119095667D01*
X142040731Y-119153792D01*
X142240000Y-119173418D01*
X142439269Y-119153792D01*
X142630880Y-119095667D01*
X142807469Y-119001278D01*
X142962252Y-118874252D01*
X143089278Y-118719469D01*
X143183667Y-118542880D01*
X143241792Y-118351269D01*
X143261418Y-118152000D01*
X143241792Y-117952731D01*
X143183667Y-117761120D01*
X143089278Y-117584531D01*
X142962252Y-117429748D01*
X142807469Y-117302722D01*
X142630880Y-117208333D01*
X142518398Y-117174211D01*
X142439273Y-117150209D01*
X142439271Y-117150208D01*
X142439269Y-117150208D01*
X142240000Y-117130582D01*
X142040731Y-117150208D01*
X142040728Y-117150208D01*
X142040726Y-117150209D01*
X141849120Y-117208333D01*
X141849116Y-117208335D01*
X141672530Y-117302722D01*
X141517750Y-117429746D01*
X141517746Y-117429750D01*
X141390722Y-117584530D01*
X141296335Y-117761116D01*
X141296333Y-117761120D01*
X141238209Y-117952726D01*
X141238208Y-117952728D01*
X141238208Y-117952731D01*
X141218582Y-118152000D01*
X139865600Y-118152000D01*
X139865600Y-115652000D01*
X141218582Y-115652000D01*
X141238208Y-115851269D01*
X141296333Y-116042880D01*
X141390722Y-116219469D01*
X141517748Y-116374252D01*
X141672531Y-116501278D01*
X141849120Y-116595667D01*
X142040731Y-116653792D01*
X142240000Y-116673418D01*
X142439269Y-116653792D01*
X142630880Y-116595667D01*
X142807469Y-116501278D01*
X142962252Y-116374252D01*
X143089278Y-116219469D01*
X143183667Y-116042880D01*
X143241792Y-115851269D01*
X143261418Y-115652000D01*
X143241792Y-115452731D01*
X143183667Y-115261120D01*
X143089278Y-115084531D01*
X142962252Y-114929748D01*
X142807469Y-114802722D01*
X142630880Y-114708333D01*
X142518398Y-114674211D01*
X142439273Y-114650209D01*
X142439271Y-114650208D01*
X142439269Y-114650208D01*
X142240000Y-114630582D01*
X142040731Y-114650208D01*
X142040728Y-114650208D01*
X142040726Y-114650209D01*
X141849120Y-114708333D01*
X141849116Y-114708335D01*
X141672530Y-114802722D01*
X141517750Y-114929746D01*
X141517746Y-114929750D01*
X141390722Y-115084530D01*
X141296335Y-115261116D01*
X141296333Y-115261120D01*
X141238209Y-115452726D01*
X141238208Y-115452728D01*
X141238208Y-115452731D01*
X141218582Y-115652000D01*
X139865600Y-115652000D01*
X139865600Y-113152000D01*
X141218582Y-113152000D01*
X141238208Y-113351269D01*
X141296333Y-113542880D01*
X141390722Y-113719469D01*
X141517748Y-113874252D01*
X141672531Y-114001278D01*
X141849120Y-114095667D01*
X142040731Y-114153792D01*
X142240000Y-114173418D01*
X142439269Y-114153792D01*
X142630880Y-114095667D01*
X142807469Y-114001278D01*
X142962252Y-113874252D01*
X143089278Y-113719469D01*
X143183667Y-113542880D01*
X143241792Y-113351269D01*
X143261418Y-113152000D01*
X143241792Y-112952731D01*
X143183667Y-112761120D01*
X143089278Y-112584531D01*
X142962252Y-112429748D01*
X142807469Y-112302722D01*
X142630880Y-112208333D01*
X142518398Y-112174211D01*
X142439273Y-112150209D01*
X142439271Y-112150208D01*
X142439269Y-112150208D01*
X142240000Y-112130582D01*
X142040731Y-112150208D01*
X142040728Y-112150208D01*
X142040726Y-112150209D01*
X141849120Y-112208333D01*
X141849116Y-112208335D01*
X141672530Y-112302722D01*
X141517750Y-112429746D01*
X141517746Y-112429750D01*
X141390722Y-112584530D01*
X141296335Y-112761116D01*
X141296333Y-112761120D01*
X141238209Y-112952726D01*
X141238208Y-112952728D01*
X141238208Y-112952731D01*
X141218582Y-113152000D01*
X139865600Y-113152000D01*
X139865600Y-110652000D01*
X141218582Y-110652000D01*
X141238208Y-110851269D01*
X141296333Y-111042880D01*
X141390722Y-111219469D01*
X141517748Y-111374252D01*
X141672531Y-111501278D01*
X141849120Y-111595667D01*
X142040731Y-111653792D01*
X142240000Y-111673418D01*
X142439269Y-111653792D01*
X142630880Y-111595667D01*
X142807469Y-111501278D01*
X142962252Y-111374252D01*
X143089278Y-111219469D01*
X143183667Y-111042880D01*
X143241792Y-110851269D01*
X143261418Y-110652000D01*
X143241792Y-110452731D01*
X143183667Y-110261120D01*
X143089278Y-110084531D01*
X142962252Y-109929748D01*
X142807469Y-109802722D01*
X142630880Y-109708333D01*
X142518398Y-109674211D01*
X142439273Y-109650209D01*
X142439271Y-109650208D01*
X142439269Y-109650208D01*
X142240000Y-109630582D01*
X142040731Y-109650208D01*
X142040728Y-109650208D01*
X142040726Y-109650209D01*
X141849120Y-109708333D01*
X141849116Y-109708335D01*
X141672530Y-109802722D01*
X141517750Y-109929746D01*
X141517746Y-109929750D01*
X141390722Y-110084530D01*
X141296335Y-110261116D01*
X141296333Y-110261120D01*
X141238209Y-110452726D01*
X141238208Y-110452728D01*
X141238208Y-110452731D01*
X141218582Y-110652000D01*
X139865600Y-110652000D01*
X139865600Y-107925451D01*
X139886165Y-107868950D01*
X139891345Y-107863296D01*
X140324496Y-107430145D01*
X140378990Y-107404734D01*
X140386651Y-107404400D01*
X141352703Y-107404400D01*
X141409204Y-107424965D01*
X141439268Y-107477036D01*
X141428827Y-107536250D01*
X141420655Y-107548057D01*
X141406350Y-107565487D01*
X141390722Y-107584530D01*
X141296335Y-107761116D01*
X141296333Y-107761120D01*
X141238209Y-107952726D01*
X141238208Y-107952728D01*
X141238208Y-107952731D01*
X141218582Y-108152000D01*
X141238208Y-108351269D01*
X141296333Y-108542880D01*
X141390722Y-108719469D01*
X141517748Y-108874252D01*
X141672531Y-109001278D01*
X141849120Y-109095667D01*
X142040731Y-109153792D01*
X142240000Y-109173418D01*
X142439269Y-109153792D01*
X142630880Y-109095667D01*
X142807469Y-109001278D01*
X142962252Y-108874252D01*
X143089278Y-108719469D01*
X143183667Y-108542880D01*
X143241792Y-108351269D01*
X143261418Y-108152000D01*
X143241792Y-107952731D01*
X143183667Y-107761120D01*
X143089278Y-107584531D01*
X143059348Y-107548061D01*
X143039402Y-107491341D01*
X143060582Y-107435068D01*
X143112978Y-107405574D01*
X143127297Y-107404400D01*
X145814100Y-107404400D01*
X145817914Y-107404566D01*
X145853654Y-107407693D01*
X145861389Y-107408370D01*
X145861389Y-107408369D01*
X145861391Y-107408370D01*
X145903549Y-107397072D01*
X145907271Y-107396247D01*
X145950261Y-107388668D01*
X145953520Y-107386785D01*
X145974727Y-107378002D01*
X145974732Y-107378000D01*
X145978366Y-107377027D01*
X146014127Y-107351985D01*
X146017336Y-107349940D01*
X146055138Y-107328117D01*
X146083183Y-107294693D01*
X146085769Y-107291871D01*
X146417962Y-106959678D01*
X146760347Y-106617292D01*
X146814840Y-106591882D01*
X146848017Y-106595333D01*
X147040724Y-106653790D01*
X147040731Y-106653792D01*
X147240000Y-106673418D01*
X147439269Y-106653792D01*
X147630880Y-106595667D01*
X147807469Y-106501278D01*
X147962252Y-106374252D01*
X148089278Y-106219469D01*
X148183667Y-106042880D01*
X148241792Y-105851269D01*
X148261418Y-105652000D01*
X148241792Y-105452731D01*
X148183667Y-105261120D01*
X148089278Y-105084531D01*
X147962252Y-104929748D01*
X147917775Y-104893247D01*
X147887146Y-104841507D01*
X147896941Y-104782183D01*
X147942576Y-104743034D01*
X147973539Y-104737400D01*
X149659145Y-104737400D01*
X149715646Y-104757965D01*
X149745710Y-104810036D01*
X149746293Y-104836773D01*
X149727674Y-104978199D01*
X149727674Y-104978200D01*
X149746896Y-105124207D01*
X149803253Y-105260263D01*
X149803257Y-105260270D01*
X149892897Y-105377090D01*
X149892899Y-105377092D01*
X149892903Y-105377097D01*
X149892907Y-105377100D01*
X149892909Y-105377102D01*
X150009729Y-105466742D01*
X150009734Y-105466745D01*
X150009737Y-105466747D01*
X150089435Y-105499759D01*
X150145792Y-105523104D01*
X150163923Y-105525490D01*
X150202172Y-105530526D01*
X150255506Y-105558289D01*
X150278516Y-105613839D01*
X150278600Y-105617674D01*
X150278600Y-109498401D01*
X150258035Y-109554902D01*
X150205964Y-109584966D01*
X150179227Y-109585549D01*
X150063200Y-109570274D01*
X149917192Y-109589496D01*
X149781136Y-109645853D01*
X149781129Y-109645857D01*
X149664309Y-109735497D01*
X149664297Y-109735509D01*
X149574657Y-109852329D01*
X149574653Y-109852336D01*
X149518296Y-109988392D01*
X149499074Y-110134399D01*
X149499074Y-110134401D01*
X149502546Y-110160777D01*
X149489531Y-110219479D01*
X149477553Y-110234404D01*
X148968729Y-110743228D01*
X148965901Y-110745818D01*
X148932485Y-110773859D01*
X148932483Y-110773861D01*
X148910667Y-110811646D01*
X148908608Y-110814878D01*
X148883572Y-110850634D01*
X148883572Y-110850636D01*
X148882593Y-110854288D01*
X148873821Y-110875467D01*
X148871933Y-110878737D01*
X148871931Y-110878743D01*
X148864352Y-110921717D01*
X148863523Y-110925459D01*
X148852229Y-110967611D01*
X148854296Y-110991229D01*
X148856033Y-111011086D01*
X148856200Y-111014898D01*
X148856200Y-112124100D01*
X148856033Y-112127914D01*
X148854482Y-112145641D01*
X148852229Y-112171389D01*
X148852229Y-112171391D01*
X148863522Y-112213538D01*
X148864352Y-112217281D01*
X148871931Y-112260261D01*
X148873816Y-112263525D01*
X148882595Y-112284717D01*
X148883573Y-112288368D01*
X148908603Y-112324113D01*
X148910664Y-112327348D01*
X148925114Y-112352374D01*
X148930239Y-112361252D01*
X148932484Y-112365139D01*
X148965898Y-112393177D01*
X148968726Y-112395768D01*
X149262255Y-112689296D01*
X149287666Y-112743790D01*
X149288000Y-112751451D01*
X149288000Y-133704748D01*
X149267435Y-133761249D01*
X149262255Y-133766903D01*
X145514329Y-137514828D01*
X145511501Y-137517418D01*
X145478085Y-137545459D01*
X145478083Y-137545461D01*
X145456267Y-137583246D01*
X145454208Y-137586478D01*
X145429172Y-137622234D01*
X145429172Y-137622236D01*
X145428193Y-137625888D01*
X145419421Y-137647067D01*
X145417533Y-137650337D01*
X145417531Y-137650343D01*
X145409952Y-137693317D01*
X145409123Y-137697059D01*
X145397829Y-137739211D01*
X145399896Y-137762829D01*
X145401633Y-137782686D01*
X145401800Y-137786498D01*
X145401800Y-141840300D01*
X145401633Y-141844114D01*
X145400787Y-141853792D01*
X145397829Y-141887589D01*
X145397829Y-141887591D01*
X145409122Y-141929738D01*
X145409952Y-141933481D01*
X145417531Y-141976461D01*
X145419416Y-141979725D01*
X145428195Y-142000917D01*
X145429173Y-142004568D01*
X145454203Y-142040313D01*
X145456264Y-142043548D01*
X145478084Y-142081339D01*
X145511498Y-142109377D01*
X145514326Y-142111968D01*
X146274706Y-142872347D01*
X146300117Y-142926841D01*
X146296666Y-142960018D01*
X146238209Y-143152724D01*
X146238208Y-143152729D01*
X146238208Y-143152731D01*
X146218582Y-143352000D01*
X146238208Y-143551269D01*
X146296333Y-143742880D01*
X146390722Y-143919469D01*
X146517748Y-144074252D01*
X146672531Y-144201278D01*
X146849120Y-144295667D01*
X147040731Y-144353792D01*
X147240000Y-144373418D01*
X147439269Y-144353792D01*
X147630880Y-144295667D01*
X147807469Y-144201278D01*
X147962252Y-144074252D01*
X148089278Y-143919469D01*
X148183667Y-143742880D01*
X148241792Y-143551269D01*
X148261418Y-143352000D01*
X148241792Y-143152731D01*
X148183667Y-142961120D01*
X148089278Y-142784531D01*
X147962252Y-142629748D01*
X147807469Y-142502722D01*
X147630880Y-142408333D01*
X147518398Y-142374211D01*
X147439273Y-142350209D01*
X147439271Y-142350208D01*
X147439269Y-142350208D01*
X147240000Y-142330582D01*
X147040731Y-142350208D01*
X147040729Y-142350208D01*
X147040724Y-142350209D01*
X146848018Y-142408666D01*
X146787980Y-142405388D01*
X146760347Y-142386706D01*
X146613641Y-142240000D01*
X152648582Y-142240000D01*
X152668208Y-142439269D01*
X152726333Y-142630880D01*
X152820722Y-142807469D01*
X152947748Y-142962252D01*
X153102531Y-143089278D01*
X153279120Y-143183667D01*
X153470731Y-143241792D01*
X153670000Y-143261418D01*
X153869269Y-143241792D01*
X154060880Y-143183667D01*
X154237469Y-143089278D01*
X154392252Y-142962252D01*
X154519278Y-142807469D01*
X154613667Y-142630880D01*
X154671792Y-142439269D01*
X154691418Y-142240000D01*
X154671792Y-142040731D01*
X154613667Y-141849120D01*
X154519278Y-141672531D01*
X154392252Y-141517748D01*
X154237469Y-141390722D01*
X154060880Y-141296333D01*
X153948398Y-141262211D01*
X153869273Y-141238209D01*
X153869271Y-141238208D01*
X153869269Y-141238208D01*
X153670000Y-141218582D01*
X153470731Y-141238208D01*
X153470728Y-141238208D01*
X153470726Y-141238209D01*
X153279120Y-141296333D01*
X153279116Y-141296335D01*
X153102530Y-141390722D01*
X152947750Y-141517746D01*
X152947746Y-141517750D01*
X152820722Y-141672530D01*
X152726335Y-141849116D01*
X152726333Y-141849120D01*
X152668209Y-142040726D01*
X152668208Y-142040728D01*
X152668208Y-142040731D01*
X152648582Y-142240000D01*
X146613641Y-142240000D01*
X146114345Y-141740704D01*
X146088934Y-141686210D01*
X146088600Y-141678549D01*
X146088600Y-141150650D01*
X146109165Y-141094149D01*
X146161236Y-141064085D01*
X146220450Y-141074526D01*
X146259099Y-141120586D01*
X146260613Y-141125129D01*
X146296333Y-141242880D01*
X146390722Y-141419469D01*
X146517748Y-141574252D01*
X146672531Y-141701278D01*
X146849120Y-141795667D01*
X147040731Y-141853792D01*
X147240000Y-141873418D01*
X147439269Y-141853792D01*
X147630880Y-141795667D01*
X147807469Y-141701278D01*
X147962252Y-141574252D01*
X148089278Y-141419469D01*
X148183667Y-141242880D01*
X148241792Y-141051269D01*
X148261418Y-140852000D01*
X148241792Y-140652731D01*
X148183667Y-140461120D01*
X148089278Y-140284531D01*
X147962252Y-140129748D01*
X147807469Y-140002722D01*
X147630880Y-139908333D01*
X147518398Y-139874211D01*
X147439273Y-139850209D01*
X147439271Y-139850208D01*
X147439269Y-139850208D01*
X147240000Y-139830582D01*
X147040731Y-139850208D01*
X147040729Y-139850208D01*
X147040724Y-139850209D01*
X146848018Y-139908666D01*
X146787980Y-139905388D01*
X146760347Y-139886706D01*
X146444545Y-139570904D01*
X146419134Y-139516410D01*
X146418800Y-139508749D01*
X146418800Y-139178895D01*
X146439365Y-139122394D01*
X146491436Y-139092330D01*
X146550650Y-139102771D01*
X146562452Y-139110939D01*
X146672531Y-139201278D01*
X146849120Y-139295667D01*
X147040731Y-139353792D01*
X147240000Y-139373418D01*
X147439269Y-139353792D01*
X147630880Y-139295667D01*
X147807469Y-139201278D01*
X147962252Y-139074252D01*
X148089278Y-138919469D01*
X148183667Y-138742880D01*
X148241792Y-138551269D01*
X148261418Y-138352000D01*
X148241792Y-138152731D01*
X148183667Y-137961120D01*
X148089278Y-137784531D01*
X147962252Y-137629748D01*
X147807469Y-137502722D01*
X147670906Y-137429727D01*
X147630772Y-137384957D01*
X147628805Y-137324862D01*
X147650186Y-137290054D01*
X150128545Y-134811696D01*
X150183039Y-134786285D01*
X150241117Y-134801848D01*
X150275605Y-134851101D01*
X150278600Y-134873851D01*
X150278600Y-136635100D01*
X150278433Y-136638914D01*
X150276882Y-136656641D01*
X150274629Y-136682389D01*
X150274629Y-136682391D01*
X150285922Y-136724538D01*
X150286752Y-136728281D01*
X150294331Y-136771261D01*
X150296216Y-136774525D01*
X150304995Y-136795717D01*
X150305973Y-136799368D01*
X150331003Y-136835113D01*
X150333064Y-136838348D01*
X150354884Y-136876139D01*
X150388298Y-136904177D01*
X150391126Y-136906768D01*
X152704706Y-139220347D01*
X152730117Y-139274841D01*
X152726666Y-139308018D01*
X152668209Y-139500724D01*
X152668208Y-139500729D01*
X152668208Y-139500731D01*
X152648582Y-139700000D01*
X152668208Y-139899269D01*
X152668208Y-139899271D01*
X152668209Y-139899273D01*
X152678052Y-139931721D01*
X152726333Y-140090880D01*
X152820722Y-140267469D01*
X152947748Y-140422252D01*
X153102531Y-140549278D01*
X153279120Y-140643667D01*
X153470731Y-140701792D01*
X153670000Y-140721418D01*
X153869269Y-140701792D01*
X154060880Y-140643667D01*
X154237469Y-140549278D01*
X154392252Y-140422252D01*
X154519278Y-140267469D01*
X154613667Y-140090880D01*
X154671792Y-139899269D01*
X154691418Y-139700000D01*
X154671792Y-139500731D01*
X154613667Y-139309120D01*
X154519278Y-139132531D01*
X154392252Y-138977748D01*
X154237469Y-138850722D01*
X154060880Y-138756333D01*
X153948398Y-138722211D01*
X153869273Y-138698209D01*
X153869271Y-138698208D01*
X153869269Y-138698208D01*
X153670000Y-138678582D01*
X153470731Y-138698208D01*
X153470729Y-138698208D01*
X153470724Y-138698209D01*
X153278018Y-138756666D01*
X153217980Y-138753388D01*
X153190347Y-138734706D01*
X150991145Y-136535504D01*
X150965734Y-136481010D01*
X150965400Y-136473349D01*
X150965400Y-135153251D01*
X150985965Y-135096750D01*
X151038036Y-135066686D01*
X151097250Y-135077127D01*
X151115455Y-135091096D01*
X152704706Y-136680347D01*
X152730117Y-136734841D01*
X152726666Y-136768018D01*
X152668209Y-136960724D01*
X152668208Y-136960729D01*
X152668208Y-136960731D01*
X152648582Y-137160000D01*
X152668208Y-137359269D01*
X152668208Y-137359271D01*
X152668209Y-137359273D01*
X152683092Y-137408335D01*
X152726333Y-137550880D01*
X152820722Y-137727469D01*
X152947748Y-137882252D01*
X153102531Y-138009278D01*
X153279120Y-138103667D01*
X153470731Y-138161792D01*
X153670000Y-138181418D01*
X153869269Y-138161792D01*
X154060880Y-138103667D01*
X154237469Y-138009278D01*
X154392252Y-137882252D01*
X154519278Y-137727469D01*
X154613667Y-137550880D01*
X154671792Y-137359269D01*
X154691418Y-137160000D01*
X154671792Y-136960731D01*
X154613667Y-136769120D01*
X154519278Y-136592531D01*
X154392252Y-136437748D01*
X154237469Y-136310722D01*
X154060880Y-136216333D01*
X153948398Y-136182211D01*
X153869273Y-136158209D01*
X153869271Y-136158208D01*
X153869269Y-136158208D01*
X153670000Y-136138582D01*
X153470731Y-136158208D01*
X153470729Y-136158208D01*
X153470724Y-136158209D01*
X153278018Y-136216666D01*
X153217980Y-136213388D01*
X153190347Y-136194706D01*
X151321345Y-134325704D01*
X151295934Y-134271210D01*
X151295600Y-134263549D01*
X151295600Y-132943450D01*
X151316165Y-132886949D01*
X151368236Y-132856885D01*
X151427450Y-132867326D01*
X151445655Y-132881295D01*
X152704706Y-134140346D01*
X152730117Y-134194840D01*
X152726666Y-134228017D01*
X152668209Y-134420724D01*
X152668208Y-134420729D01*
X152668208Y-134420731D01*
X152648582Y-134620000D01*
X152668208Y-134819269D01*
X152726333Y-135010880D01*
X152820722Y-135187469D01*
X152947748Y-135342252D01*
X153102531Y-135469278D01*
X153279120Y-135563667D01*
X153470731Y-135621792D01*
X153670000Y-135641418D01*
X153869269Y-135621792D01*
X154060880Y-135563667D01*
X154237469Y-135469278D01*
X154392252Y-135342252D01*
X154519278Y-135187469D01*
X154613667Y-135010880D01*
X154671792Y-134819269D01*
X154691418Y-134620000D01*
X154671792Y-134420731D01*
X154613667Y-134229120D01*
X154519278Y-134052531D01*
X154392252Y-133897748D01*
X154237469Y-133770722D01*
X154060880Y-133676333D01*
X153948398Y-133642211D01*
X153869273Y-133618209D01*
X153869271Y-133618208D01*
X153869269Y-133618208D01*
X153670000Y-133598582D01*
X153470731Y-133618208D01*
X153470729Y-133618208D01*
X153470724Y-133618209D01*
X153278017Y-133676666D01*
X153217979Y-133673388D01*
X153190346Y-133654706D01*
X152422589Y-132886949D01*
X151651545Y-132115904D01*
X151626134Y-132061410D01*
X151625800Y-132053749D01*
X151625800Y-130733651D01*
X151646365Y-130677150D01*
X151698436Y-130647086D01*
X151757650Y-130657527D01*
X151775855Y-130671496D01*
X152704706Y-131600347D01*
X152730117Y-131654841D01*
X152726666Y-131688018D01*
X152668209Y-131880724D01*
X152668208Y-131880729D01*
X152668208Y-131880731D01*
X152648582Y-132080000D01*
X152668208Y-132279269D01*
X152726333Y-132470880D01*
X152820722Y-132647469D01*
X152947748Y-132802252D01*
X153102531Y-132929278D01*
X153279120Y-133023667D01*
X153470731Y-133081792D01*
X153670000Y-133101418D01*
X153869269Y-133081792D01*
X154060880Y-133023667D01*
X154237469Y-132929278D01*
X154392252Y-132802252D01*
X154519278Y-132647469D01*
X154613667Y-132470880D01*
X154671792Y-132279269D01*
X154691418Y-132080000D01*
X154671792Y-131880731D01*
X154613667Y-131689120D01*
X154519278Y-131512531D01*
X154392252Y-131357748D01*
X154237469Y-131230722D01*
X154060880Y-131136333D01*
X153948398Y-131102211D01*
X153869273Y-131078209D01*
X153869271Y-131078208D01*
X153869269Y-131078208D01*
X153670000Y-131058582D01*
X153470731Y-131078208D01*
X153470729Y-131078208D01*
X153470724Y-131078209D01*
X153278018Y-131136666D01*
X153217980Y-131133388D01*
X153190347Y-131114706D01*
X151981745Y-129906104D01*
X151956334Y-129851610D01*
X151956000Y-129843949D01*
X151956000Y-129540000D01*
X152648582Y-129540000D01*
X152668208Y-129739269D01*
X152726333Y-129930880D01*
X152820722Y-130107469D01*
X152947748Y-130262252D01*
X153102531Y-130389278D01*
X153279120Y-130483667D01*
X153470731Y-130541792D01*
X153670000Y-130561418D01*
X153869269Y-130541792D01*
X154060880Y-130483667D01*
X154237469Y-130389278D01*
X154392252Y-130262252D01*
X154519278Y-130107469D01*
X154613667Y-129930880D01*
X154671792Y-129739269D01*
X154691418Y-129540000D01*
X154671792Y-129340731D01*
X154613667Y-129149120D01*
X154519278Y-128972531D01*
X154392252Y-128817748D01*
X154237469Y-128690722D01*
X154060880Y-128596333D01*
X153948398Y-128562211D01*
X153869273Y-128538209D01*
X153869271Y-128538208D01*
X153869269Y-128538208D01*
X153670000Y-128518582D01*
X153470731Y-128538208D01*
X153470728Y-128538208D01*
X153470726Y-128538209D01*
X153279120Y-128596333D01*
X153279116Y-128596335D01*
X153102530Y-128690722D01*
X152947750Y-128817746D01*
X152947746Y-128817750D01*
X152820722Y-128972530D01*
X152726335Y-129149116D01*
X152726333Y-129149120D01*
X152668209Y-129340726D01*
X152668208Y-129340728D01*
X152668208Y-129340731D01*
X152648582Y-129540000D01*
X151956000Y-129540000D01*
X151956000Y-127000000D01*
X152648582Y-127000000D01*
X152668208Y-127199269D01*
X152668208Y-127199271D01*
X152668209Y-127199273D01*
X152670958Y-127208335D01*
X152726333Y-127390880D01*
X152820722Y-127567469D01*
X152947748Y-127722252D01*
X153102531Y-127849278D01*
X153279120Y-127943667D01*
X153470731Y-128001792D01*
X153670000Y-128021418D01*
X153869269Y-128001792D01*
X154060880Y-127943667D01*
X154237469Y-127849278D01*
X154392252Y-127722252D01*
X154519278Y-127567469D01*
X154613667Y-127390880D01*
X154671792Y-127199269D01*
X154691418Y-127000000D01*
X154671792Y-126800731D01*
X154613667Y-126609120D01*
X154519278Y-126432531D01*
X154392252Y-126277748D01*
X154237469Y-126150722D01*
X154060880Y-126056333D01*
X153948398Y-126022211D01*
X153869273Y-125998209D01*
X153869271Y-125998208D01*
X153869269Y-125998208D01*
X153670000Y-125978582D01*
X153470731Y-125998208D01*
X153470728Y-125998208D01*
X153470726Y-125998209D01*
X153279120Y-126056333D01*
X153279116Y-126056335D01*
X153102530Y-126150722D01*
X152947750Y-126277746D01*
X152947746Y-126277750D01*
X152820722Y-126432530D01*
X152726335Y-126609116D01*
X152726333Y-126609120D01*
X152668209Y-126800726D01*
X152668208Y-126800728D01*
X152668208Y-126800731D01*
X152648582Y-127000000D01*
X151956000Y-127000000D01*
X151956000Y-123443851D01*
X151976565Y-123387350D01*
X152028636Y-123357286D01*
X152087850Y-123367727D01*
X152106055Y-123381696D01*
X152704706Y-123980347D01*
X152730117Y-124034841D01*
X152726666Y-124068018D01*
X152668209Y-124260724D01*
X152668208Y-124260729D01*
X152668208Y-124260731D01*
X152648582Y-124460000D01*
X152668208Y-124659269D01*
X152668208Y-124659271D01*
X152668209Y-124659273D01*
X152683092Y-124708335D01*
X152726333Y-124850880D01*
X152820722Y-125027469D01*
X152947748Y-125182252D01*
X153102531Y-125309278D01*
X153279120Y-125403667D01*
X153470731Y-125461792D01*
X153670000Y-125481418D01*
X153869269Y-125461792D01*
X154060880Y-125403667D01*
X154237469Y-125309278D01*
X154392252Y-125182252D01*
X154519278Y-125027469D01*
X154613667Y-124850880D01*
X154671792Y-124659269D01*
X154691418Y-124460000D01*
X154671792Y-124260731D01*
X154613667Y-124069120D01*
X154519278Y-123892531D01*
X154392252Y-123737748D01*
X154237469Y-123610722D01*
X154060880Y-123516333D01*
X153948398Y-123482211D01*
X153869273Y-123458209D01*
X153869271Y-123458208D01*
X153869269Y-123458208D01*
X153670000Y-123438582D01*
X153470731Y-123458208D01*
X153470729Y-123458208D01*
X153470724Y-123458209D01*
X153278018Y-123516666D01*
X153217980Y-123513388D01*
X153190347Y-123494706D01*
X152311945Y-122616304D01*
X152286534Y-122561810D01*
X152286200Y-122554149D01*
X152286200Y-121920000D01*
X152648582Y-121920000D01*
X152668208Y-122119269D01*
X152668208Y-122119271D01*
X152668209Y-122119273D01*
X152692211Y-122198398D01*
X152726333Y-122310880D01*
X152820722Y-122487469D01*
X152947748Y-122642252D01*
X153102531Y-122769278D01*
X153279120Y-122863667D01*
X153470731Y-122921792D01*
X153670000Y-122941418D01*
X153869269Y-122921792D01*
X154060880Y-122863667D01*
X154237469Y-122769278D01*
X154392252Y-122642252D01*
X154519278Y-122487469D01*
X154613667Y-122310880D01*
X154671792Y-122119269D01*
X154691418Y-121920000D01*
X154671792Y-121720731D01*
X154613667Y-121529120D01*
X154519278Y-121352531D01*
X154392252Y-121197748D01*
X154237469Y-121070722D01*
X154060880Y-120976333D01*
X153948398Y-120942211D01*
X153869273Y-120918209D01*
X153869271Y-120918208D01*
X153869269Y-120918208D01*
X153670000Y-120898582D01*
X153470731Y-120918208D01*
X153470728Y-120918208D01*
X153470726Y-120918209D01*
X153279120Y-120976333D01*
X153279116Y-120976335D01*
X153102530Y-121070722D01*
X152947750Y-121197746D01*
X152947746Y-121197750D01*
X152820722Y-121352530D01*
X152726335Y-121529116D01*
X152726333Y-121529120D01*
X152668209Y-121720726D01*
X152668208Y-121720728D01*
X152668208Y-121720731D01*
X152648582Y-121920000D01*
X152286200Y-121920000D01*
X152286200Y-119380000D01*
X152648582Y-119380000D01*
X152668208Y-119579269D01*
X152726333Y-119770880D01*
X152820722Y-119947469D01*
X152947748Y-120102252D01*
X153102531Y-120229278D01*
X153279120Y-120323667D01*
X153470731Y-120381792D01*
X153670000Y-120401418D01*
X153869269Y-120381792D01*
X154060880Y-120323667D01*
X154237469Y-120229278D01*
X154392252Y-120102252D01*
X154519278Y-119947469D01*
X154613667Y-119770880D01*
X154671792Y-119579269D01*
X154691418Y-119380000D01*
X154671792Y-119180731D01*
X154613667Y-118989120D01*
X154519278Y-118812531D01*
X154392252Y-118657748D01*
X154237469Y-118530722D01*
X154060880Y-118436333D01*
X153948398Y-118402211D01*
X153869273Y-118378209D01*
X153869271Y-118378208D01*
X153869269Y-118378208D01*
X153670000Y-118358582D01*
X153470731Y-118378208D01*
X153470728Y-118378208D01*
X153470726Y-118378209D01*
X153279120Y-118436333D01*
X153279116Y-118436335D01*
X153102530Y-118530722D01*
X152947750Y-118657746D01*
X152947746Y-118657750D01*
X152820722Y-118812530D01*
X152726335Y-118989116D01*
X152726333Y-118989120D01*
X152668209Y-119180726D01*
X152668208Y-119180728D01*
X152668208Y-119180731D01*
X152648582Y-119380000D01*
X152286200Y-119380000D01*
X152286200Y-116840000D01*
X152648582Y-116840000D01*
X152668208Y-117039269D01*
X152726333Y-117230880D01*
X152820722Y-117407469D01*
X152947748Y-117562252D01*
X153102531Y-117689278D01*
X153279120Y-117783667D01*
X153470731Y-117841792D01*
X153670000Y-117861418D01*
X153869269Y-117841792D01*
X154060880Y-117783667D01*
X154237469Y-117689278D01*
X154392252Y-117562252D01*
X154519278Y-117407469D01*
X154613667Y-117230880D01*
X154671792Y-117039269D01*
X154691418Y-116840000D01*
X154671792Y-116640731D01*
X154613667Y-116449120D01*
X154519278Y-116272531D01*
X154392252Y-116117748D01*
X154237469Y-115990722D01*
X154060880Y-115896333D01*
X153948398Y-115862211D01*
X153869273Y-115838209D01*
X153869271Y-115838208D01*
X153869269Y-115838208D01*
X153670000Y-115818582D01*
X153470731Y-115838208D01*
X153470728Y-115838208D01*
X153470726Y-115838209D01*
X153279120Y-115896333D01*
X153279116Y-115896335D01*
X153102530Y-115990722D01*
X152947750Y-116117746D01*
X152947746Y-116117750D01*
X152820722Y-116272530D01*
X152726335Y-116449116D01*
X152726333Y-116449120D01*
X152668209Y-116640726D01*
X152668208Y-116640728D01*
X152668208Y-116640731D01*
X152648582Y-116840000D01*
X152286200Y-116840000D01*
X152286200Y-114300000D01*
X152648582Y-114300000D01*
X152668208Y-114499269D01*
X152726333Y-114690880D01*
X152820722Y-114867469D01*
X152947748Y-115022252D01*
X153102531Y-115149278D01*
X153279120Y-115243667D01*
X153470731Y-115301792D01*
X153670000Y-115321418D01*
X153869269Y-115301792D01*
X154060880Y-115243667D01*
X154237469Y-115149278D01*
X154392252Y-115022252D01*
X154519278Y-114867469D01*
X154613667Y-114690880D01*
X154671792Y-114499269D01*
X154691418Y-114300000D01*
X154671792Y-114100731D01*
X154613667Y-113909120D01*
X154519278Y-113732531D01*
X154392252Y-113577748D01*
X154237469Y-113450722D01*
X154060880Y-113356333D01*
X153948398Y-113322211D01*
X153869273Y-113298209D01*
X153869271Y-113298208D01*
X153869269Y-113298208D01*
X153670000Y-113278582D01*
X153470731Y-113298208D01*
X153470728Y-113298208D01*
X153470726Y-113298209D01*
X153279120Y-113356333D01*
X153279116Y-113356335D01*
X153102530Y-113450722D01*
X152947750Y-113577746D01*
X152947746Y-113577750D01*
X152820722Y-113732530D01*
X152726335Y-113909116D01*
X152726333Y-113909120D01*
X152668209Y-114100726D01*
X152668208Y-114100728D01*
X152668208Y-114100731D01*
X152648582Y-114300000D01*
X152286200Y-114300000D01*
X152286200Y-111760000D01*
X152648582Y-111760000D01*
X152668208Y-111959269D01*
X152726333Y-112150880D01*
X152820722Y-112327469D01*
X152947748Y-112482252D01*
X153102531Y-112609278D01*
X153279120Y-112703667D01*
X153470731Y-112761792D01*
X153670000Y-112781418D01*
X153869269Y-112761792D01*
X154060880Y-112703667D01*
X154237469Y-112609278D01*
X154392252Y-112482252D01*
X154519278Y-112327469D01*
X154613667Y-112150880D01*
X154671792Y-111959269D01*
X154691418Y-111760000D01*
X154671792Y-111560731D01*
X154613667Y-111369120D01*
X154519278Y-111192531D01*
X154392252Y-111037748D01*
X154237469Y-110910722D01*
X154060880Y-110816333D01*
X153920863Y-110773859D01*
X153869273Y-110758209D01*
X153869271Y-110758208D01*
X153869269Y-110758208D01*
X153670000Y-110738582D01*
X153470731Y-110758208D01*
X153470728Y-110758208D01*
X153470726Y-110758209D01*
X153279120Y-110816333D01*
X153279116Y-110816335D01*
X153102530Y-110910722D01*
X152947750Y-111037746D01*
X152947746Y-111037750D01*
X152820722Y-111192530D01*
X152726335Y-111369116D01*
X152726333Y-111369120D01*
X152668209Y-111560726D01*
X152668208Y-111560728D01*
X152668208Y-111560731D01*
X152648582Y-111760000D01*
X152286200Y-111760000D01*
X152286200Y-109220000D01*
X152648582Y-109220000D01*
X152668208Y-109419269D01*
X152668208Y-109419271D01*
X152668209Y-109419273D01*
X152685929Y-109477688D01*
X152726333Y-109610880D01*
X152820722Y-109787469D01*
X152947748Y-109942252D01*
X153102531Y-110069278D01*
X153279120Y-110163667D01*
X153470731Y-110221792D01*
X153670000Y-110241418D01*
X153869269Y-110221792D01*
X154060880Y-110163667D01*
X154237469Y-110069278D01*
X154392252Y-109942252D01*
X154519278Y-109787469D01*
X154613667Y-109610880D01*
X154671792Y-109419269D01*
X154691418Y-109220000D01*
X154671792Y-109020731D01*
X154613667Y-108829120D01*
X154519278Y-108652531D01*
X154392252Y-108497748D01*
X154237469Y-108370722D01*
X154060880Y-108276333D01*
X153948398Y-108242211D01*
X153869273Y-108218209D01*
X153869271Y-108218208D01*
X153869269Y-108218208D01*
X153670000Y-108198582D01*
X153470731Y-108218208D01*
X153470728Y-108218208D01*
X153470726Y-108218209D01*
X153279120Y-108276333D01*
X153279116Y-108276335D01*
X153102530Y-108370722D01*
X152947750Y-108497746D01*
X152947746Y-108497750D01*
X152820722Y-108652530D01*
X152726335Y-108829116D01*
X152726333Y-108829120D01*
X152668209Y-109020726D01*
X152668208Y-109020728D01*
X152668208Y-109020731D01*
X152648582Y-109220000D01*
X152286200Y-109220000D01*
X152286200Y-106680000D01*
X152648582Y-106680000D01*
X152668208Y-106879269D01*
X152726333Y-107070880D01*
X152820722Y-107247469D01*
X152947748Y-107402252D01*
X153102531Y-107529278D01*
X153279120Y-107623667D01*
X153470731Y-107681792D01*
X153670000Y-107701418D01*
X153869269Y-107681792D01*
X154060880Y-107623667D01*
X154237469Y-107529278D01*
X154392252Y-107402252D01*
X154519278Y-107247469D01*
X154613667Y-107070880D01*
X154671792Y-106879269D01*
X154691418Y-106680000D01*
X154671792Y-106480731D01*
X154613667Y-106289120D01*
X154519278Y-106112531D01*
X154392252Y-105957748D01*
X154237469Y-105830722D01*
X154060880Y-105736333D01*
X153948398Y-105702211D01*
X153869273Y-105678209D01*
X153869271Y-105678208D01*
X153869269Y-105678208D01*
X153670000Y-105658582D01*
X153470731Y-105678208D01*
X153470728Y-105678208D01*
X153470726Y-105678209D01*
X153279120Y-105736333D01*
X153279116Y-105736335D01*
X153102530Y-105830722D01*
X152947750Y-105957746D01*
X152947746Y-105957750D01*
X152820722Y-106112530D01*
X152726335Y-106289116D01*
X152726333Y-106289120D01*
X152668209Y-106480726D01*
X152668208Y-106480728D01*
X152668208Y-106480731D01*
X152648582Y-106680000D01*
X152286200Y-106680000D01*
X152286200Y-104140000D01*
X152648582Y-104140000D01*
X152668208Y-104339269D01*
X152726333Y-104530880D01*
X152820722Y-104707469D01*
X152947748Y-104862252D01*
X153102531Y-104989278D01*
X153279120Y-105083667D01*
X153470731Y-105141792D01*
X153670000Y-105161418D01*
X153869269Y-105141792D01*
X154060880Y-105083667D01*
X154237469Y-104989278D01*
X154392252Y-104862252D01*
X154519278Y-104707469D01*
X154613667Y-104530880D01*
X154671792Y-104339269D01*
X154691418Y-104140000D01*
X154671792Y-103940731D01*
X154613667Y-103749120D01*
X154519278Y-103572531D01*
X154392252Y-103417748D01*
X154237469Y-103290722D01*
X154060880Y-103196333D01*
X153914735Y-103152000D01*
X153869273Y-103138209D01*
X153869271Y-103138208D01*
X153869269Y-103138208D01*
X153670000Y-103118582D01*
X153470731Y-103138208D01*
X153470728Y-103138208D01*
X153470726Y-103138209D01*
X153279120Y-103196333D01*
X153279116Y-103196335D01*
X153102530Y-103290722D01*
X152947750Y-103417746D01*
X152947746Y-103417750D01*
X152820722Y-103572530D01*
X152726335Y-103749116D01*
X152726333Y-103749120D01*
X152668209Y-103940726D01*
X152668208Y-103940728D01*
X152668208Y-103940731D01*
X152648582Y-104140000D01*
X152286200Y-104140000D01*
X152286200Y-101600000D01*
X152648582Y-101600000D01*
X152668208Y-101799269D01*
X152726333Y-101990880D01*
X152820722Y-102167469D01*
X152947748Y-102322252D01*
X153102531Y-102449278D01*
X153279120Y-102543667D01*
X153470731Y-102601792D01*
X153670000Y-102621418D01*
X153869269Y-102601792D01*
X154060880Y-102543667D01*
X154237469Y-102449278D01*
X154392252Y-102322252D01*
X154519278Y-102167469D01*
X154613667Y-101990880D01*
X154671792Y-101799269D01*
X154691418Y-101600000D01*
X154671792Y-101400731D01*
X154613667Y-101209120D01*
X154519278Y-101032531D01*
X154392252Y-100877748D01*
X154237469Y-100750722D01*
X154060880Y-100656333D01*
X153948398Y-100622211D01*
X153869273Y-100598209D01*
X153869271Y-100598208D01*
X153869269Y-100598208D01*
X153670000Y-100578582D01*
X153470731Y-100598208D01*
X153470728Y-100598208D01*
X153470726Y-100598209D01*
X153279120Y-100656333D01*
X153279116Y-100656335D01*
X153102530Y-100750722D01*
X152947750Y-100877746D01*
X152947746Y-100877750D01*
X152820722Y-101032530D01*
X152726335Y-101209116D01*
X152726333Y-101209120D01*
X152668209Y-101400726D01*
X152668208Y-101400728D01*
X152668208Y-101400731D01*
X152648582Y-101600000D01*
X152286200Y-101600000D01*
X152286200Y-99060000D01*
X152648582Y-99060000D01*
X152668208Y-99259269D01*
X152726333Y-99450880D01*
X152820722Y-99627469D01*
X152947748Y-99782252D01*
X153102531Y-99909278D01*
X153279120Y-100003667D01*
X153470731Y-100061792D01*
X153670000Y-100081418D01*
X153869269Y-100061792D01*
X154060880Y-100003667D01*
X154237469Y-99909278D01*
X154392252Y-99782252D01*
X154519278Y-99627469D01*
X154613667Y-99450880D01*
X154671792Y-99259269D01*
X154691418Y-99060000D01*
X154671792Y-98860731D01*
X154613667Y-98669120D01*
X154519278Y-98492531D01*
X154392252Y-98337748D01*
X154237469Y-98210722D01*
X154060880Y-98116333D01*
X153948398Y-98082211D01*
X153869273Y-98058209D01*
X153869271Y-98058208D01*
X153869269Y-98058208D01*
X153670000Y-98038582D01*
X153470731Y-98058208D01*
X153470728Y-98058208D01*
X153470726Y-98058209D01*
X153279120Y-98116333D01*
X153279116Y-98116335D01*
X153102530Y-98210722D01*
X152947750Y-98337746D01*
X152947746Y-98337750D01*
X152820722Y-98492530D01*
X152726335Y-98669116D01*
X152726333Y-98669120D01*
X152668209Y-98860726D01*
X152668208Y-98860728D01*
X152668208Y-98860731D01*
X152648582Y-99060000D01*
X152286200Y-99060000D01*
X152286200Y-96520000D01*
X152648582Y-96520000D01*
X152668208Y-96719269D01*
X152726333Y-96910880D01*
X152820722Y-97087469D01*
X152947748Y-97242252D01*
X153102531Y-97369278D01*
X153279120Y-97463667D01*
X153470731Y-97521792D01*
X153670000Y-97541418D01*
X153869269Y-97521792D01*
X154060880Y-97463667D01*
X154237469Y-97369278D01*
X154392252Y-97242252D01*
X154519278Y-97087469D01*
X154613667Y-96910880D01*
X154671792Y-96719269D01*
X154691418Y-96520000D01*
X154671792Y-96320731D01*
X154613667Y-96129120D01*
X154519278Y-95952531D01*
X154392252Y-95797748D01*
X154237469Y-95670722D01*
X154060880Y-95576333D01*
X153948398Y-95542211D01*
X153869273Y-95518209D01*
X153869271Y-95518208D01*
X153869269Y-95518208D01*
X153670000Y-95498582D01*
X153470731Y-95518208D01*
X153470728Y-95518208D01*
X153470726Y-95518209D01*
X153279120Y-95576333D01*
X153279116Y-95576335D01*
X153102530Y-95670722D01*
X152947750Y-95797746D01*
X152947746Y-95797750D01*
X152820722Y-95952530D01*
X152726335Y-96129116D01*
X152726333Y-96129120D01*
X152668209Y-96320726D01*
X152668208Y-96320728D01*
X152668208Y-96320731D01*
X152648582Y-96520000D01*
X152286200Y-96520000D01*
X152286200Y-95292298D01*
X152286366Y-95288486D01*
X152290170Y-95245009D01*
X152278876Y-95202860D01*
X152278045Y-95199115D01*
X152270468Y-95156139D01*
X152268583Y-95152875D01*
X152259799Y-95131668D01*
X152258826Y-95128034D01*
X152233793Y-95092284D01*
X152231739Y-95089061D01*
X152209917Y-95051262D01*
X152176493Y-95023216D01*
X152173672Y-95020630D01*
X151133042Y-93980000D01*
X152648582Y-93980000D01*
X152668208Y-94179269D01*
X152726333Y-94370880D01*
X152820722Y-94547469D01*
X152947748Y-94702252D01*
X153102531Y-94829278D01*
X153279120Y-94923667D01*
X153470731Y-94981792D01*
X153670000Y-95001418D01*
X153869269Y-94981792D01*
X154060880Y-94923667D01*
X154237469Y-94829278D01*
X154392252Y-94702252D01*
X154519278Y-94547469D01*
X154613667Y-94370880D01*
X154671792Y-94179269D01*
X154691418Y-93980000D01*
X154671792Y-93780731D01*
X154613667Y-93589120D01*
X154519278Y-93412531D01*
X154392252Y-93257748D01*
X154237469Y-93130722D01*
X154060880Y-93036333D01*
X153948398Y-93002211D01*
X153869273Y-92978209D01*
X153869271Y-92978208D01*
X153869269Y-92978208D01*
X153670000Y-92958582D01*
X153470731Y-92978208D01*
X153470728Y-92978208D01*
X153470726Y-92978209D01*
X153279120Y-93036333D01*
X153279116Y-93036335D01*
X153102530Y-93130722D01*
X152947750Y-93257746D01*
X152947746Y-93257750D01*
X152820722Y-93412530D01*
X152726335Y-93589116D01*
X152726333Y-93589120D01*
X152668209Y-93780726D01*
X152668208Y-93780728D01*
X152668208Y-93780731D01*
X152648582Y-93980000D01*
X151133042Y-93980000D01*
X148870166Y-91717124D01*
X148867581Y-91714304D01*
X148839538Y-91680883D01*
X148824019Y-91671923D01*
X148801748Y-91659064D01*
X148798513Y-91657003D01*
X148762768Y-91631973D01*
X148759117Y-91630995D01*
X148737925Y-91622216D01*
X148734661Y-91620331D01*
X148691681Y-91612752D01*
X148687938Y-91611922D01*
X148645790Y-91600629D01*
X148620858Y-91602811D01*
X148602314Y-91604433D01*
X148598500Y-91604600D01*
X147927235Y-91604600D01*
X147870734Y-91584035D01*
X147840670Y-91531964D01*
X147851111Y-91472750D01*
X147871470Y-91448753D01*
X147882136Y-91440000D01*
X152648582Y-91440000D01*
X152668208Y-91639269D01*
X152668208Y-91639271D01*
X152668209Y-91639273D01*
X152690967Y-91714296D01*
X152726333Y-91830880D01*
X152820722Y-92007469D01*
X152947748Y-92162252D01*
X153102531Y-92289278D01*
X153279120Y-92383667D01*
X153470731Y-92441792D01*
X153670000Y-92461418D01*
X153869269Y-92441792D01*
X154060880Y-92383667D01*
X154237469Y-92289278D01*
X154392252Y-92162252D01*
X154519278Y-92007469D01*
X154613667Y-91830880D01*
X154671792Y-91639269D01*
X154691418Y-91440000D01*
X154671792Y-91240731D01*
X154613667Y-91049120D01*
X154519278Y-90872531D01*
X154392252Y-90717748D01*
X154237469Y-90590722D01*
X154060880Y-90496333D01*
X153917128Y-90452726D01*
X153869273Y-90438209D01*
X153869271Y-90438208D01*
X153869269Y-90438208D01*
X153670000Y-90418582D01*
X153470731Y-90438208D01*
X153470728Y-90438208D01*
X153470726Y-90438209D01*
X153279120Y-90496333D01*
X153279116Y-90496335D01*
X153102530Y-90590722D01*
X152947750Y-90717746D01*
X152947746Y-90717750D01*
X152820722Y-90872530D01*
X152726335Y-91049116D01*
X152726333Y-91049120D01*
X152668209Y-91240726D01*
X152668208Y-91240728D01*
X152668208Y-91240731D01*
X152648582Y-91440000D01*
X147882136Y-91440000D01*
X147962252Y-91374252D01*
X148089278Y-91219469D01*
X148183667Y-91042880D01*
X148241792Y-90851269D01*
X148261418Y-90652000D01*
X148241792Y-90452731D01*
X148183667Y-90261120D01*
X148089278Y-90084531D01*
X147962252Y-89929748D01*
X147807469Y-89802722D01*
X147630880Y-89708333D01*
X147518398Y-89674211D01*
X147439273Y-89650209D01*
X147439271Y-89650208D01*
X147439269Y-89650208D01*
X147240000Y-89630582D01*
X147040731Y-89650208D01*
X147040728Y-89650208D01*
X147040726Y-89650209D01*
X146849120Y-89708333D01*
X146849116Y-89708335D01*
X146672530Y-89802722D01*
X146517750Y-89929746D01*
X146517746Y-89929750D01*
X146390722Y-90084530D01*
X146296335Y-90261116D01*
X146296333Y-90261120D01*
X146238209Y-90452726D01*
X146238208Y-90452728D01*
X146238208Y-90452731D01*
X146218582Y-90652000D01*
X146238208Y-90851269D01*
X146238208Y-90851271D01*
X146238209Y-90851273D01*
X146244658Y-90872531D01*
X146296333Y-91042880D01*
X146390722Y-91219469D01*
X146517748Y-91374252D01*
X146608528Y-91448753D01*
X146639158Y-91500493D01*
X146629364Y-91559817D01*
X146583728Y-91598966D01*
X146552765Y-91604600D01*
X143714651Y-91604600D01*
X143658150Y-91584035D01*
X143652496Y-91578855D01*
X143205292Y-91131651D01*
X143179881Y-91077157D01*
X143183332Y-91043979D01*
X143183663Y-91042886D01*
X143183667Y-91042880D01*
X143241792Y-90851269D01*
X143261418Y-90652000D01*
X143241792Y-90452731D01*
X143183667Y-90261120D01*
X143089278Y-90084531D01*
X142962252Y-89929748D01*
X142807469Y-89802722D01*
X142630880Y-89708333D01*
X142518398Y-89674211D01*
X142439273Y-89650209D01*
X142439271Y-89650208D01*
X142439269Y-89650208D01*
X142240000Y-89630582D01*
X142040731Y-89650208D01*
X142040728Y-89650208D01*
X142040726Y-89650209D01*
X141849120Y-89708333D01*
X141849116Y-89708335D01*
X141672530Y-89802722D01*
X141517750Y-89929746D01*
X141517746Y-89929750D01*
X141390722Y-90084530D01*
X141296335Y-90261116D01*
X141296333Y-90261120D01*
X141238209Y-90452726D01*
X141238208Y-90452728D01*
X141238208Y-90452731D01*
X141218582Y-90652000D01*
X141238208Y-90851269D01*
X141238208Y-90851271D01*
X141238209Y-90851273D01*
X141244658Y-90872531D01*
X141296333Y-91042880D01*
X141390722Y-91219469D01*
X141517748Y-91374252D01*
X141672531Y-91501278D01*
X141849120Y-91595667D01*
X142040731Y-91653792D01*
X142240000Y-91673418D01*
X142439269Y-91653792D01*
X142630880Y-91595667D01*
X142630886Y-91595663D01*
X142631979Y-91595332D01*
X142692017Y-91598609D01*
X142719651Y-91617292D01*
X143281232Y-92178874D01*
X143283823Y-92181702D01*
X143311861Y-92215117D01*
X143349650Y-92236934D01*
X143352885Y-92238995D01*
X143388634Y-92264027D01*
X143392276Y-92265002D01*
X143413474Y-92273783D01*
X143416739Y-92275668D01*
X143459709Y-92283244D01*
X143463455Y-92284075D01*
X143481266Y-92288846D01*
X143505609Y-92295370D01*
X143542796Y-92292116D01*
X143549082Y-92291567D01*
X143552914Y-92291400D01*
X146445439Y-92291400D01*
X146501940Y-92311965D01*
X146532004Y-92364036D01*
X146521563Y-92423250D01*
X146513391Y-92435056D01*
X146455149Y-92506026D01*
X146390722Y-92584530D01*
X146296335Y-92761116D01*
X146296333Y-92761120D01*
X146238209Y-92952726D01*
X146238208Y-92952728D01*
X146238208Y-92952731D01*
X146218582Y-93152000D01*
X146238208Y-93351269D01*
X146296333Y-93542880D01*
X146390722Y-93719469D01*
X146517748Y-93874252D01*
X146672531Y-94001278D01*
X146849120Y-94095667D01*
X147040731Y-94153792D01*
X147240000Y-94173418D01*
X147439269Y-94153792D01*
X147630880Y-94095667D01*
X147807469Y-94001278D01*
X147962252Y-93874252D01*
X148089278Y-93719469D01*
X148183667Y-93542880D01*
X148241792Y-93351269D01*
X148261418Y-93152000D01*
X148241792Y-92952731D01*
X148183667Y-92761120D01*
X148089278Y-92584531D01*
X147966612Y-92435061D01*
X147946666Y-92378341D01*
X147967846Y-92322068D01*
X148020243Y-92292574D01*
X148034561Y-92291400D01*
X148436749Y-92291400D01*
X148493250Y-92311965D01*
X148498904Y-92317145D01*
X151573655Y-95391896D01*
X151599066Y-95446390D01*
X151599400Y-95454051D01*
X151599400Y-98247349D01*
X151578835Y-98303850D01*
X151526764Y-98333914D01*
X151467550Y-98323473D01*
X151449345Y-98309504D01*
X149835366Y-96695524D01*
X149832781Y-96692704D01*
X149804738Y-96659283D01*
X149789219Y-96650323D01*
X149766948Y-96637464D01*
X149763713Y-96635403D01*
X149727968Y-96610373D01*
X149724317Y-96609395D01*
X149703125Y-96600616D01*
X149699861Y-96598731D01*
X149656881Y-96591152D01*
X149653138Y-96590322D01*
X149610990Y-96579029D01*
X149586058Y-96581211D01*
X149567514Y-96582833D01*
X149563700Y-96583000D01*
X147953555Y-96583000D01*
X147897054Y-96562435D01*
X147866990Y-96510364D01*
X147877431Y-96451150D01*
X147897790Y-96427153D01*
X147962252Y-96374252D01*
X148089278Y-96219469D01*
X148183667Y-96042880D01*
X148241792Y-95851269D01*
X148261418Y-95652000D01*
X148241792Y-95452731D01*
X148183667Y-95261120D01*
X148089278Y-95084531D01*
X147962252Y-94929748D01*
X147807469Y-94802722D01*
X147630880Y-94708333D01*
X147518398Y-94674211D01*
X147439273Y-94650209D01*
X147439271Y-94650208D01*
X147439269Y-94650208D01*
X147240000Y-94630582D01*
X147040731Y-94650208D01*
X147040728Y-94650208D01*
X147040726Y-94650209D01*
X146849120Y-94708333D01*
X146849116Y-94708335D01*
X146672530Y-94802722D01*
X146517750Y-94929746D01*
X146517746Y-94929750D01*
X146390722Y-95084530D01*
X146296335Y-95261116D01*
X146296333Y-95261120D01*
X146238209Y-95452726D01*
X146238208Y-95452728D01*
X146238208Y-95452731D01*
X146218582Y-95652000D01*
X146238208Y-95851269D01*
X146296333Y-96042880D01*
X146390722Y-96219469D01*
X146517748Y-96374252D01*
X146582208Y-96427152D01*
X146612838Y-96478893D01*
X146603044Y-96538217D01*
X146557408Y-96577366D01*
X146526445Y-96583000D01*
X143693051Y-96583000D01*
X143636550Y-96562435D01*
X143630896Y-96557255D01*
X143205292Y-96131651D01*
X143179881Y-96077157D01*
X143183332Y-96043979D01*
X143183663Y-96042886D01*
X143183667Y-96042880D01*
X143241792Y-95851269D01*
X143261418Y-95652000D01*
X143241792Y-95452731D01*
X143183667Y-95261120D01*
X143089278Y-95084531D01*
X142962252Y-94929748D01*
X142807469Y-94802722D01*
X142630880Y-94708333D01*
X142518398Y-94674211D01*
X142439273Y-94650209D01*
X142439271Y-94650208D01*
X142439269Y-94650208D01*
X142240000Y-94630582D01*
X142040731Y-94650208D01*
X142040728Y-94650208D01*
X142040726Y-94650209D01*
X141849120Y-94708333D01*
X141849116Y-94708335D01*
X141672530Y-94802722D01*
X141517750Y-94929746D01*
X141517746Y-94929750D01*
X141390722Y-95084530D01*
X141296335Y-95261116D01*
X141296333Y-95261120D01*
X141238209Y-95452726D01*
X141238208Y-95452728D01*
X141238208Y-95452731D01*
X141218582Y-95652000D01*
X141238208Y-95851269D01*
X141296333Y-96042880D01*
X141390722Y-96219469D01*
X141517748Y-96374252D01*
X141672531Y-96501278D01*
X141849120Y-96595667D01*
X142040731Y-96653792D01*
X142240000Y-96673418D01*
X142439269Y-96653792D01*
X142630880Y-96595667D01*
X142630886Y-96595663D01*
X142631979Y-96595332D01*
X142692017Y-96598609D01*
X142719651Y-96617292D01*
X143259632Y-97157274D01*
X143262223Y-97160102D01*
X143290261Y-97193517D01*
X143328050Y-97215334D01*
X143331285Y-97217395D01*
X143367034Y-97242427D01*
X143370676Y-97243402D01*
X143391874Y-97252183D01*
X143395139Y-97254068D01*
X143438109Y-97261644D01*
X143441855Y-97262475D01*
X143459666Y-97267246D01*
X143484009Y-97273770D01*
X143521196Y-97270516D01*
X143527482Y-97269967D01*
X143531314Y-97269800D01*
X146466982Y-97269800D01*
X146523483Y-97290365D01*
X146553547Y-97342436D01*
X146543106Y-97401650D01*
X146522743Y-97425649D01*
X146517753Y-97429743D01*
X146517746Y-97429750D01*
X146390722Y-97584530D01*
X146296335Y-97761116D01*
X146296333Y-97761120D01*
X146238209Y-97952726D01*
X146238208Y-97952728D01*
X146238208Y-97952731D01*
X146218582Y-98152000D01*
X146238208Y-98351269D01*
X146296333Y-98542880D01*
X146390722Y-98719469D01*
X146517748Y-98874252D01*
X146672531Y-99001278D01*
X146849120Y-99095667D01*
X147040731Y-99153792D01*
X147240000Y-99173418D01*
X147439269Y-99153792D01*
X147630880Y-99095667D01*
X147807469Y-99001278D01*
X147962252Y-98874252D01*
X148089278Y-98719469D01*
X148183667Y-98542880D01*
X148241792Y-98351269D01*
X148261418Y-98152000D01*
X148241792Y-97952731D01*
X148183667Y-97761120D01*
X148089278Y-97584531D01*
X147962252Y-97429748D01*
X147957256Y-97425648D01*
X147926625Y-97373909D01*
X147936418Y-97314585D01*
X147982053Y-97275435D01*
X148013018Y-97269800D01*
X149401949Y-97269800D01*
X149458450Y-97290365D01*
X149464104Y-97295545D01*
X151243455Y-99074896D01*
X151268866Y-99129390D01*
X151269200Y-99137051D01*
X151269200Y-104013149D01*
X151248635Y-104069650D01*
X151196564Y-104099714D01*
X151137350Y-104089273D01*
X151119145Y-104075304D01*
X150876766Y-103832924D01*
X150874181Y-103830104D01*
X150846138Y-103796683D01*
X150821706Y-103782577D01*
X150808348Y-103774864D01*
X150805113Y-103772803D01*
X150769368Y-103747773D01*
X150765717Y-103746795D01*
X150744525Y-103738016D01*
X150741261Y-103736131D01*
X150698281Y-103728552D01*
X150694538Y-103727722D01*
X150652390Y-103716429D01*
X150627458Y-103718611D01*
X150608914Y-103720233D01*
X150605100Y-103720400D01*
X149225851Y-103720400D01*
X149169350Y-103699835D01*
X149163696Y-103694655D01*
X148882945Y-103413904D01*
X148857534Y-103359410D01*
X148857200Y-103351749D01*
X148857200Y-102658299D01*
X148857366Y-102654486D01*
X148861170Y-102611009D01*
X148854075Y-102584530D01*
X148849875Y-102568855D01*
X148849044Y-102565109D01*
X148841468Y-102522139D01*
X148839583Y-102518874D01*
X148830802Y-102497674D01*
X148829827Y-102494034D01*
X148804795Y-102458285D01*
X148802734Y-102455050D01*
X148780917Y-102417262D01*
X148747499Y-102389221D01*
X148744671Y-102386630D01*
X148006566Y-101648524D01*
X148003981Y-101645704D01*
X147975938Y-101612283D01*
X147960419Y-101603323D01*
X147938148Y-101590464D01*
X147934913Y-101588403D01*
X147903761Y-101566590D01*
X147869274Y-101517337D01*
X147874515Y-101457439D01*
X147898415Y-101426640D01*
X147962252Y-101374252D01*
X148089278Y-101219469D01*
X148183667Y-101042880D01*
X148241792Y-100851269D01*
X148261418Y-100652000D01*
X148241792Y-100452731D01*
X148183667Y-100261120D01*
X148089278Y-100084531D01*
X147962252Y-99929748D01*
X147807469Y-99802722D01*
X147630880Y-99708333D01*
X147475676Y-99661252D01*
X147439273Y-99650209D01*
X147439271Y-99650208D01*
X147439269Y-99650208D01*
X147240000Y-99630582D01*
X147040731Y-99650208D01*
X147040728Y-99650208D01*
X147040726Y-99650209D01*
X146849120Y-99708333D01*
X146849116Y-99708335D01*
X146672530Y-99802722D01*
X146517750Y-99929746D01*
X146517746Y-99929750D01*
X146390722Y-100084530D01*
X146296335Y-100261116D01*
X146296333Y-100261120D01*
X146238209Y-100452726D01*
X146238208Y-100452728D01*
X146238208Y-100452731D01*
X146218582Y-100652000D01*
X146238208Y-100851269D01*
X146296333Y-101042880D01*
X146390722Y-101219469D01*
X146517748Y-101374252D01*
X146524938Y-101380153D01*
X146555568Y-101431892D01*
X146545774Y-101491217D01*
X146500138Y-101530366D01*
X146469175Y-101536000D01*
X143646051Y-101536000D01*
X143589550Y-101515435D01*
X143583896Y-101510255D01*
X143205292Y-101131651D01*
X143179881Y-101077157D01*
X143183332Y-101043979D01*
X143183663Y-101042886D01*
X143183667Y-101042880D01*
X143241792Y-100851269D01*
X143261418Y-100652000D01*
X143241792Y-100452731D01*
X143183667Y-100261120D01*
X143089278Y-100084531D01*
X142962252Y-99929748D01*
X142807469Y-99802722D01*
X142630880Y-99708333D01*
X142475676Y-99661252D01*
X142439273Y-99650209D01*
X142439271Y-99650208D01*
X142439269Y-99650208D01*
X142240000Y-99630582D01*
X142040731Y-99650208D01*
X142040728Y-99650208D01*
X142040726Y-99650209D01*
X141849120Y-99708333D01*
X141849116Y-99708335D01*
X141672530Y-99802722D01*
X141517750Y-99929746D01*
X141517746Y-99929750D01*
X141390722Y-100084530D01*
X141296335Y-100261116D01*
X141296333Y-100261120D01*
X141238209Y-100452726D01*
X141238208Y-100452728D01*
X141238208Y-100452731D01*
X141218582Y-100652000D01*
X141238208Y-100851269D01*
X141296333Y-101042880D01*
X141390722Y-101219469D01*
X141517748Y-101374252D01*
X141672531Y-101501278D01*
X141849120Y-101595667D01*
X142040731Y-101653792D01*
X142240000Y-101673418D01*
X142439269Y-101653792D01*
X142630880Y-101595667D01*
X142630886Y-101595663D01*
X142631979Y-101595332D01*
X142692017Y-101598609D01*
X142719651Y-101617292D01*
X143212632Y-102110274D01*
X143215223Y-102113102D01*
X143243261Y-102146517D01*
X143281050Y-102168334D01*
X143284285Y-102170395D01*
X143320034Y-102195427D01*
X143323676Y-102196402D01*
X143344874Y-102205183D01*
X143348139Y-102207068D01*
X143391109Y-102214644D01*
X143394855Y-102215475D01*
X143412666Y-102220246D01*
X143437009Y-102226770D01*
X143474196Y-102223516D01*
X143480482Y-102222967D01*
X143484314Y-102222800D01*
X146524252Y-102222800D01*
X146580753Y-102243365D01*
X146610817Y-102295436D01*
X146600376Y-102354650D01*
X146580017Y-102378645D01*
X146567131Y-102389221D01*
X146517750Y-102429746D01*
X146517746Y-102429750D01*
X146390722Y-102584530D01*
X146295790Y-102762136D01*
X146251019Y-102802271D01*
X146218269Y-102808600D01*
X145937300Y-102808600D01*
X145933485Y-102808433D01*
X145914941Y-102806811D01*
X145890010Y-102804629D01*
X145890009Y-102804629D01*
X145847856Y-102815924D01*
X145844112Y-102816754D01*
X145801143Y-102824330D01*
X145801135Y-102824333D01*
X145797866Y-102826221D01*
X145776680Y-102834996D01*
X145773034Y-102835974D01*
X145737288Y-102861002D01*
X145734055Y-102863062D01*
X145696266Y-102884880D01*
X145696260Y-102884885D01*
X145668222Y-102918298D01*
X145665632Y-102921125D01*
X144714304Y-103872455D01*
X144659810Y-103897866D01*
X144652149Y-103898200D01*
X143128446Y-103898200D01*
X143071945Y-103877635D01*
X143041881Y-103825564D01*
X143052322Y-103766350D01*
X143060494Y-103754542D01*
X143089278Y-103719469D01*
X143183667Y-103542880D01*
X143241792Y-103351269D01*
X143261418Y-103152000D01*
X143241792Y-102952731D01*
X143183667Y-102761120D01*
X143089278Y-102584531D01*
X142962252Y-102429748D01*
X142807469Y-102302722D01*
X142630880Y-102208333D01*
X142518398Y-102174211D01*
X142439273Y-102150209D01*
X142439271Y-102150208D01*
X142439269Y-102150208D01*
X142240000Y-102130582D01*
X142040731Y-102150208D01*
X142040728Y-102150208D01*
X142040726Y-102150209D01*
X141849120Y-102208333D01*
X141849116Y-102208335D01*
X141672530Y-102302722D01*
X141517750Y-102429746D01*
X141517746Y-102429750D01*
X141390722Y-102584530D01*
X141295790Y-102762136D01*
X141251019Y-102802271D01*
X141218269Y-102808600D01*
X140431352Y-102808600D01*
X140427537Y-102808433D01*
X140408993Y-102806811D01*
X140384062Y-102804629D01*
X140384061Y-102804629D01*
X140341908Y-102815924D01*
X140338164Y-102816754D01*
X140295195Y-102824330D01*
X140295187Y-102824333D01*
X140291918Y-102826221D01*
X140270732Y-102834996D01*
X140267086Y-102835974D01*
X140231340Y-102861002D01*
X140228107Y-102863062D01*
X140190318Y-102884880D01*
X140190312Y-102884885D01*
X140162274Y-102918298D01*
X140159683Y-102921125D01*
X138364655Y-104716155D01*
X138310161Y-104741566D01*
X138252083Y-104726003D01*
X138217595Y-104676750D01*
X138214600Y-104654000D01*
X138214600Y-102699450D01*
X138235165Y-102642949D01*
X138240334Y-102637306D01*
X141760347Y-99117292D01*
X141814840Y-99091882D01*
X141848017Y-99095333D01*
X142040724Y-99153790D01*
X142040731Y-99153792D01*
X142240000Y-99173418D01*
X142439269Y-99153792D01*
X142630880Y-99095667D01*
X142807469Y-99001278D01*
X142962252Y-98874252D01*
X143089278Y-98719469D01*
X143183667Y-98542880D01*
X143241792Y-98351269D01*
X143261418Y-98152000D01*
X143241792Y-97952731D01*
X143183667Y-97761120D01*
X143089278Y-97584531D01*
X142962252Y-97429748D01*
X142807469Y-97302722D01*
X142630880Y-97208333D01*
X142471885Y-97160102D01*
X142439273Y-97150209D01*
X142439271Y-97150208D01*
X142439269Y-97150208D01*
X142240000Y-97130582D01*
X142040731Y-97150208D01*
X142040728Y-97150208D01*
X142040726Y-97150209D01*
X141849120Y-97208333D01*
X141849116Y-97208335D01*
X141672530Y-97302722D01*
X141517750Y-97429746D01*
X141517746Y-97429750D01*
X141390722Y-97584530D01*
X141296335Y-97761116D01*
X141296333Y-97761120D01*
X141238209Y-97952726D01*
X141238208Y-97952728D01*
X141238208Y-97952731D01*
X141218582Y-98152000D01*
X141236876Y-98337748D01*
X141238209Y-98351275D01*
X141296666Y-98543980D01*
X141293388Y-98604018D01*
X141274706Y-98631651D01*
X138034455Y-101871903D01*
X137979961Y-101897314D01*
X137921883Y-101881751D01*
X137887395Y-101832498D01*
X137884400Y-101809748D01*
X137884400Y-98029650D01*
X137904965Y-97973149D01*
X137910134Y-97967506D01*
X141760347Y-94117292D01*
X141814840Y-94091882D01*
X141848017Y-94095333D01*
X142040724Y-94153790D01*
X142040731Y-94153792D01*
X142240000Y-94173418D01*
X142439269Y-94153792D01*
X142630880Y-94095667D01*
X142807469Y-94001278D01*
X142962252Y-93874252D01*
X143089278Y-93719469D01*
X143183667Y-93542880D01*
X143241792Y-93351269D01*
X143261418Y-93152000D01*
X143241792Y-92952731D01*
X143183667Y-92761120D01*
X143089278Y-92584531D01*
X142962252Y-92429748D01*
X142807469Y-92302722D01*
X142630880Y-92208333D01*
X142478976Y-92162253D01*
X142439273Y-92150209D01*
X142439271Y-92150208D01*
X142439269Y-92150208D01*
X142240000Y-92130582D01*
X142040731Y-92150208D01*
X142040728Y-92150208D01*
X142040726Y-92150209D01*
X141849120Y-92208333D01*
X141849116Y-92208335D01*
X141672530Y-92302722D01*
X141517750Y-92429746D01*
X141517746Y-92429750D01*
X141390722Y-92584530D01*
X141296335Y-92761116D01*
X141296333Y-92761120D01*
X141238209Y-92952726D01*
X141238208Y-92952728D01*
X141238208Y-92952731D01*
X141218582Y-93152000D01*
X141235422Y-93322984D01*
X141238209Y-93351275D01*
X141296666Y-93543980D01*
X141293388Y-93604018D01*
X141274706Y-93631651D01*
X137704255Y-97202103D01*
X137649761Y-97227514D01*
X137591683Y-97211951D01*
X137557195Y-97162698D01*
X137554200Y-97139948D01*
X137554200Y-92777698D01*
X137554366Y-92773886D01*
X137558170Y-92730409D01*
X137546876Y-92688260D01*
X137546045Y-92684515D01*
X137538468Y-92641539D01*
X137536583Y-92638275D01*
X137527799Y-92617068D01*
X137526826Y-92613434D01*
X137501797Y-92577689D01*
X137499737Y-92574456D01*
X137477917Y-92536662D01*
X137444495Y-92508617D01*
X137441666Y-92506026D01*
X136855292Y-91919651D01*
X136829881Y-91865157D01*
X136833332Y-91831979D01*
X136833663Y-91830886D01*
X136833667Y-91830880D01*
X136891792Y-91639269D01*
X136911418Y-91440000D01*
X136891792Y-91240731D01*
X136833667Y-91049120D01*
X136739278Y-90872531D01*
X136612252Y-90717748D01*
X136457469Y-90590722D01*
X136280880Y-90496333D01*
X136137128Y-90452726D01*
X136089273Y-90438209D01*
X136089271Y-90438208D01*
X136089269Y-90438208D01*
X135890000Y-90418582D01*
X135690731Y-90438208D01*
X135690728Y-90438208D01*
X135690726Y-90438209D01*
X135499120Y-90496333D01*
X135499116Y-90496335D01*
X135322530Y-90590722D01*
X135167750Y-90717746D01*
X135167746Y-90717750D01*
X135040722Y-90872530D01*
X134946335Y-91049116D01*
X134946333Y-91049120D01*
X134888209Y-91240726D01*
X134888208Y-91240728D01*
X134888208Y-91240731D01*
X134868582Y-91440000D01*
X134888208Y-91639269D01*
X134888208Y-91639271D01*
X134888209Y-91639273D01*
X134910967Y-91714296D01*
X134946333Y-91830880D01*
X135040722Y-92007469D01*
X135167748Y-92162252D01*
X135322531Y-92289278D01*
X135499120Y-92383667D01*
X135690731Y-92441792D01*
X135890000Y-92461418D01*
X136089269Y-92441792D01*
X136280880Y-92383667D01*
X136280886Y-92383663D01*
X136281979Y-92383332D01*
X136342017Y-92386609D01*
X136369651Y-92405292D01*
X136841655Y-92877295D01*
X136867066Y-92931789D01*
X136867400Y-92939450D01*
X136867400Y-93322984D01*
X136846835Y-93379485D01*
X136794764Y-93409549D01*
X136735550Y-93399108D01*
X136711552Y-93378747D01*
X136612252Y-93257748D01*
X136457469Y-93130722D01*
X136280880Y-93036333D01*
X136168398Y-93002211D01*
X136089273Y-92978209D01*
X136089271Y-92978208D01*
X136089269Y-92978208D01*
X135890000Y-92958582D01*
X135690731Y-92978208D01*
X135690728Y-92978208D01*
X135690726Y-92978209D01*
X135499120Y-93036333D01*
X135499116Y-93036335D01*
X135322530Y-93130722D01*
X135167750Y-93257746D01*
X135167746Y-93257750D01*
X135040722Y-93412530D01*
X134946335Y-93589116D01*
X134946333Y-93589120D01*
X134888209Y-93780726D01*
X134888208Y-93780728D01*
X134888208Y-93780731D01*
X134868582Y-93980000D01*
X134888208Y-94179269D01*
X134946333Y-94370880D01*
X135040722Y-94547469D01*
X135167748Y-94702252D01*
X135322531Y-94829278D01*
X135499120Y-94923667D01*
X135690731Y-94981792D01*
X135890000Y-95001418D01*
X136089269Y-94981792D01*
X136280880Y-94923667D01*
X136457469Y-94829278D01*
X136612252Y-94702252D01*
X136711554Y-94581250D01*
X136763292Y-94550622D01*
X136822616Y-94560416D01*
X136861766Y-94606052D01*
X136867400Y-94637015D01*
X136867400Y-95862984D01*
X136846835Y-95919485D01*
X136794764Y-95949549D01*
X136735550Y-95939108D01*
X136711552Y-95918747D01*
X136656175Y-95851269D01*
X136612252Y-95797748D01*
X136457469Y-95670722D01*
X136280880Y-95576333D01*
X136168398Y-95542211D01*
X136089273Y-95518209D01*
X136089271Y-95518208D01*
X136089269Y-95518208D01*
X135890000Y-95498582D01*
X135690731Y-95518208D01*
X135690728Y-95518208D01*
X135690726Y-95518209D01*
X135499120Y-95576333D01*
X135499116Y-95576335D01*
X135322530Y-95670722D01*
X135167750Y-95797746D01*
X135167746Y-95797750D01*
X135040722Y-95952530D01*
X134946335Y-96129116D01*
X134946333Y-96129120D01*
X134888209Y-96320726D01*
X134888208Y-96320728D01*
X134888208Y-96320731D01*
X134868582Y-96520000D01*
X134888208Y-96719269D01*
X134946333Y-96910880D01*
X135040722Y-97087469D01*
X135167748Y-97242252D01*
X135322531Y-97369278D01*
X135499120Y-97463667D01*
X135690731Y-97521792D01*
X135890000Y-97541418D01*
X136089269Y-97521792D01*
X136280880Y-97463667D01*
X136457469Y-97369278D01*
X136612252Y-97242252D01*
X136711554Y-97121250D01*
X136763292Y-97090622D01*
X136822616Y-97100416D01*
X136861766Y-97146052D01*
X136867400Y-97177015D01*
X136867400Y-98402984D01*
X136846835Y-98459485D01*
X136794764Y-98489549D01*
X136735550Y-98479108D01*
X136711552Y-98458747D01*
X136623353Y-98351275D01*
X136612252Y-98337748D01*
X136457469Y-98210722D01*
X136280880Y-98116333D01*
X136168398Y-98082211D01*
X136089273Y-98058209D01*
X136089271Y-98058208D01*
X136089269Y-98058208D01*
X135890000Y-98038582D01*
X135690731Y-98058208D01*
X135690728Y-98058208D01*
X135690726Y-98058209D01*
X135499120Y-98116333D01*
X135499116Y-98116335D01*
X135322530Y-98210722D01*
X135167750Y-98337746D01*
X135167746Y-98337750D01*
X135040722Y-98492530D01*
X134946335Y-98669116D01*
X134946333Y-98669120D01*
X134888209Y-98860726D01*
X134888208Y-98860728D01*
X134888208Y-98860731D01*
X134868582Y-99060000D01*
X134888208Y-99259269D01*
X134946333Y-99450880D01*
X135040722Y-99627469D01*
X135167748Y-99782252D01*
X135322531Y-99909278D01*
X135499120Y-100003667D01*
X135690731Y-100061792D01*
X135890000Y-100081418D01*
X136089269Y-100061792D01*
X136280880Y-100003667D01*
X136457469Y-99909278D01*
X136612252Y-99782252D01*
X136711554Y-99661250D01*
X136763292Y-99630622D01*
X136822616Y-99640416D01*
X136861766Y-99686052D01*
X136867400Y-99717015D01*
X136867400Y-100942984D01*
X136846835Y-100999485D01*
X136794764Y-101029549D01*
X136735550Y-101019108D01*
X136711552Y-100998747D01*
X136665789Y-100942984D01*
X136612252Y-100877748D01*
X136457469Y-100750722D01*
X136280880Y-100656333D01*
X136168398Y-100622211D01*
X136089273Y-100598209D01*
X136089271Y-100598208D01*
X136089269Y-100598208D01*
X135890000Y-100578582D01*
X135690731Y-100598208D01*
X135690728Y-100598208D01*
X135690726Y-100598209D01*
X135499120Y-100656333D01*
X135499116Y-100656335D01*
X135322530Y-100750722D01*
X135167750Y-100877746D01*
X135167746Y-100877750D01*
X135040722Y-101032530D01*
X134946335Y-101209116D01*
X134946333Y-101209120D01*
X134888209Y-101400726D01*
X134888208Y-101400728D01*
X134888208Y-101400731D01*
X134868582Y-101600000D01*
X134888208Y-101799269D01*
X134946333Y-101990880D01*
X135040722Y-102167469D01*
X135167748Y-102322252D01*
X135322531Y-102449278D01*
X135499120Y-102543667D01*
X135690731Y-102601792D01*
X135890000Y-102621418D01*
X136089269Y-102601792D01*
X136280880Y-102543667D01*
X136457469Y-102449278D01*
X136612252Y-102322252D01*
X136711554Y-102201250D01*
X136763292Y-102170622D01*
X136822616Y-102180416D01*
X136861766Y-102226052D01*
X136867400Y-102257015D01*
X136867400Y-103482984D01*
X136846835Y-103539485D01*
X136794764Y-103569549D01*
X136735550Y-103559108D01*
X136711552Y-103538747D01*
X136697107Y-103521145D01*
X136612252Y-103417748D01*
X136457469Y-103290722D01*
X136280880Y-103196333D01*
X136134735Y-103152000D01*
X136089273Y-103138209D01*
X136089271Y-103138208D01*
X136089269Y-103138208D01*
X135890000Y-103118582D01*
X135690731Y-103138208D01*
X135690728Y-103138208D01*
X135690726Y-103138209D01*
X135499120Y-103196333D01*
X135499116Y-103196335D01*
X135322530Y-103290722D01*
X135167750Y-103417746D01*
X135167746Y-103417750D01*
X135040722Y-103572530D01*
X134946335Y-103749116D01*
X134946333Y-103749120D01*
X134888209Y-103940726D01*
X134888208Y-103940728D01*
X134888208Y-103940731D01*
X134868582Y-104140000D01*
X134888208Y-104339269D01*
X134946333Y-104530880D01*
X135040722Y-104707469D01*
X135167748Y-104862252D01*
X135322531Y-104989278D01*
X135499120Y-105083667D01*
X135690731Y-105141792D01*
X135890000Y-105161418D01*
X136089269Y-105141792D01*
X136280880Y-105083667D01*
X136457469Y-104989278D01*
X136612252Y-104862252D01*
X136711554Y-104741250D01*
X136763292Y-104710622D01*
X136822616Y-104720416D01*
X136861766Y-104766052D01*
X136867400Y-104797015D01*
X136867400Y-106022984D01*
X136846835Y-106079485D01*
X136794764Y-106109549D01*
X136735550Y-106099108D01*
X136711552Y-106078747D01*
X136683020Y-106043980D01*
X136612252Y-105957748D01*
X136457469Y-105830722D01*
X136280880Y-105736333D01*
X136168398Y-105702211D01*
X136089273Y-105678209D01*
X136089271Y-105678208D01*
X136089269Y-105678208D01*
X135890000Y-105658582D01*
X135690731Y-105678208D01*
X135690728Y-105678208D01*
X135690726Y-105678209D01*
X135499120Y-105736333D01*
X135499116Y-105736335D01*
X135322530Y-105830722D01*
X135167750Y-105957746D01*
X135167746Y-105957750D01*
X135040722Y-106112530D01*
X134946335Y-106289116D01*
X134946333Y-106289120D01*
X134888209Y-106480726D01*
X134888208Y-106480728D01*
X134888208Y-106480731D01*
X134868582Y-106680000D01*
X134888208Y-106879269D01*
X134946333Y-107070880D01*
X135040722Y-107247469D01*
X135167748Y-107402252D01*
X135322531Y-107529278D01*
X135499120Y-107623667D01*
X135690731Y-107681792D01*
X135890000Y-107701418D01*
X136089269Y-107681792D01*
X136280880Y-107623667D01*
X136457469Y-107529278D01*
X136612252Y-107402252D01*
X136711554Y-107281250D01*
X136763292Y-107250622D01*
X136822616Y-107260416D01*
X136861766Y-107306052D01*
X136867400Y-107337015D01*
X136867400Y-108562984D01*
X136846835Y-108619485D01*
X136794764Y-108649549D01*
X136735550Y-108639108D01*
X136711552Y-108618747D01*
X136612252Y-108497748D01*
X136457469Y-108370722D01*
X136280880Y-108276333D01*
X136168398Y-108242211D01*
X136089273Y-108218209D01*
X136089271Y-108218208D01*
X136089269Y-108218208D01*
X135890000Y-108198582D01*
X135690731Y-108218208D01*
X135690728Y-108218208D01*
X135690726Y-108218209D01*
X135499120Y-108276333D01*
X135499116Y-108276335D01*
X135322530Y-108370722D01*
X135167750Y-108497746D01*
X135167746Y-108497750D01*
X135040722Y-108652530D01*
X134946335Y-108829116D01*
X134946333Y-108829120D01*
X134888209Y-109020726D01*
X134888208Y-109020728D01*
X134888208Y-109020731D01*
X134868582Y-109220000D01*
X134888208Y-109419269D01*
X134888208Y-109419271D01*
X134888209Y-109419273D01*
X134905929Y-109477688D01*
X134946333Y-109610880D01*
X135040722Y-109787469D01*
X135167748Y-109942252D01*
X135322531Y-110069278D01*
X135499120Y-110163667D01*
X135690731Y-110221792D01*
X135890000Y-110241418D01*
X136089269Y-110221792D01*
X136280880Y-110163667D01*
X136457469Y-110069278D01*
X136612252Y-109942252D01*
X136711554Y-109821250D01*
X136763292Y-109790622D01*
X136822616Y-109800416D01*
X136861766Y-109846052D01*
X136867400Y-109877015D01*
X136867400Y-111102984D01*
X136846835Y-111159485D01*
X136794764Y-111189549D01*
X136735550Y-111179108D01*
X136711552Y-111158747D01*
X136616466Y-111042883D01*
X136612252Y-111037748D01*
X136457469Y-110910722D01*
X136280880Y-110816333D01*
X136140863Y-110773859D01*
X136089273Y-110758209D01*
X136089271Y-110758208D01*
X136089269Y-110758208D01*
X135890000Y-110738582D01*
X135690731Y-110758208D01*
X135690728Y-110758208D01*
X135690726Y-110758209D01*
X135499120Y-110816333D01*
X135499116Y-110816335D01*
X135322530Y-110910722D01*
X135167750Y-111037746D01*
X135167746Y-111037750D01*
X135040722Y-111192530D01*
X134946335Y-111369116D01*
X134946333Y-111369120D01*
X134888209Y-111560726D01*
X134888208Y-111560728D01*
X134888208Y-111560731D01*
X134868582Y-111760000D01*
X134888208Y-111959269D01*
X134946333Y-112150880D01*
X135040722Y-112327469D01*
X135167748Y-112482252D01*
X135322531Y-112609278D01*
X135499120Y-112703667D01*
X135690731Y-112761792D01*
X135890000Y-112781418D01*
X136089269Y-112761792D01*
X136280880Y-112703667D01*
X136457469Y-112609278D01*
X136612252Y-112482252D01*
X136711554Y-112361250D01*
X136763292Y-112330622D01*
X136822616Y-112340416D01*
X136861766Y-112386052D01*
X136867400Y-112417015D01*
X136867400Y-113642984D01*
X136846835Y-113699485D01*
X136794764Y-113729549D01*
X136735550Y-113719108D01*
X136711552Y-113698747D01*
X136665789Y-113642984D01*
X136612252Y-113577748D01*
X136457469Y-113450722D01*
X136280880Y-113356333D01*
X136168398Y-113322211D01*
X136089273Y-113298209D01*
X136089271Y-113298208D01*
X136089269Y-113298208D01*
X135890000Y-113278582D01*
X135690731Y-113298208D01*
X135690728Y-113298208D01*
X135690726Y-113298209D01*
X135499120Y-113356333D01*
X135499116Y-113356335D01*
X135322530Y-113450722D01*
X135167750Y-113577746D01*
X135167746Y-113577750D01*
X135040722Y-113732530D01*
X134946335Y-113909116D01*
X134946333Y-113909120D01*
X134888209Y-114100726D01*
X134888208Y-114100728D01*
X134888208Y-114100731D01*
X134868582Y-114300000D01*
X134888208Y-114499269D01*
X134946333Y-114690880D01*
X135040722Y-114867469D01*
X135167748Y-115022252D01*
X135322531Y-115149278D01*
X135499120Y-115243667D01*
X135690731Y-115301792D01*
X135890000Y-115321418D01*
X136089269Y-115301792D01*
X136280880Y-115243667D01*
X136457469Y-115149278D01*
X136612252Y-115022252D01*
X136711554Y-114901250D01*
X136763292Y-114870622D01*
X136822616Y-114880416D01*
X136861766Y-114926052D01*
X136867400Y-114957015D01*
X136867400Y-116182984D01*
X136846835Y-116239485D01*
X136794764Y-116269549D01*
X136735550Y-116259108D01*
X136711552Y-116238747D01*
X136612252Y-116117748D01*
X136457469Y-115990722D01*
X136280880Y-115896333D01*
X136168398Y-115862211D01*
X136089273Y-115838209D01*
X136089271Y-115838208D01*
X136089269Y-115838208D01*
X135890000Y-115818582D01*
X135690731Y-115838208D01*
X135690728Y-115838208D01*
X135690726Y-115838209D01*
X135499120Y-115896333D01*
X135499116Y-115896335D01*
X135322530Y-115990722D01*
X135167750Y-116117746D01*
X135167746Y-116117750D01*
X135040722Y-116272530D01*
X134946335Y-116449116D01*
X134946333Y-116449120D01*
X134888209Y-116640726D01*
X134888208Y-116640728D01*
X134888208Y-116640731D01*
X134868582Y-116840000D01*
X134888208Y-117039269D01*
X134946333Y-117230880D01*
X135040722Y-117407469D01*
X135167748Y-117562252D01*
X135322531Y-117689278D01*
X135499120Y-117783667D01*
X135690731Y-117841792D01*
X135890000Y-117861418D01*
X136089269Y-117841792D01*
X136280880Y-117783667D01*
X136457469Y-117689278D01*
X136612252Y-117562252D01*
X136711554Y-117441250D01*
X136763292Y-117410622D01*
X136822616Y-117420416D01*
X136861766Y-117466052D01*
X136867400Y-117497015D01*
X136867400Y-118722984D01*
X136846835Y-118779485D01*
X136794764Y-118809549D01*
X136735550Y-118799108D01*
X136711552Y-118778747D01*
X136665789Y-118722984D01*
X136612252Y-118657748D01*
X136457469Y-118530722D01*
X136280880Y-118436333D01*
X136168398Y-118402211D01*
X136089273Y-118378209D01*
X136089271Y-118378208D01*
X136089269Y-118378208D01*
X135890000Y-118358582D01*
X135690731Y-118378208D01*
X135690728Y-118378208D01*
X135690726Y-118378209D01*
X135499120Y-118436333D01*
X135499116Y-118436335D01*
X135322530Y-118530722D01*
X135167750Y-118657746D01*
X135167746Y-118657750D01*
X135040722Y-118812530D01*
X134946335Y-118989116D01*
X134946333Y-118989120D01*
X134888209Y-119180726D01*
X134888208Y-119180728D01*
X134888208Y-119180731D01*
X134868582Y-119380000D01*
X134888208Y-119579269D01*
X134946333Y-119770880D01*
X135040722Y-119947469D01*
X135167748Y-120102252D01*
X135322531Y-120229278D01*
X135499120Y-120323667D01*
X135690731Y-120381792D01*
X135890000Y-120401418D01*
X136089269Y-120381792D01*
X136280880Y-120323667D01*
X136328430Y-120298250D01*
X136387951Y-120289752D01*
X136439012Y-120321502D01*
X136457718Y-120378646D01*
X136451074Y-120409409D01*
X136411896Y-120503992D01*
X136392674Y-120649999D01*
X136392674Y-120650000D01*
X136411896Y-120796007D01*
X136451074Y-120890590D01*
X136453697Y-120950660D01*
X136417094Y-120998362D01*
X136358392Y-121011376D01*
X136328431Y-121001749D01*
X136280880Y-120976333D01*
X136168398Y-120942211D01*
X136089273Y-120918209D01*
X136089271Y-120918208D01*
X136089269Y-120918208D01*
X135890000Y-120898582D01*
X135690731Y-120918208D01*
X135690728Y-120918208D01*
X135690726Y-120918209D01*
X135499120Y-120976333D01*
X135499116Y-120976335D01*
X135322530Y-121070722D01*
X135167750Y-121197746D01*
X135167746Y-121197750D01*
X135040722Y-121352530D01*
X134946335Y-121529116D01*
X134946333Y-121529120D01*
X134888209Y-121720726D01*
X134888208Y-121720728D01*
X134888208Y-121720731D01*
X134868582Y-121920000D01*
X134888208Y-122119269D01*
X134888208Y-122119271D01*
X134888209Y-122119273D01*
X134912211Y-122198398D01*
X134946333Y-122310880D01*
X135040722Y-122487469D01*
X135167748Y-122642252D01*
X135322531Y-122769278D01*
X135499120Y-122863667D01*
X135690731Y-122921792D01*
X135890000Y-122941418D01*
X136089269Y-122921792D01*
X136280880Y-122863667D01*
X136457469Y-122769278D01*
X136612252Y-122642252D01*
X136739278Y-122487469D01*
X136833667Y-122310880D01*
X136891792Y-122119269D01*
X136911418Y-121920000D01*
X136891792Y-121720731D01*
X136833667Y-121529120D01*
X136739278Y-121352531D01*
X136726694Y-121337198D01*
X136706748Y-121280477D01*
X136727928Y-121224204D01*
X136780325Y-121194710D01*
X136806116Y-121194288D01*
X136810791Y-121194903D01*
X136810793Y-121194904D01*
X136956800Y-121214126D01*
X137098229Y-121195506D01*
X137156928Y-121208520D01*
X137193532Y-121256222D01*
X137197600Y-121282654D01*
X137197600Y-127710348D01*
X137177035Y-127766849D01*
X137171855Y-127772503D01*
X136369651Y-128574706D01*
X136315157Y-128600117D01*
X136281980Y-128596666D01*
X136089275Y-128538209D01*
X136089270Y-128538208D01*
X136089269Y-128538208D01*
X135890000Y-128518582D01*
X135690731Y-128538208D01*
X135690728Y-128538208D01*
X135690726Y-128538209D01*
X135499120Y-128596333D01*
X135499116Y-128596335D01*
X135322530Y-128690722D01*
X135167750Y-128817746D01*
X135167746Y-128817750D01*
X135040722Y-128972530D01*
X134946335Y-129149116D01*
X134946333Y-129149120D01*
X134888209Y-129340726D01*
X134888208Y-129340728D01*
X134888208Y-129340731D01*
X134868582Y-129540000D01*
X134888208Y-129739269D01*
X134946333Y-129930880D01*
X135040722Y-130107469D01*
X135167748Y-130262252D01*
X135322531Y-130389278D01*
X135499120Y-130483667D01*
X135690731Y-130541792D01*
X135890000Y-130561418D01*
X136089269Y-130541792D01*
X136280880Y-130483667D01*
X136457469Y-130389278D01*
X136612252Y-130262252D01*
X136739278Y-130107469D01*
X136833667Y-129930880D01*
X136891792Y-129739269D01*
X136911418Y-129540000D01*
X136891792Y-129340731D01*
X136841038Y-129173418D01*
X136833333Y-129148017D01*
X136836611Y-129087979D01*
X136855290Y-129060349D01*
X137377746Y-128537894D01*
X137432239Y-128512484D01*
X137490317Y-128528047D01*
X137524805Y-128577300D01*
X137527800Y-128600050D01*
X137527800Y-129920148D01*
X137507235Y-129976649D01*
X137502055Y-129982303D01*
X136369651Y-131114706D01*
X136315157Y-131140117D01*
X136281980Y-131136666D01*
X136089275Y-131078209D01*
X136089270Y-131078208D01*
X136089269Y-131078208D01*
X135890000Y-131058582D01*
X135690731Y-131078208D01*
X135690728Y-131078208D01*
X135690726Y-131078209D01*
X135499120Y-131136333D01*
X135499116Y-131136335D01*
X135322530Y-131230722D01*
X135167750Y-131357746D01*
X135167746Y-131357750D01*
X135040722Y-131512530D01*
X134946335Y-131689116D01*
X134946333Y-131689120D01*
X134888209Y-131880726D01*
X134888208Y-131880728D01*
X134888208Y-131880731D01*
X134868582Y-132080000D01*
X134888208Y-132279269D01*
X134946333Y-132470880D01*
X135040722Y-132647469D01*
X135167748Y-132802252D01*
X135322531Y-132929278D01*
X135499120Y-133023667D01*
X135690731Y-133081792D01*
X135890000Y-133101418D01*
X136089269Y-133081792D01*
X136280880Y-133023667D01*
X136457469Y-132929278D01*
X136612252Y-132802252D01*
X136739278Y-132647469D01*
X136833667Y-132470880D01*
X136891792Y-132279269D01*
X136911418Y-132080000D01*
X136891792Y-131880731D01*
X136891790Y-131880724D01*
X136833333Y-131688017D01*
X136836611Y-131627979D01*
X136855290Y-131600349D01*
X137707946Y-130747694D01*
X137762439Y-130722284D01*
X137820517Y-130737847D01*
X137855005Y-130787100D01*
X137858000Y-130809850D01*
X137858000Y-132129948D01*
X137837435Y-132186449D01*
X137832255Y-132192103D01*
X136369651Y-133654706D01*
X136315157Y-133680117D01*
X136281980Y-133676666D01*
X136089275Y-133618209D01*
X136089270Y-133618208D01*
X136089269Y-133618208D01*
X135890000Y-133598582D01*
X135690731Y-133618208D01*
X135690728Y-133618208D01*
X135690726Y-133618209D01*
X135499120Y-133676333D01*
X135499116Y-133676335D01*
X135322530Y-133770722D01*
X135167750Y-133897746D01*
X135167746Y-133897750D01*
X135040722Y-134052530D01*
X134946335Y-134229116D01*
X134946333Y-134229120D01*
X134888209Y-134420726D01*
X134888208Y-134420728D01*
X134888208Y-134420731D01*
X134868582Y-134620000D01*
X134888208Y-134819269D01*
X134946333Y-135010880D01*
X135040722Y-135187469D01*
X135167748Y-135342252D01*
X135322531Y-135469278D01*
X135499120Y-135563667D01*
X135690731Y-135621792D01*
X135890000Y-135641418D01*
X136089269Y-135621792D01*
X136280880Y-135563667D01*
X136457469Y-135469278D01*
X136612252Y-135342252D01*
X136739278Y-135187469D01*
X136833667Y-135010880D01*
X136891792Y-134819269D01*
X136911418Y-134620000D01*
X136891792Y-134420731D01*
X136886081Y-134401903D01*
X136833333Y-134228017D01*
X136836611Y-134167979D01*
X136855290Y-134140349D01*
X138038146Y-132957494D01*
X138092639Y-132932084D01*
X138150717Y-132947647D01*
X138185205Y-132996900D01*
X138188200Y-133019650D01*
X138188200Y-134339748D01*
X138167635Y-134396249D01*
X138162455Y-134401903D01*
X136369651Y-136194706D01*
X136315157Y-136220117D01*
X136281980Y-136216666D01*
X136089275Y-136158209D01*
X136089270Y-136158208D01*
X136089269Y-136158208D01*
X135890000Y-136138582D01*
X135690731Y-136158208D01*
X135690728Y-136158208D01*
X135690726Y-136158209D01*
X135499120Y-136216333D01*
X135499116Y-136216335D01*
X135322530Y-136310722D01*
X135167750Y-136437746D01*
X135167746Y-136437750D01*
X135040722Y-136592530D01*
X134946335Y-136769116D01*
X134946333Y-136769120D01*
X134888209Y-136960726D01*
X134888208Y-136960728D01*
X134888208Y-136960731D01*
X134868582Y-137160000D01*
X134888208Y-137359269D01*
X134888208Y-137359271D01*
X134888209Y-137359273D01*
X134903092Y-137408335D01*
X134946333Y-137550880D01*
X135040722Y-137727469D01*
X135167748Y-137882252D01*
X135322531Y-138009278D01*
X135499120Y-138103667D01*
X135690731Y-138161792D01*
X135890000Y-138181418D01*
X136089269Y-138161792D01*
X136280880Y-138103667D01*
X136457469Y-138009278D01*
X136612252Y-137882252D01*
X136739278Y-137727469D01*
X136833667Y-137550880D01*
X136891792Y-137359269D01*
X136911418Y-137160000D01*
X136891792Y-136960731D01*
X136891790Y-136960724D01*
X136833333Y-136768017D01*
X136836611Y-136707979D01*
X136855290Y-136680349D01*
X138368346Y-135167294D01*
X138422839Y-135141884D01*
X138480917Y-135157447D01*
X138515405Y-135206700D01*
X138518400Y-135229450D01*
X138518400Y-136549548D01*
X138497835Y-136606049D01*
X138492655Y-136611703D01*
X136369651Y-138734706D01*
X136315157Y-138760117D01*
X136281980Y-138756666D01*
X136089275Y-138698209D01*
X136089270Y-138698208D01*
X136089269Y-138698208D01*
X135890000Y-138678582D01*
X135690731Y-138698208D01*
X135690728Y-138698208D01*
X135690726Y-138698209D01*
X135499120Y-138756333D01*
X135499116Y-138756335D01*
X135322530Y-138850722D01*
X135167750Y-138977746D01*
X135167746Y-138977750D01*
X135040722Y-139132530D01*
X134946335Y-139309116D01*
X134946333Y-139309120D01*
X134888209Y-139500726D01*
X134888208Y-139500728D01*
X134888208Y-139500731D01*
X134868582Y-139700000D01*
X134888208Y-139899269D01*
X134888208Y-139899271D01*
X134888209Y-139899273D01*
X134898052Y-139931721D01*
X134946333Y-140090880D01*
X135040722Y-140267469D01*
X135167748Y-140422252D01*
X135322531Y-140549278D01*
X135499120Y-140643667D01*
X135690731Y-140701792D01*
X135890000Y-140721418D01*
X136089269Y-140701792D01*
X136280880Y-140643667D01*
X136457469Y-140549278D01*
X136612252Y-140422252D01*
X136739278Y-140267469D01*
X136833667Y-140090880D01*
X136891792Y-139899269D01*
X136911418Y-139700000D01*
X136891792Y-139500731D01*
X136853172Y-139373418D01*
X136833333Y-139308017D01*
X136836611Y-139247979D01*
X136855290Y-139220349D01*
X138698546Y-137377094D01*
X138753039Y-137351684D01*
X138811117Y-137367247D01*
X138845605Y-137416500D01*
X138848600Y-137439250D01*
X138848600Y-138759348D01*
X138828035Y-138815849D01*
X138822855Y-138821503D01*
X136369651Y-141274706D01*
X136315157Y-141300117D01*
X136281980Y-141296666D01*
X136089275Y-141238209D01*
X136089270Y-141238208D01*
X136089269Y-141238208D01*
X135890000Y-141218582D01*
X135690731Y-141238208D01*
X135690728Y-141238208D01*
X135690726Y-141238209D01*
X135499120Y-141296333D01*
X135499116Y-141296335D01*
X135322530Y-141390722D01*
X135167750Y-141517746D01*
X135167746Y-141517750D01*
X135040722Y-141672530D01*
X134946335Y-141849116D01*
X134946333Y-141849120D01*
X134888209Y-142040726D01*
X134888208Y-142040728D01*
X134888208Y-142040731D01*
X134868582Y-142240000D01*
X134888208Y-142439269D01*
X134946333Y-142630880D01*
X135040722Y-142807469D01*
X135167748Y-142962252D01*
X135322531Y-143089278D01*
X135499120Y-143183667D01*
X135690731Y-143241792D01*
X135890000Y-143261418D01*
X136089269Y-143241792D01*
X136280880Y-143183667D01*
X136457469Y-143089278D01*
X136612252Y-142962252D01*
X136739278Y-142807469D01*
X136833667Y-142630880D01*
X136891792Y-142439269D01*
X136911418Y-142240000D01*
X136891792Y-142040731D01*
X136880822Y-142004568D01*
X136833333Y-141848017D01*
X136836611Y-141787979D01*
X136855290Y-141760349D01*
X139028746Y-139586894D01*
X139083239Y-139561484D01*
X139141317Y-139577047D01*
X139175805Y-139626300D01*
X139178800Y-139649050D01*
X139178800Y-140969148D01*
X139158235Y-141025649D01*
X139153055Y-141031303D01*
X136369651Y-143814706D01*
X136315157Y-143840117D01*
X136281980Y-143836666D01*
X136089275Y-143778209D01*
X136089270Y-143778208D01*
X136089269Y-143778208D01*
X135890000Y-143758582D01*
X135690731Y-143778208D01*
X135690728Y-143778208D01*
X135690726Y-143778209D01*
X135499120Y-143836333D01*
X135499116Y-143836335D01*
X135322530Y-143930722D01*
X135167750Y-144057746D01*
X135167746Y-144057750D01*
X135040722Y-144212530D01*
X134946335Y-144389116D01*
X134946333Y-144389120D01*
X134888209Y-144580726D01*
X134888208Y-144580728D01*
X134888208Y-144580731D01*
X134868582Y-144780000D01*
X130683500Y-144780000D01*
X130683500Y-127000000D01*
X134868582Y-127000000D01*
X134888208Y-127199269D01*
X134888208Y-127199271D01*
X134888209Y-127199273D01*
X134890958Y-127208335D01*
X134946333Y-127390880D01*
X135040722Y-127567469D01*
X135167748Y-127722252D01*
X135322531Y-127849278D01*
X135499120Y-127943667D01*
X135690731Y-128001792D01*
X135890000Y-128021418D01*
X136089269Y-128001792D01*
X136280880Y-127943667D01*
X136457469Y-127849278D01*
X136612252Y-127722252D01*
X136739278Y-127567469D01*
X136833667Y-127390880D01*
X136891792Y-127199269D01*
X136911418Y-127000000D01*
X136891792Y-126800731D01*
X136833667Y-126609120D01*
X136739278Y-126432531D01*
X136612252Y-126277748D01*
X136457469Y-126150722D01*
X136280880Y-126056333D01*
X136168398Y-126022211D01*
X136089273Y-125998209D01*
X136089271Y-125998208D01*
X136089269Y-125998208D01*
X135890000Y-125978582D01*
X135690731Y-125998208D01*
X135690728Y-125998208D01*
X135690726Y-125998209D01*
X135499120Y-126056333D01*
X135499116Y-126056335D01*
X135322530Y-126150722D01*
X135167750Y-126277746D01*
X135167746Y-126277750D01*
X135040722Y-126432530D01*
X134946335Y-126609116D01*
X134946333Y-126609120D01*
X134888209Y-126800726D01*
X134888208Y-126800728D01*
X134888208Y-126800731D01*
X134868582Y-127000000D01*
X130683500Y-127000000D01*
X130683500Y-124460000D01*
X134868582Y-124460000D01*
X134888208Y-124659269D01*
X134888208Y-124659271D01*
X134888209Y-124659273D01*
X134903092Y-124708335D01*
X134946333Y-124850880D01*
X135040722Y-125027469D01*
X135167748Y-125182252D01*
X135322531Y-125309278D01*
X135499120Y-125403667D01*
X135690731Y-125461792D01*
X135890000Y-125481418D01*
X136089269Y-125461792D01*
X136280880Y-125403667D01*
X136457469Y-125309278D01*
X136612252Y-125182252D01*
X136739278Y-125027469D01*
X136833667Y-124850880D01*
X136891792Y-124659269D01*
X136911418Y-124460000D01*
X136891792Y-124260731D01*
X136833667Y-124069120D01*
X136739278Y-123892531D01*
X136612252Y-123737748D01*
X136457469Y-123610722D01*
X136280880Y-123516333D01*
X136168398Y-123482211D01*
X136089273Y-123458209D01*
X136089271Y-123458208D01*
X136089269Y-123458208D01*
X135890000Y-123438582D01*
X135690731Y-123458208D01*
X135690728Y-123458208D01*
X135690726Y-123458209D01*
X135499120Y-123516333D01*
X135499116Y-123516335D01*
X135322530Y-123610722D01*
X135167750Y-123737746D01*
X135167746Y-123737750D01*
X135040722Y-123892530D01*
X134946335Y-124069116D01*
X134946333Y-124069120D01*
X134888209Y-124260726D01*
X134888208Y-124260728D01*
X134888208Y-124260731D01*
X134868582Y-124460000D01*
X130683500Y-124460000D01*
X130683500Y-88900000D01*
X134868582Y-88900000D01*
X134888208Y-89099269D01*
X134946333Y-89290880D01*
X135040722Y-89467469D01*
X135167748Y-89622252D01*
X135322531Y-89749278D01*
X135499120Y-89843667D01*
X135690731Y-89901792D01*
X135890000Y-89921418D01*
X136089269Y-89901792D01*
X136280880Y-89843667D01*
X136457469Y-89749278D01*
X136612252Y-89622252D01*
X136739278Y-89467469D01*
X136833667Y-89290880D01*
X136891792Y-89099269D01*
X136911418Y-88900000D01*
X136891792Y-88700731D01*
X136833667Y-88509120D01*
X136739278Y-88332531D01*
X136612252Y-88177748D01*
X136580878Y-88152000D01*
X141218582Y-88152000D01*
X141238208Y-88351269D01*
X141296333Y-88542880D01*
X141390722Y-88719469D01*
X141517748Y-88874252D01*
X141672531Y-89001278D01*
X141849120Y-89095667D01*
X142040731Y-89153792D01*
X142240000Y-89173418D01*
X142439269Y-89153792D01*
X142630880Y-89095667D01*
X142807469Y-89001278D01*
X142962252Y-88874252D01*
X143089278Y-88719469D01*
X143183667Y-88542880D01*
X143241792Y-88351269D01*
X143261418Y-88152000D01*
X146218582Y-88152000D01*
X146238208Y-88351269D01*
X146296333Y-88542880D01*
X146390722Y-88719469D01*
X146517748Y-88874252D01*
X146672531Y-89001278D01*
X146849120Y-89095667D01*
X147040731Y-89153792D01*
X147240000Y-89173418D01*
X147439269Y-89153792D01*
X147630880Y-89095667D01*
X147807469Y-89001278D01*
X147930878Y-88900000D01*
X152648582Y-88900000D01*
X152668208Y-89099269D01*
X152726333Y-89290880D01*
X152820722Y-89467469D01*
X152947748Y-89622252D01*
X153102531Y-89749278D01*
X153279120Y-89843667D01*
X153470731Y-89901792D01*
X153670000Y-89921418D01*
X153869269Y-89901792D01*
X154060880Y-89843667D01*
X154237469Y-89749278D01*
X154392252Y-89622252D01*
X154519278Y-89467469D01*
X154613667Y-89290880D01*
X154671792Y-89099269D01*
X154691418Y-88900000D01*
X154671792Y-88700731D01*
X154613667Y-88509120D01*
X154519278Y-88332531D01*
X154392252Y-88177748D01*
X154237469Y-88050722D01*
X154060880Y-87956333D01*
X153948398Y-87922211D01*
X153869273Y-87898209D01*
X153869271Y-87898208D01*
X153869269Y-87898208D01*
X153670000Y-87878582D01*
X153470731Y-87898208D01*
X153470728Y-87898208D01*
X153470726Y-87898209D01*
X153279120Y-87956333D01*
X153279116Y-87956335D01*
X153102530Y-88050722D01*
X152947750Y-88177746D01*
X152947746Y-88177750D01*
X152820722Y-88332530D01*
X152726335Y-88509116D01*
X152726333Y-88509120D01*
X152668209Y-88700726D01*
X152668208Y-88700728D01*
X152668208Y-88700731D01*
X152648582Y-88900000D01*
X147930878Y-88900000D01*
X147962252Y-88874252D01*
X148089278Y-88719469D01*
X148183667Y-88542880D01*
X148241792Y-88351269D01*
X148261418Y-88152000D01*
X148241792Y-87952731D01*
X148183667Y-87761120D01*
X148089278Y-87584531D01*
X147962252Y-87429748D01*
X147807469Y-87302722D01*
X147630880Y-87208333D01*
X147518398Y-87174211D01*
X147439273Y-87150209D01*
X147439271Y-87150208D01*
X147439269Y-87150208D01*
X147240000Y-87130582D01*
X147040731Y-87150208D01*
X147040728Y-87150208D01*
X147040726Y-87150209D01*
X146849120Y-87208333D01*
X146849116Y-87208335D01*
X146672530Y-87302722D01*
X146517750Y-87429746D01*
X146517746Y-87429750D01*
X146390722Y-87584530D01*
X146296335Y-87761116D01*
X146296333Y-87761120D01*
X146238209Y-87952726D01*
X146238208Y-87952728D01*
X146238208Y-87952731D01*
X146218582Y-88152000D01*
X143261418Y-88152000D01*
X143241792Y-87952731D01*
X143183667Y-87761120D01*
X143089278Y-87584531D01*
X142962252Y-87429748D01*
X142807469Y-87302722D01*
X142630880Y-87208333D01*
X142518398Y-87174211D01*
X142439273Y-87150209D01*
X142439271Y-87150208D01*
X142439269Y-87150208D01*
X142240000Y-87130582D01*
X142040731Y-87150208D01*
X142040728Y-87150208D01*
X142040726Y-87150209D01*
X141849120Y-87208333D01*
X141849116Y-87208335D01*
X141672530Y-87302722D01*
X141517750Y-87429746D01*
X141517746Y-87429750D01*
X141390722Y-87584530D01*
X141296335Y-87761116D01*
X141296333Y-87761120D01*
X141238209Y-87952726D01*
X141238208Y-87952728D01*
X141238208Y-87952731D01*
X141218582Y-88152000D01*
X136580878Y-88152000D01*
X136457469Y-88050722D01*
X136280880Y-87956333D01*
X136168398Y-87922211D01*
X136089273Y-87898209D01*
X136089271Y-87898208D01*
X136089269Y-87898208D01*
X135890000Y-87878582D01*
X135690731Y-87898208D01*
X135690728Y-87898208D01*
X135690726Y-87898209D01*
X135499120Y-87956333D01*
X135499116Y-87956335D01*
X135322530Y-88050722D01*
X135167750Y-88177746D01*
X135167746Y-88177750D01*
X135040722Y-88332530D01*
X134946335Y-88509116D01*
X134946333Y-88509120D01*
X134888209Y-88700726D01*
X134888208Y-88700728D01*
X134888208Y-88700731D01*
X134868582Y-88900000D01*
X130683500Y-88900000D01*
X130683500Y-86360000D01*
X134868582Y-86360000D01*
X134888208Y-86559269D01*
X134946333Y-86750880D01*
X135040722Y-86927469D01*
X135167748Y-87082252D01*
X135322531Y-87209278D01*
X135499120Y-87303667D01*
X135690731Y-87361792D01*
X135890000Y-87381418D01*
X136089269Y-87361792D01*
X136280880Y-87303667D01*
X136457469Y-87209278D01*
X136612252Y-87082252D01*
X136739278Y-86927469D01*
X136833667Y-86750880D01*
X136891792Y-86559269D01*
X136911418Y-86360000D01*
X136891792Y-86160731D01*
X136833667Y-85969120D01*
X136739278Y-85792531D01*
X136623948Y-85652000D01*
X141218582Y-85652000D01*
X141238208Y-85851269D01*
X141296333Y-86042880D01*
X141390722Y-86219469D01*
X141517748Y-86374252D01*
X141672531Y-86501278D01*
X141849120Y-86595667D01*
X142040731Y-86653792D01*
X142240000Y-86673418D01*
X142439269Y-86653792D01*
X142630880Y-86595667D01*
X142807469Y-86501278D01*
X142962252Y-86374252D01*
X143089278Y-86219469D01*
X143183667Y-86042880D01*
X143241792Y-85851269D01*
X143261418Y-85652000D01*
X146218582Y-85652000D01*
X146238208Y-85851269D01*
X146296333Y-86042880D01*
X146390722Y-86219469D01*
X146517748Y-86374252D01*
X146672531Y-86501278D01*
X146849120Y-86595667D01*
X147040731Y-86653792D01*
X147240000Y-86673418D01*
X147439269Y-86653792D01*
X147630880Y-86595667D01*
X147807469Y-86501278D01*
X147962252Y-86374252D01*
X147973948Y-86360000D01*
X152648582Y-86360000D01*
X152668208Y-86559269D01*
X152726333Y-86750880D01*
X152820722Y-86927469D01*
X152947748Y-87082252D01*
X153102531Y-87209278D01*
X153279120Y-87303667D01*
X153470731Y-87361792D01*
X153670000Y-87381418D01*
X153869269Y-87361792D01*
X154060880Y-87303667D01*
X154237469Y-87209278D01*
X154392252Y-87082252D01*
X154519278Y-86927469D01*
X154613667Y-86750880D01*
X154671792Y-86559269D01*
X154691418Y-86360000D01*
X154671792Y-86160731D01*
X154613667Y-85969120D01*
X154519278Y-85792531D01*
X154392252Y-85637748D01*
X154237469Y-85510722D01*
X154060880Y-85416333D01*
X153948398Y-85382211D01*
X153869273Y-85358209D01*
X153869271Y-85358208D01*
X153869269Y-85358208D01*
X153670000Y-85338582D01*
X153470731Y-85358208D01*
X153470728Y-85358208D01*
X153470726Y-85358209D01*
X153279120Y-85416333D01*
X153279116Y-85416335D01*
X153102530Y-85510722D01*
X152947750Y-85637746D01*
X152947746Y-85637750D01*
X152820722Y-85792530D01*
X152726335Y-85969116D01*
X152726333Y-85969120D01*
X152668209Y-86160726D01*
X152668208Y-86160728D01*
X152668208Y-86160731D01*
X152648582Y-86360000D01*
X147973948Y-86360000D01*
X148089278Y-86219469D01*
X148183667Y-86042880D01*
X148241792Y-85851269D01*
X148261418Y-85652000D01*
X148241792Y-85452731D01*
X148183667Y-85261120D01*
X148089278Y-85084531D01*
X147962252Y-84929748D01*
X147807469Y-84802722D01*
X147630880Y-84708333D01*
X147502131Y-84669277D01*
X147439273Y-84650209D01*
X147439271Y-84650208D01*
X147439269Y-84650208D01*
X147240000Y-84630582D01*
X147040731Y-84650208D01*
X147040728Y-84650208D01*
X147040726Y-84650209D01*
X146849120Y-84708333D01*
X146849116Y-84708335D01*
X146672530Y-84802722D01*
X146517750Y-84929746D01*
X146517746Y-84929750D01*
X146390722Y-85084530D01*
X146296335Y-85261116D01*
X146296333Y-85261120D01*
X146238209Y-85452726D01*
X146238208Y-85452728D01*
X146238208Y-85452731D01*
X146218582Y-85652000D01*
X143261418Y-85652000D01*
X143241792Y-85452731D01*
X143183667Y-85261120D01*
X143089278Y-85084531D01*
X142962252Y-84929748D01*
X142807469Y-84802722D01*
X142630880Y-84708333D01*
X142502131Y-84669277D01*
X142439273Y-84650209D01*
X142439271Y-84650208D01*
X142439269Y-84650208D01*
X142240000Y-84630582D01*
X142040731Y-84650208D01*
X142040728Y-84650208D01*
X142040726Y-84650209D01*
X141849120Y-84708333D01*
X141849116Y-84708335D01*
X141672530Y-84802722D01*
X141517750Y-84929746D01*
X141517746Y-84929750D01*
X141390722Y-85084530D01*
X141296335Y-85261116D01*
X141296333Y-85261120D01*
X141238209Y-85452726D01*
X141238208Y-85452728D01*
X141238208Y-85452731D01*
X141218582Y-85652000D01*
X136623948Y-85652000D01*
X136612252Y-85637748D01*
X136457469Y-85510722D01*
X136280880Y-85416333D01*
X136168398Y-85382211D01*
X136089273Y-85358209D01*
X136089271Y-85358208D01*
X136089269Y-85358208D01*
X135890000Y-85338582D01*
X135690731Y-85358208D01*
X135690728Y-85358208D01*
X135690726Y-85358209D01*
X135499120Y-85416333D01*
X135499116Y-85416335D01*
X135322530Y-85510722D01*
X135167750Y-85637746D01*
X135167746Y-85637750D01*
X135040722Y-85792530D01*
X134946335Y-85969116D01*
X134946333Y-85969120D01*
X134888209Y-86160726D01*
X134888208Y-86160728D01*
X134888208Y-86160731D01*
X134868582Y-86360000D01*
X130683500Y-86360000D01*
X130683500Y-83820000D01*
X134868582Y-83820000D01*
X134888208Y-84019269D01*
X134946333Y-84210880D01*
X135040722Y-84387469D01*
X135167748Y-84542252D01*
X135322531Y-84669278D01*
X135499120Y-84763667D01*
X135690731Y-84821792D01*
X135890000Y-84841418D01*
X136089269Y-84821792D01*
X136280880Y-84763667D01*
X136457469Y-84669278D01*
X136612252Y-84542252D01*
X136739278Y-84387469D01*
X136833667Y-84210880D01*
X136891792Y-84019269D01*
X136911418Y-83820000D01*
X136891792Y-83620731D01*
X136833667Y-83429120D01*
X136739278Y-83252531D01*
X136656775Y-83152000D01*
X141218582Y-83152000D01*
X141238208Y-83351269D01*
X141296333Y-83542880D01*
X141390722Y-83719469D01*
X141517748Y-83874252D01*
X141672531Y-84001278D01*
X141849120Y-84095667D01*
X142040731Y-84153792D01*
X142240000Y-84173418D01*
X142439269Y-84153792D01*
X142630880Y-84095667D01*
X142807469Y-84001278D01*
X142962252Y-83874252D01*
X143089278Y-83719469D01*
X143183667Y-83542880D01*
X143241792Y-83351269D01*
X143261418Y-83152000D01*
X146218582Y-83152000D01*
X146238208Y-83351269D01*
X146296333Y-83542880D01*
X146390722Y-83719469D01*
X146517748Y-83874252D01*
X146672531Y-84001278D01*
X146849120Y-84095667D01*
X147040731Y-84153792D01*
X147240000Y-84173418D01*
X147439269Y-84153792D01*
X147630880Y-84095667D01*
X147807469Y-84001278D01*
X147962252Y-83874252D01*
X148006775Y-83820000D01*
X152648582Y-83820000D01*
X152668208Y-84019269D01*
X152726333Y-84210880D01*
X152820722Y-84387469D01*
X152947748Y-84542252D01*
X153102531Y-84669278D01*
X153279120Y-84763667D01*
X153470731Y-84821792D01*
X153670000Y-84841418D01*
X153869269Y-84821792D01*
X154060880Y-84763667D01*
X154237469Y-84669278D01*
X154392252Y-84542252D01*
X154519278Y-84387469D01*
X154613667Y-84210880D01*
X154671792Y-84019269D01*
X154691418Y-83820000D01*
X154671792Y-83620731D01*
X154613667Y-83429120D01*
X154519278Y-83252531D01*
X154392252Y-83097748D01*
X154237469Y-82970722D01*
X154060880Y-82876333D01*
X153948398Y-82842211D01*
X153869273Y-82818209D01*
X153869271Y-82818208D01*
X153869269Y-82818208D01*
X153670000Y-82798582D01*
X153470731Y-82818208D01*
X153470728Y-82818208D01*
X153470726Y-82818209D01*
X153279120Y-82876333D01*
X153279116Y-82876335D01*
X153102530Y-82970722D01*
X152947750Y-83097746D01*
X152947746Y-83097750D01*
X152820722Y-83252530D01*
X152726335Y-83429116D01*
X152726333Y-83429120D01*
X152668209Y-83620726D01*
X152668208Y-83620728D01*
X152668208Y-83620731D01*
X152648582Y-83820000D01*
X148006775Y-83820000D01*
X148089278Y-83719469D01*
X148183667Y-83542880D01*
X148241792Y-83351269D01*
X148261418Y-83152000D01*
X148241792Y-82952731D01*
X148183667Y-82761120D01*
X148089278Y-82584531D01*
X147962252Y-82429748D01*
X147807469Y-82302722D01*
X147630880Y-82208333D01*
X147518398Y-82174211D01*
X147439273Y-82150209D01*
X147439271Y-82150208D01*
X147439269Y-82150208D01*
X147240000Y-82130582D01*
X147040731Y-82150208D01*
X147040728Y-82150208D01*
X147040726Y-82150209D01*
X146849120Y-82208333D01*
X146849116Y-82208335D01*
X146672530Y-82302722D01*
X146517750Y-82429746D01*
X146517746Y-82429750D01*
X146390722Y-82584530D01*
X146296335Y-82761116D01*
X146296333Y-82761120D01*
X146238209Y-82952726D01*
X146238208Y-82952728D01*
X146238208Y-82952731D01*
X146218582Y-83152000D01*
X143261418Y-83152000D01*
X143241792Y-82952731D01*
X143183667Y-82761120D01*
X143089278Y-82584531D01*
X142962252Y-82429748D01*
X142807469Y-82302722D01*
X142630880Y-82208333D01*
X142518398Y-82174211D01*
X142439273Y-82150209D01*
X142439271Y-82150208D01*
X142439269Y-82150208D01*
X142240000Y-82130582D01*
X142040731Y-82150208D01*
X142040728Y-82150208D01*
X142040726Y-82150209D01*
X141849120Y-82208333D01*
X141849116Y-82208335D01*
X141672530Y-82302722D01*
X141517750Y-82429746D01*
X141517746Y-82429750D01*
X141390722Y-82584530D01*
X141296335Y-82761116D01*
X141296333Y-82761120D01*
X141238209Y-82952726D01*
X141238208Y-82952728D01*
X141238208Y-82952731D01*
X141218582Y-83152000D01*
X136656775Y-83152000D01*
X136612252Y-83097748D01*
X136457469Y-82970722D01*
X136280880Y-82876333D01*
X136168398Y-82842211D01*
X136089273Y-82818209D01*
X136089271Y-82818208D01*
X136089269Y-82818208D01*
X135890000Y-82798582D01*
X135690731Y-82818208D01*
X135690728Y-82818208D01*
X135690726Y-82818209D01*
X135499120Y-82876333D01*
X135499116Y-82876335D01*
X135322530Y-82970722D01*
X135167750Y-83097746D01*
X135167746Y-83097750D01*
X135040722Y-83252530D01*
X134946335Y-83429116D01*
X134946333Y-83429120D01*
X134888209Y-83620726D01*
X134888208Y-83620728D01*
X134888208Y-83620731D01*
X134868582Y-83820000D01*
X130683500Y-83820000D01*
X130683500Y-81280000D01*
X134868582Y-81280000D01*
X134888208Y-81479269D01*
X134946333Y-81670880D01*
X135040722Y-81847469D01*
X135167748Y-82002252D01*
X135322531Y-82129278D01*
X135499120Y-82223667D01*
X135690731Y-82281792D01*
X135890000Y-82301418D01*
X136089269Y-82281792D01*
X136280880Y-82223667D01*
X136457469Y-82129278D01*
X136612252Y-82002252D01*
X136739278Y-81847469D01*
X136833667Y-81670880D01*
X136891792Y-81479269D01*
X136911418Y-81280000D01*
X136891792Y-81080731D01*
X136833667Y-80889120D01*
X136739278Y-80712531D01*
X136689602Y-80652000D01*
X141218582Y-80652000D01*
X141238208Y-80851269D01*
X141296333Y-81042880D01*
X141390722Y-81219469D01*
X141517748Y-81374252D01*
X141672531Y-81501278D01*
X141849120Y-81595667D01*
X142040731Y-81653792D01*
X142240000Y-81673418D01*
X142439269Y-81653792D01*
X142630880Y-81595667D01*
X142807469Y-81501278D01*
X142962252Y-81374252D01*
X143089278Y-81219469D01*
X143183667Y-81042880D01*
X143241792Y-80851269D01*
X143261418Y-80652000D01*
X143241792Y-80452731D01*
X143183667Y-80261120D01*
X143089278Y-80084531D01*
X142962252Y-79929748D01*
X142807469Y-79802722D01*
X142630880Y-79708333D01*
X142490092Y-79665625D01*
X142439273Y-79650209D01*
X142439271Y-79650208D01*
X142439269Y-79650208D01*
X142240000Y-79630582D01*
X142040731Y-79650208D01*
X142040728Y-79650208D01*
X142040726Y-79650209D01*
X141849120Y-79708333D01*
X141849116Y-79708335D01*
X141672530Y-79802722D01*
X141517750Y-79929746D01*
X141517746Y-79929750D01*
X141390722Y-80084530D01*
X141296335Y-80261116D01*
X141296333Y-80261120D01*
X141238209Y-80452726D01*
X141238208Y-80452728D01*
X141238208Y-80452731D01*
X141218582Y-80652000D01*
X136689602Y-80652000D01*
X136612252Y-80557748D01*
X136457469Y-80430722D01*
X136280880Y-80336333D01*
X136168398Y-80302211D01*
X136089273Y-80278209D01*
X136089271Y-80278208D01*
X136089269Y-80278208D01*
X135890000Y-80258582D01*
X135690731Y-80278208D01*
X135690728Y-80278208D01*
X135690726Y-80278209D01*
X135499120Y-80336333D01*
X135499116Y-80336335D01*
X135322530Y-80430722D01*
X135167750Y-80557746D01*
X135167746Y-80557750D01*
X135040722Y-80712530D01*
X134946335Y-80889116D01*
X134946333Y-80889120D01*
X134888209Y-81080726D01*
X134888208Y-81080728D01*
X134888208Y-81080731D01*
X134868582Y-81280000D01*
X130683500Y-81280000D01*
X130683500Y-78740000D01*
X134868582Y-78740000D01*
X134888208Y-78939269D01*
X134888208Y-78939271D01*
X134888209Y-78939273D01*
X134898079Y-78971809D01*
X134946333Y-79130880D01*
X135040722Y-79307469D01*
X135167748Y-79462252D01*
X135322531Y-79589278D01*
X135499120Y-79683667D01*
X135690731Y-79741792D01*
X135890000Y-79761418D01*
X136089269Y-79741792D01*
X136280880Y-79683667D01*
X136457469Y-79589278D01*
X136612252Y-79462252D01*
X136739278Y-79307469D01*
X136833667Y-79130880D01*
X136891792Y-78939269D01*
X136911418Y-78740000D01*
X136891792Y-78540731D01*
X136833667Y-78349120D01*
X136739278Y-78172531D01*
X136722429Y-78152000D01*
X141218582Y-78152000D01*
X141238208Y-78351269D01*
X141296333Y-78542880D01*
X141390722Y-78719469D01*
X141517748Y-78874252D01*
X141672531Y-79001278D01*
X141849120Y-79095667D01*
X142040731Y-79153792D01*
X142240000Y-79173418D01*
X142439269Y-79153792D01*
X142630880Y-79095667D01*
X142630886Y-79095663D01*
X142631979Y-79095332D01*
X142692017Y-79098609D01*
X142719651Y-79117292D01*
X143182832Y-79580474D01*
X143185423Y-79583302D01*
X143213458Y-79616713D01*
X143213459Y-79616714D01*
X143213462Y-79616717D01*
X143251261Y-79638539D01*
X143254484Y-79640593D01*
X143290234Y-79665626D01*
X143293868Y-79666599D01*
X143315075Y-79675383D01*
X143318339Y-79677268D01*
X143361323Y-79684846D01*
X143365060Y-79685676D01*
X143374785Y-79688281D01*
X143407209Y-79696970D01*
X143450685Y-79693166D01*
X143454500Y-79693000D01*
X146560563Y-79693000D01*
X146617064Y-79713565D01*
X146647128Y-79765636D01*
X146636687Y-79824850D01*
X146616326Y-79848848D01*
X146517750Y-79929746D01*
X146517746Y-79929750D01*
X146390722Y-80084530D01*
X146296335Y-80261116D01*
X146296333Y-80261120D01*
X146238209Y-80452726D01*
X146238208Y-80452728D01*
X146238208Y-80452731D01*
X146218582Y-80652000D01*
X146238208Y-80851269D01*
X146296333Y-81042880D01*
X146390722Y-81219469D01*
X146517748Y-81374252D01*
X146672531Y-81501278D01*
X146849120Y-81595667D01*
X147040731Y-81653792D01*
X147240000Y-81673418D01*
X147439269Y-81653792D01*
X147630880Y-81595667D01*
X147807469Y-81501278D01*
X147962252Y-81374252D01*
X148039602Y-81280000D01*
X152648582Y-81280000D01*
X152668208Y-81479269D01*
X152726333Y-81670880D01*
X152820722Y-81847469D01*
X152947748Y-82002252D01*
X153102531Y-82129278D01*
X153279120Y-82223667D01*
X153470731Y-82281792D01*
X153670000Y-82301418D01*
X153869269Y-82281792D01*
X154060880Y-82223667D01*
X154237469Y-82129278D01*
X154392252Y-82002252D01*
X154519278Y-81847469D01*
X154613667Y-81670880D01*
X154671792Y-81479269D01*
X154691418Y-81280000D01*
X154671792Y-81080731D01*
X154613667Y-80889120D01*
X154519278Y-80712531D01*
X154392252Y-80557748D01*
X154237469Y-80430722D01*
X154060880Y-80336333D01*
X153948398Y-80302211D01*
X153869273Y-80278209D01*
X153869271Y-80278208D01*
X153869269Y-80278208D01*
X153670000Y-80258582D01*
X153470731Y-80278208D01*
X153470728Y-80278208D01*
X153470726Y-80278209D01*
X153279120Y-80336333D01*
X153279116Y-80336335D01*
X153102530Y-80430722D01*
X152947750Y-80557746D01*
X152947746Y-80557750D01*
X152820722Y-80712530D01*
X152726335Y-80889116D01*
X152726333Y-80889120D01*
X152668209Y-81080726D01*
X152668208Y-81080728D01*
X152668208Y-81080731D01*
X152648582Y-81280000D01*
X148039602Y-81280000D01*
X148089278Y-81219469D01*
X148183667Y-81042880D01*
X148241792Y-80851269D01*
X148261418Y-80652000D01*
X148241792Y-80452731D01*
X148183667Y-80261120D01*
X148089278Y-80084531D01*
X147962252Y-79929748D01*
X147863673Y-79848847D01*
X147833044Y-79797107D01*
X147842838Y-79737783D01*
X147888474Y-79698634D01*
X147919437Y-79693000D01*
X148841771Y-79693000D01*
X148898272Y-79713565D01*
X148911507Y-79727391D01*
X148927696Y-79748489D01*
X148927699Y-79748492D01*
X148927703Y-79748497D01*
X148927707Y-79748500D01*
X149044529Y-79838142D01*
X149044534Y-79838145D01*
X149044537Y-79838147D01*
X149180593Y-79894504D01*
X149326600Y-79913726D01*
X149472607Y-79894504D01*
X149608663Y-79838147D01*
X149725497Y-79748497D01*
X149786040Y-79669596D01*
X149815142Y-79631670D01*
X149815143Y-79631668D01*
X149815147Y-79631663D01*
X149871504Y-79495607D01*
X149890726Y-79349600D01*
X149871504Y-79203593D01*
X149815147Y-79067537D01*
X149815145Y-79067534D01*
X149815142Y-79067529D01*
X149725502Y-78950709D01*
X149725500Y-78950707D01*
X149725497Y-78950703D01*
X149725492Y-78950699D01*
X149725490Y-78950697D01*
X149608670Y-78861057D01*
X149608663Y-78861053D01*
X149472607Y-78804696D01*
X149326600Y-78785474D01*
X149180592Y-78804696D01*
X149044536Y-78861053D01*
X149044529Y-78861057D01*
X148927707Y-78950699D01*
X148927696Y-78950710D01*
X148911507Y-78971809D01*
X148860797Y-79004116D01*
X148841771Y-79006200D01*
X148039814Y-79006200D01*
X147983313Y-78985635D01*
X147953249Y-78933564D01*
X147963690Y-78874350D01*
X147971866Y-78862537D01*
X147973084Y-78861053D01*
X148072429Y-78740000D01*
X152648582Y-78740000D01*
X152668208Y-78939269D01*
X152668208Y-78939271D01*
X152668209Y-78939273D01*
X152678079Y-78971809D01*
X152726333Y-79130880D01*
X152820722Y-79307469D01*
X152947748Y-79462252D01*
X153102531Y-79589278D01*
X153279120Y-79683667D01*
X153470731Y-79741792D01*
X153670000Y-79761418D01*
X153869269Y-79741792D01*
X154060880Y-79683667D01*
X154237469Y-79589278D01*
X154392252Y-79462252D01*
X154519278Y-79307469D01*
X154613667Y-79130880D01*
X154671792Y-78939269D01*
X154691418Y-78740000D01*
X154671792Y-78540731D01*
X154613667Y-78349120D01*
X154519278Y-78172531D01*
X154392252Y-78017748D01*
X154237469Y-77890722D01*
X154060880Y-77796333D01*
X153944786Y-77761116D01*
X153869273Y-77738209D01*
X153869271Y-77738208D01*
X153869269Y-77738208D01*
X153670000Y-77718582D01*
X153470731Y-77738208D01*
X153470728Y-77738208D01*
X153470726Y-77738209D01*
X153279120Y-77796333D01*
X153279116Y-77796335D01*
X153102530Y-77890722D01*
X152947750Y-78017746D01*
X152947746Y-78017750D01*
X152820722Y-78172530D01*
X152726335Y-78349116D01*
X152726333Y-78349120D01*
X152668209Y-78540726D01*
X152668208Y-78540728D01*
X152668208Y-78540731D01*
X152648582Y-78740000D01*
X148072429Y-78740000D01*
X148089278Y-78719469D01*
X148183667Y-78542880D01*
X148241792Y-78351269D01*
X148261418Y-78152000D01*
X148241792Y-77952731D01*
X148183667Y-77761120D01*
X148089278Y-77584531D01*
X147962252Y-77429748D01*
X147807469Y-77302722D01*
X147630880Y-77208333D01*
X147518398Y-77174211D01*
X147439273Y-77150209D01*
X147439271Y-77150208D01*
X147439269Y-77150208D01*
X147240000Y-77130582D01*
X147040731Y-77150208D01*
X147040728Y-77150208D01*
X147040726Y-77150209D01*
X146849120Y-77208333D01*
X146849116Y-77208335D01*
X146672530Y-77302722D01*
X146517750Y-77429746D01*
X146517746Y-77429750D01*
X146390722Y-77584530D01*
X146296335Y-77761116D01*
X146296333Y-77761120D01*
X146238209Y-77952726D01*
X146238208Y-77952728D01*
X146238208Y-77952731D01*
X146218582Y-78152000D01*
X146238208Y-78351269D01*
X146296333Y-78542880D01*
X146390722Y-78719469D01*
X146444890Y-78785474D01*
X146508134Y-78862537D01*
X146528081Y-78919259D01*
X146506901Y-78975533D01*
X146454504Y-79005026D01*
X146440186Y-79006200D01*
X143616251Y-79006200D01*
X143559750Y-78985635D01*
X143554096Y-78980455D01*
X143205292Y-78631651D01*
X143179881Y-78577157D01*
X143183332Y-78543979D01*
X143183663Y-78542886D01*
X143183667Y-78542880D01*
X143241792Y-78351269D01*
X143261418Y-78152000D01*
X143241792Y-77952731D01*
X143183667Y-77761120D01*
X143089278Y-77584531D01*
X142962252Y-77429748D01*
X142807469Y-77302722D01*
X142630880Y-77208333D01*
X142518398Y-77174211D01*
X142439273Y-77150209D01*
X142439271Y-77150208D01*
X142439269Y-77150208D01*
X142240000Y-77130582D01*
X142040731Y-77150208D01*
X142040728Y-77150208D01*
X142040726Y-77150209D01*
X141849120Y-77208333D01*
X141849116Y-77208335D01*
X141672530Y-77302722D01*
X141517750Y-77429746D01*
X141517746Y-77429750D01*
X141390722Y-77584530D01*
X141296335Y-77761116D01*
X141296333Y-77761120D01*
X141238209Y-77952726D01*
X141238208Y-77952728D01*
X141238208Y-77952731D01*
X141218582Y-78152000D01*
X136722429Y-78152000D01*
X136612252Y-78017748D01*
X136457469Y-77890722D01*
X136280880Y-77796333D01*
X136164786Y-77761116D01*
X136089273Y-77738209D01*
X136089271Y-77738208D01*
X136089269Y-77738208D01*
X135890000Y-77718582D01*
X135690731Y-77738208D01*
X135690728Y-77738208D01*
X135690726Y-77738209D01*
X135499120Y-77796333D01*
X135499116Y-77796335D01*
X135322530Y-77890722D01*
X135167750Y-78017746D01*
X135167746Y-78017750D01*
X135040722Y-78172530D01*
X134946335Y-78349116D01*
X134946333Y-78349120D01*
X134888209Y-78540726D01*
X134888208Y-78540728D01*
X134888208Y-78540731D01*
X134868582Y-78740000D01*
X130683500Y-78740000D01*
X130683500Y-76200000D01*
X134868582Y-76200000D01*
X134888208Y-76399269D01*
X134946333Y-76590880D01*
X135040722Y-76767469D01*
X135167748Y-76922252D01*
X135322531Y-77049278D01*
X135499120Y-77143667D01*
X135690731Y-77201792D01*
X135890000Y-77221418D01*
X136089269Y-77201792D01*
X136280880Y-77143667D01*
X136457469Y-77049278D01*
X136612252Y-76922252D01*
X136739278Y-76767469D01*
X136833667Y-76590880D01*
X136891792Y-76399269D01*
X136911418Y-76200000D01*
X136891792Y-76000731D01*
X136833667Y-75809120D01*
X136749684Y-75652000D01*
X141168038Y-75652000D01*
X141188636Y-75861135D01*
X141249633Y-76062216D01*
X141348698Y-76247553D01*
X141384859Y-76291613D01*
X141788067Y-75888405D01*
X141852131Y-75988090D01*
X141962530Y-76083752D01*
X142004572Y-76102952D01*
X141600384Y-76507140D01*
X141644446Y-76543301D01*
X141644445Y-76543301D01*
X141829783Y-76642366D01*
X142030864Y-76703363D01*
X142240000Y-76723961D01*
X142449135Y-76703363D01*
X142650216Y-76642366D01*
X142835548Y-76543304D01*
X142879613Y-76507139D01*
X142475426Y-76102952D01*
X142517470Y-76083752D01*
X142627869Y-75988090D01*
X142691932Y-75888405D01*
X143095139Y-76291613D01*
X143131304Y-76247548D01*
X143230366Y-76062216D01*
X143291363Y-75861135D01*
X143311961Y-75652000D01*
X146168038Y-75652000D01*
X146188636Y-75861135D01*
X146249633Y-76062216D01*
X146348698Y-76247553D01*
X146384859Y-76291613D01*
X146788067Y-75888405D01*
X146852131Y-75988090D01*
X146962530Y-76083752D01*
X147004572Y-76102952D01*
X146600384Y-76507140D01*
X146644446Y-76543301D01*
X146644445Y-76543301D01*
X146829783Y-76642366D01*
X147030864Y-76703363D01*
X147240000Y-76723961D01*
X147449135Y-76703363D01*
X147650216Y-76642366D01*
X147835548Y-76543304D01*
X147879613Y-76507139D01*
X147475426Y-76102952D01*
X147517470Y-76083752D01*
X147627869Y-75988090D01*
X147691932Y-75888405D01*
X148095139Y-76291613D01*
X148131304Y-76247548D01*
X148156719Y-76200000D01*
X152648582Y-76200000D01*
X152668208Y-76399269D01*
X152726333Y-76590880D01*
X152820722Y-76767469D01*
X152947748Y-76922252D01*
X153102531Y-77049278D01*
X153279120Y-77143667D01*
X153470731Y-77201792D01*
X153670000Y-77221418D01*
X153869269Y-77201792D01*
X154060880Y-77143667D01*
X154237469Y-77049278D01*
X154392252Y-76922252D01*
X154519278Y-76767469D01*
X154613667Y-76590880D01*
X154671792Y-76399269D01*
X154691418Y-76200000D01*
X154671792Y-76000731D01*
X154613667Y-75809120D01*
X154519278Y-75632531D01*
X154392252Y-75477748D01*
X154237469Y-75350722D01*
X154060880Y-75256333D01*
X153941925Y-75220248D01*
X153869273Y-75198209D01*
X153869271Y-75198208D01*
X153869269Y-75198208D01*
X153670000Y-75178582D01*
X153470731Y-75198208D01*
X153470728Y-75198208D01*
X153470726Y-75198209D01*
X153279120Y-75256333D01*
X153279116Y-75256335D01*
X153102530Y-75350722D01*
X152947750Y-75477746D01*
X152947746Y-75477750D01*
X152820722Y-75632530D01*
X152726335Y-75809116D01*
X152726333Y-75809120D01*
X152668209Y-76000726D01*
X152668208Y-76000728D01*
X152668208Y-76000731D01*
X152648582Y-76200000D01*
X148156719Y-76200000D01*
X148230366Y-76062216D01*
X148291363Y-75861135D01*
X148311961Y-75652000D01*
X148291363Y-75442864D01*
X148230366Y-75241783D01*
X148131301Y-75056446D01*
X148095140Y-75012384D01*
X147691931Y-75415593D01*
X147627869Y-75315910D01*
X147517470Y-75220248D01*
X147475425Y-75201047D01*
X147879613Y-74796859D01*
X147835553Y-74760698D01*
X147835554Y-74760698D01*
X147650216Y-74661633D01*
X147449135Y-74600636D01*
X147240000Y-74580038D01*
X147030864Y-74600636D01*
X146829783Y-74661633D01*
X146644449Y-74760696D01*
X146600385Y-74796858D01*
X147004574Y-75201047D01*
X146962530Y-75220248D01*
X146852131Y-75315910D01*
X146788067Y-75415594D01*
X146384858Y-75012385D01*
X146348696Y-75056449D01*
X146249633Y-75241783D01*
X146188636Y-75442864D01*
X146168038Y-75652000D01*
X143311961Y-75652000D01*
X143291363Y-75442864D01*
X143230366Y-75241783D01*
X143131301Y-75056446D01*
X143095140Y-75012384D01*
X142691931Y-75415593D01*
X142627869Y-75315910D01*
X142517470Y-75220248D01*
X142475425Y-75201047D01*
X142879613Y-74796859D01*
X142835553Y-74760698D01*
X142835554Y-74760698D01*
X142650216Y-74661633D01*
X142449135Y-74600636D01*
X142240000Y-74580038D01*
X142030864Y-74600636D01*
X141829783Y-74661633D01*
X141644449Y-74760696D01*
X141600385Y-74796858D01*
X142004574Y-75201047D01*
X141962530Y-75220248D01*
X141852131Y-75315910D01*
X141788067Y-75415594D01*
X141384858Y-75012385D01*
X141348696Y-75056449D01*
X141249633Y-75241783D01*
X141188636Y-75442864D01*
X141168038Y-75652000D01*
X136749684Y-75652000D01*
X136739278Y-75632531D01*
X136612252Y-75477748D01*
X136457469Y-75350722D01*
X136280880Y-75256333D01*
X136161925Y-75220248D01*
X136089273Y-75198209D01*
X136089271Y-75198208D01*
X136089269Y-75198208D01*
X135890000Y-75178582D01*
X135690731Y-75198208D01*
X135690728Y-75198208D01*
X135690726Y-75198209D01*
X135499120Y-75256333D01*
X135499116Y-75256335D01*
X135322530Y-75350722D01*
X135167750Y-75477746D01*
X135167746Y-75477750D01*
X135040722Y-75632530D01*
X134946335Y-75809116D01*
X134946333Y-75809120D01*
X134888209Y-76000726D01*
X134888208Y-76000728D01*
X134888208Y-76000731D01*
X134868582Y-76200000D01*
X130683500Y-76200000D01*
X130683500Y-73660000D01*
X134868582Y-73660000D01*
X134888208Y-73859269D01*
X134946333Y-74050880D01*
X135040722Y-74227469D01*
X135167748Y-74382252D01*
X135322531Y-74509278D01*
X135499120Y-74603667D01*
X135690731Y-74661792D01*
X135890000Y-74681418D01*
X136089269Y-74661792D01*
X136280880Y-74603667D01*
X136457469Y-74509278D01*
X136612252Y-74382252D01*
X136739278Y-74227469D01*
X136833667Y-74050880D01*
X136891792Y-73859269D01*
X136911418Y-73660000D01*
X152648582Y-73660000D01*
X152668208Y-73859269D01*
X152726333Y-74050880D01*
X152820722Y-74227469D01*
X152947748Y-74382252D01*
X153102531Y-74509278D01*
X153279120Y-74603667D01*
X153470731Y-74661792D01*
X153670000Y-74681418D01*
X153869269Y-74661792D01*
X154060880Y-74603667D01*
X154237469Y-74509278D01*
X154392252Y-74382252D01*
X154519278Y-74227469D01*
X154613667Y-74050880D01*
X154671792Y-73859269D01*
X154691418Y-73660000D01*
X154671792Y-73460731D01*
X154613667Y-73269120D01*
X154519278Y-73092531D01*
X154392252Y-72937748D01*
X154237469Y-72810722D01*
X154060880Y-72716333D01*
X153948398Y-72682211D01*
X153869273Y-72658209D01*
X153869271Y-72658208D01*
X153869269Y-72658208D01*
X153670000Y-72638582D01*
X153470731Y-72658208D01*
X153470728Y-72658208D01*
X153470726Y-72658209D01*
X153279120Y-72716333D01*
X153279116Y-72716335D01*
X153102530Y-72810722D01*
X152947750Y-72937746D01*
X152947746Y-72937750D01*
X152820722Y-73092530D01*
X152726335Y-73269116D01*
X152726333Y-73269120D01*
X152668209Y-73460726D01*
X152668208Y-73460728D01*
X152668208Y-73460731D01*
X152648582Y-73660000D01*
X136911418Y-73660000D01*
X136891792Y-73460731D01*
X136833667Y-73269120D01*
X136739278Y-73092531D01*
X136612252Y-72937748D01*
X136457469Y-72810722D01*
X136280880Y-72716333D01*
X136168398Y-72682211D01*
X136089273Y-72658209D01*
X136089271Y-72658208D01*
X136089269Y-72658208D01*
X135890000Y-72638582D01*
X135690731Y-72658208D01*
X135690728Y-72658208D01*
X135690726Y-72658209D01*
X135499120Y-72716333D01*
X135499116Y-72716335D01*
X135322530Y-72810722D01*
X135167750Y-72937746D01*
X135167746Y-72937750D01*
X135040722Y-73092530D01*
X134946335Y-73269116D01*
X134946333Y-73269120D01*
X134888209Y-73460726D01*
X134888208Y-73460728D01*
X134888208Y-73460731D01*
X134868582Y-73660000D01*
X130683500Y-73660000D01*
X130683500Y-61933910D01*
X130704065Y-61877409D01*
X130756136Y-61847345D01*
X130815350Y-61857786D01*
X130851810Y-61898405D01*
X130861184Y-61919635D01*
X130864366Y-61924280D01*
X130879331Y-61982515D01*
X130878060Y-61991103D01*
X130862500Y-62069333D01*
X130862500Y-62419468D01*
X130871942Y-62466935D01*
X130877266Y-62493701D01*
X130895216Y-62520565D01*
X130909508Y-62578968D01*
X130895216Y-62618233D01*
X130877266Y-62645096D01*
X130862500Y-62719334D01*
X130862500Y-63069468D01*
X130875426Y-63134453D01*
X130877266Y-63143701D01*
X130933516Y-63227884D01*
X130961705Y-63246719D01*
X131017698Y-63284134D01*
X131028261Y-63286235D01*
X131091933Y-63298900D01*
X133142066Y-63298899D01*
X133142068Y-63298899D01*
X133160561Y-63295220D01*
X133216301Y-63284134D01*
X133263473Y-63252613D01*
X133312308Y-63237800D01*
X133530949Y-63237800D01*
X133587450Y-63258365D01*
X133593104Y-63263545D01*
X133742855Y-63413296D01*
X133768266Y-63467790D01*
X133768600Y-63475451D01*
X133768600Y-66785100D01*
X133768433Y-66788914D01*
X133766882Y-66806641D01*
X133764629Y-66832389D01*
X133764629Y-66832391D01*
X133775922Y-66874538D01*
X133776752Y-66878281D01*
X133784331Y-66921261D01*
X133786216Y-66924525D01*
X133794995Y-66945717D01*
X133795973Y-66949368D01*
X133821003Y-66985113D01*
X133823064Y-66988348D01*
X133844884Y-67026139D01*
X133878298Y-67054177D01*
X133881126Y-67056768D01*
X134924706Y-68100347D01*
X134950117Y-68154841D01*
X134946666Y-68188018D01*
X134888209Y-68380724D01*
X134888208Y-68380729D01*
X134888208Y-68380731D01*
X134868582Y-68580000D01*
X134888208Y-68779269D01*
X134946333Y-68970880D01*
X135040722Y-69147469D01*
X135167748Y-69302252D01*
X135322531Y-69429278D01*
X135499120Y-69523667D01*
X135690731Y-69581792D01*
X135890000Y-69601418D01*
X136089269Y-69581792D01*
X136280880Y-69523667D01*
X136457469Y-69429278D01*
X136612252Y-69302252D01*
X136739278Y-69147469D01*
X136752779Y-69122209D01*
X136797550Y-69082074D01*
X136857645Y-69080106D01*
X136904945Y-69117227D01*
X136918200Y-69163645D01*
X136918200Y-69569748D01*
X136897635Y-69626249D01*
X136892455Y-69631903D01*
X136369651Y-70154706D01*
X136315157Y-70180117D01*
X136281980Y-70176666D01*
X136089275Y-70118209D01*
X136089270Y-70118208D01*
X136089269Y-70118208D01*
X135890000Y-70098582D01*
X135690731Y-70118208D01*
X135690728Y-70118208D01*
X135690726Y-70118209D01*
X135499120Y-70176333D01*
X135499116Y-70176335D01*
X135322530Y-70270722D01*
X135167750Y-70397746D01*
X135167746Y-70397750D01*
X135040722Y-70552530D01*
X134946335Y-70729116D01*
X134946333Y-70729120D01*
X134888209Y-70920726D01*
X134888208Y-70920728D01*
X134888208Y-70920731D01*
X134868582Y-71120000D01*
X134888208Y-71319269D01*
X134946333Y-71510880D01*
X135040722Y-71687469D01*
X135167748Y-71842252D01*
X135322531Y-71969278D01*
X135499120Y-72063667D01*
X135690731Y-72121792D01*
X135890000Y-72141418D01*
X136089269Y-72121792D01*
X136280880Y-72063667D01*
X136457469Y-71969278D01*
X136612252Y-71842252D01*
X136739278Y-71687469D01*
X136833667Y-71510880D01*
X136891792Y-71319269D01*
X136911418Y-71120000D01*
X152648582Y-71120000D01*
X152668208Y-71319269D01*
X152726333Y-71510880D01*
X152820722Y-71687469D01*
X152947748Y-71842252D01*
X153102531Y-71969278D01*
X153279120Y-72063667D01*
X153470731Y-72121792D01*
X153670000Y-72141418D01*
X153869269Y-72121792D01*
X154060880Y-72063667D01*
X154237469Y-71969278D01*
X154392252Y-71842252D01*
X154519278Y-71687469D01*
X154613667Y-71510880D01*
X154671792Y-71319269D01*
X154691418Y-71120000D01*
X154671792Y-70920731D01*
X154613667Y-70729120D01*
X154519278Y-70552531D01*
X154392252Y-70397748D01*
X154237469Y-70270722D01*
X154060880Y-70176333D01*
X153948398Y-70142211D01*
X153869273Y-70118209D01*
X153869271Y-70118208D01*
X153869269Y-70118208D01*
X153670000Y-70098582D01*
X153470731Y-70118208D01*
X153470728Y-70118208D01*
X153470726Y-70118209D01*
X153279120Y-70176333D01*
X153279116Y-70176335D01*
X153102530Y-70270722D01*
X152947750Y-70397746D01*
X152947746Y-70397750D01*
X152820722Y-70552530D01*
X152726335Y-70729116D01*
X152726333Y-70729120D01*
X152668209Y-70920726D01*
X152668208Y-70920728D01*
X152668208Y-70920731D01*
X152648582Y-71120000D01*
X136911418Y-71120000D01*
X136891792Y-70920731D01*
X136891790Y-70920724D01*
X136833333Y-70728017D01*
X136836611Y-70667979D01*
X136855290Y-70640349D01*
X137492484Y-70003155D01*
X137495293Y-70000582D01*
X137528717Y-69972538D01*
X137550540Y-69934736D01*
X137552596Y-69931512D01*
X137557540Y-69924451D01*
X137577626Y-69895766D01*
X137578601Y-69892126D01*
X137587386Y-69870921D01*
X137589267Y-69867663D01*
X137589267Y-69867662D01*
X137589268Y-69867661D01*
X137596850Y-69824657D01*
X137597669Y-69820960D01*
X137608970Y-69778791D01*
X137605166Y-69735314D01*
X137605000Y-69731500D01*
X137605000Y-67952000D01*
X141218582Y-67952000D01*
X141238208Y-68151269D01*
X141238208Y-68151271D01*
X141238209Y-68151273D01*
X141249356Y-68188018D01*
X141296333Y-68342880D01*
X141390722Y-68519469D01*
X141517748Y-68674252D01*
X141672531Y-68801278D01*
X141849120Y-68895667D01*
X142040731Y-68953792D01*
X142240000Y-68973418D01*
X142439269Y-68953792D01*
X142630880Y-68895667D01*
X142807469Y-68801278D01*
X142962252Y-68674252D01*
X143089278Y-68519469D01*
X143183667Y-68342880D01*
X143241792Y-68151269D01*
X143261418Y-67952000D01*
X146218582Y-67952000D01*
X146238208Y-68151269D01*
X146238208Y-68151271D01*
X146238209Y-68151273D01*
X146249356Y-68188018D01*
X146296333Y-68342880D01*
X146390722Y-68519469D01*
X146517748Y-68674252D01*
X146672531Y-68801278D01*
X146849120Y-68895667D01*
X147040731Y-68953792D01*
X147240000Y-68973418D01*
X147439269Y-68953792D01*
X147630880Y-68895667D01*
X147807469Y-68801278D01*
X147962252Y-68674252D01*
X148039602Y-68580000D01*
X152648582Y-68580000D01*
X152668208Y-68779269D01*
X152726333Y-68970880D01*
X152820722Y-69147469D01*
X152947748Y-69302252D01*
X153102531Y-69429278D01*
X153279120Y-69523667D01*
X153470731Y-69581792D01*
X153670000Y-69601418D01*
X153869269Y-69581792D01*
X154060880Y-69523667D01*
X154237469Y-69429278D01*
X154392252Y-69302252D01*
X154519278Y-69147469D01*
X154613667Y-68970880D01*
X154671792Y-68779269D01*
X154691418Y-68580000D01*
X154671792Y-68380731D01*
X154613667Y-68189120D01*
X154519278Y-68012531D01*
X154392252Y-67857748D01*
X154237469Y-67730722D01*
X154060880Y-67636333D01*
X153920873Y-67593862D01*
X153869273Y-67578209D01*
X153869271Y-67578208D01*
X153869269Y-67578208D01*
X153670000Y-67558582D01*
X153470731Y-67578208D01*
X153470728Y-67578208D01*
X153470726Y-67578209D01*
X153279120Y-67636333D01*
X153279116Y-67636335D01*
X153102530Y-67730722D01*
X152947750Y-67857746D01*
X152947746Y-67857750D01*
X152820722Y-68012530D01*
X152726335Y-68189116D01*
X152726333Y-68189120D01*
X152668209Y-68380726D01*
X152668208Y-68380728D01*
X152668208Y-68380731D01*
X152648582Y-68580000D01*
X148039602Y-68580000D01*
X148089278Y-68519469D01*
X148183667Y-68342880D01*
X148241792Y-68151269D01*
X148261418Y-67952000D01*
X148241792Y-67752731D01*
X148183667Y-67561120D01*
X148089278Y-67384531D01*
X147962252Y-67229748D01*
X147807469Y-67102722D01*
X147630880Y-67008333D01*
X147480219Y-66962630D01*
X147439273Y-66950209D01*
X147439271Y-66950208D01*
X147439269Y-66950208D01*
X147240000Y-66930582D01*
X147040731Y-66950208D01*
X147040728Y-66950208D01*
X147040726Y-66950209D01*
X146849120Y-67008333D01*
X146849116Y-67008335D01*
X146672530Y-67102722D01*
X146517750Y-67229746D01*
X146517746Y-67229750D01*
X146390722Y-67384530D01*
X146296335Y-67561116D01*
X146296333Y-67561120D01*
X146238209Y-67752726D01*
X146238208Y-67752728D01*
X146238208Y-67752731D01*
X146218582Y-67952000D01*
X143261418Y-67952000D01*
X143241792Y-67752731D01*
X143183667Y-67561120D01*
X143089278Y-67384531D01*
X142962252Y-67229748D01*
X142807469Y-67102722D01*
X142630880Y-67008333D01*
X142480219Y-66962630D01*
X142439273Y-66950209D01*
X142439271Y-66950208D01*
X142439269Y-66950208D01*
X142240000Y-66930582D01*
X142040731Y-66950208D01*
X142040728Y-66950208D01*
X142040726Y-66950209D01*
X141849120Y-67008333D01*
X141849116Y-67008335D01*
X141672530Y-67102722D01*
X141517750Y-67229746D01*
X141517746Y-67229750D01*
X141390722Y-67384530D01*
X141296335Y-67561116D01*
X141296333Y-67561120D01*
X141238209Y-67752726D01*
X141238208Y-67752728D01*
X141238208Y-67752731D01*
X141218582Y-67952000D01*
X137605000Y-67952000D01*
X137605000Y-67834887D01*
X137605166Y-67831075D01*
X137608969Y-67787609D01*
X137597674Y-67745460D01*
X137596850Y-67741743D01*
X137589268Y-67698739D01*
X137587383Y-67695475D01*
X137578599Y-67674268D01*
X137577626Y-67670634D01*
X137552595Y-67634887D01*
X137550535Y-67631652D01*
X137528718Y-67593862D01*
X137495299Y-67565821D01*
X137492471Y-67563230D01*
X137008366Y-67079124D01*
X137005781Y-67076304D01*
X136977738Y-67042883D01*
X136956058Y-67030366D01*
X136939948Y-67021064D01*
X136936713Y-67019003D01*
X136900968Y-66993973D01*
X136897317Y-66992995D01*
X136876125Y-66984216D01*
X136872861Y-66982331D01*
X136829881Y-66974752D01*
X136826138Y-66973922D01*
X136783990Y-66962629D01*
X136759058Y-66964811D01*
X136740514Y-66966433D01*
X136736700Y-66966600D01*
X136608916Y-66966600D01*
X136552415Y-66946035D01*
X136522351Y-66893964D01*
X136532792Y-66834750D01*
X136553150Y-66810754D01*
X136612252Y-66762252D01*
X136739278Y-66607469D01*
X136833667Y-66430880D01*
X136891792Y-66239269D01*
X136908223Y-66072433D01*
X136933544Y-66018897D01*
X137500442Y-65452000D01*
X141218582Y-65452000D01*
X141238208Y-65651269D01*
X141296333Y-65842880D01*
X141390722Y-66019469D01*
X141517748Y-66174252D01*
X141672531Y-66301278D01*
X141849120Y-66395667D01*
X142040731Y-66453792D01*
X142240000Y-66473418D01*
X142439269Y-66453792D01*
X142630880Y-66395667D01*
X142807469Y-66301278D01*
X142962252Y-66174252D01*
X143089278Y-66019469D01*
X143183667Y-65842880D01*
X143241792Y-65651269D01*
X143261418Y-65452000D01*
X146218582Y-65452000D01*
X146238208Y-65651269D01*
X146296333Y-65842880D01*
X146390722Y-66019469D01*
X146517748Y-66174252D01*
X146672531Y-66301278D01*
X146849120Y-66395667D01*
X147040731Y-66453792D01*
X147240000Y-66473418D01*
X147439269Y-66453792D01*
X147630880Y-66395667D01*
X147807469Y-66301278D01*
X147962252Y-66174252D01*
X148072429Y-66040000D01*
X152598038Y-66040000D01*
X152618636Y-66249135D01*
X152679633Y-66450216D01*
X152778698Y-66635553D01*
X152814859Y-66679613D01*
X153218067Y-66276405D01*
X153282131Y-66376090D01*
X153392530Y-66471752D01*
X153434572Y-66490952D01*
X153030384Y-66895140D01*
X153074446Y-66931301D01*
X153074445Y-66931301D01*
X153259783Y-67030366D01*
X153460864Y-67091363D01*
X153670000Y-67111961D01*
X153879135Y-67091363D01*
X154080216Y-67030366D01*
X154265548Y-66931304D01*
X154309613Y-66895139D01*
X153905426Y-66490952D01*
X153947470Y-66471752D01*
X154057869Y-66376090D01*
X154121932Y-66276405D01*
X154525139Y-66679613D01*
X154561304Y-66635548D01*
X154660366Y-66450216D01*
X154721363Y-66249135D01*
X154741961Y-66040000D01*
X154721363Y-65830864D01*
X154660366Y-65629783D01*
X154561301Y-65444446D01*
X154525140Y-65400384D01*
X154121931Y-65803593D01*
X154057869Y-65703910D01*
X153947470Y-65608248D01*
X153905425Y-65589047D01*
X154309613Y-65184859D01*
X154265553Y-65148698D01*
X154265554Y-65148698D01*
X154080216Y-65049633D01*
X153879135Y-64988636D01*
X153670000Y-64968038D01*
X153460864Y-64988636D01*
X153259783Y-65049633D01*
X153074449Y-65148696D01*
X153030385Y-65184858D01*
X153434574Y-65589047D01*
X153392530Y-65608248D01*
X153282131Y-65703910D01*
X153218067Y-65803594D01*
X152814858Y-65400385D01*
X152778696Y-65444449D01*
X152679633Y-65629783D01*
X152618636Y-65830864D01*
X152598038Y-66040000D01*
X148072429Y-66040000D01*
X148089278Y-66019469D01*
X148183667Y-65842880D01*
X148241792Y-65651269D01*
X148261418Y-65452000D01*
X148241792Y-65252731D01*
X148183667Y-65061120D01*
X148089278Y-64884531D01*
X147962252Y-64729748D01*
X147807469Y-64602722D01*
X147630880Y-64508333D01*
X147498106Y-64468056D01*
X147439273Y-64450209D01*
X147439271Y-64450208D01*
X147439269Y-64450208D01*
X147240000Y-64430582D01*
X147040731Y-64450208D01*
X147040728Y-64450208D01*
X147040726Y-64450209D01*
X146849120Y-64508333D01*
X146849116Y-64508335D01*
X146672530Y-64602722D01*
X146517750Y-64729746D01*
X146517746Y-64729750D01*
X146390722Y-64884530D01*
X146296335Y-65061116D01*
X146296333Y-65061120D01*
X146238209Y-65252726D01*
X146238208Y-65252728D01*
X146238208Y-65252731D01*
X146218582Y-65452000D01*
X143261418Y-65452000D01*
X143241792Y-65252731D01*
X143183667Y-65061120D01*
X143089278Y-64884531D01*
X142962252Y-64729748D01*
X142807469Y-64602722D01*
X142630880Y-64508333D01*
X142498106Y-64468056D01*
X142439273Y-64450209D01*
X142439271Y-64450208D01*
X142439269Y-64450208D01*
X142240000Y-64430582D01*
X142040731Y-64450208D01*
X142040728Y-64450208D01*
X142040726Y-64450209D01*
X141849120Y-64508333D01*
X141849116Y-64508335D01*
X141672530Y-64602722D01*
X141517750Y-64729746D01*
X141517746Y-64729750D01*
X141390722Y-64884530D01*
X141296335Y-65061116D01*
X141296333Y-65061120D01*
X141238209Y-65252726D01*
X141238208Y-65252728D01*
X141238208Y-65252731D01*
X141218582Y-65452000D01*
X137500442Y-65452000D01*
X137783198Y-65169244D01*
X137837692Y-65143833D01*
X137845353Y-65143499D01*
X138413068Y-65143499D01*
X138431561Y-65139820D01*
X138487301Y-65128734D01*
X138571484Y-65072484D01*
X138627734Y-64988301D01*
X138638434Y-64934508D01*
X139183201Y-64934508D01*
X139186156Y-64959994D01*
X139232184Y-65064235D01*
X139312764Y-65144815D01*
X139417003Y-65190842D01*
X139417006Y-65190843D01*
X139442475Y-65193798D01*
X139442494Y-65193799D01*
X139735600Y-65193799D01*
X139735600Y-65193798D01*
X140040400Y-65193798D01*
X140040401Y-65193799D01*
X140333509Y-65193799D01*
X140358994Y-65190843D01*
X140463235Y-65144815D01*
X140543815Y-65064235D01*
X140589842Y-64959996D01*
X140589843Y-64959993D01*
X140592798Y-64934524D01*
X140592800Y-64934505D01*
X140592800Y-64541401D01*
X140592799Y-64541400D01*
X140040401Y-64541400D01*
X140040400Y-64541401D01*
X140040400Y-65193798D01*
X139735600Y-65193798D01*
X139735600Y-64541401D01*
X139735599Y-64541400D01*
X139183202Y-64541400D01*
X139183201Y-64541401D01*
X139183201Y-64934508D01*
X138638434Y-64934508D01*
X138642500Y-64914067D01*
X138642499Y-64236599D01*
X139183200Y-64236599D01*
X139183201Y-64236600D01*
X139735599Y-64236600D01*
X139735600Y-64236599D01*
X140040400Y-64236599D01*
X140040401Y-64236600D01*
X140592798Y-64236600D01*
X140592799Y-64236599D01*
X140592799Y-63843491D01*
X140589843Y-63818005D01*
X140543815Y-63713764D01*
X140463235Y-63633184D01*
X140358996Y-63587157D01*
X140358993Y-63587156D01*
X140333524Y-63584201D01*
X140333506Y-63584200D01*
X140040401Y-63584200D01*
X140040400Y-63584201D01*
X140040400Y-64236599D01*
X139735600Y-64236599D01*
X139735600Y-63584201D01*
X139735599Y-63584200D01*
X139442491Y-63584200D01*
X139417005Y-63587156D01*
X139312764Y-63633184D01*
X139232184Y-63713764D01*
X139186157Y-63818003D01*
X139186156Y-63818006D01*
X139183201Y-63843475D01*
X139183200Y-63843494D01*
X139183200Y-64236599D01*
X138642499Y-64236599D01*
X138642499Y-63863934D01*
X138642499Y-63863933D01*
X138642499Y-63863931D01*
X138633364Y-63818005D01*
X138627734Y-63789699D01*
X138571484Y-63705516D01*
X138487301Y-63649266D01*
X138465650Y-63644959D01*
X138414247Y-63613765D01*
X138394900Y-63558748D01*
X138394900Y-63389200D01*
X138415465Y-63332699D01*
X138467536Y-63302635D01*
X138482800Y-63301300D01*
X139949025Y-63301300D01*
X139957344Y-63299982D01*
X139971099Y-63298899D01*
X140942068Y-63298899D01*
X140960561Y-63295220D01*
X141016301Y-63284134D01*
X141100484Y-63227884D01*
X141107938Y-63216727D01*
X141156424Y-63181175D01*
X141216422Y-63185106D01*
X141259857Y-63226684D01*
X141265138Y-63240046D01*
X141296333Y-63342880D01*
X141390722Y-63519469D01*
X141517748Y-63674252D01*
X141672531Y-63801278D01*
X141849120Y-63895667D01*
X142040731Y-63953792D01*
X142240000Y-63973418D01*
X142439269Y-63953792D01*
X142630880Y-63895667D01*
X142807469Y-63801278D01*
X142962252Y-63674252D01*
X143089278Y-63519469D01*
X143183667Y-63342880D01*
X143241792Y-63151269D01*
X143261418Y-62952000D01*
X146218582Y-62952000D01*
X146238208Y-63151269D01*
X146238208Y-63151271D01*
X146238209Y-63151273D01*
X146261085Y-63226684D01*
X146296333Y-63342880D01*
X146390722Y-63519469D01*
X146517748Y-63674252D01*
X146672531Y-63801278D01*
X146849120Y-63895667D01*
X147040731Y-63953792D01*
X147240000Y-63973418D01*
X147439269Y-63953792D01*
X147630880Y-63895667D01*
X147807469Y-63801278D01*
X147962252Y-63674252D01*
X148089278Y-63519469D01*
X148183667Y-63342880D01*
X148241792Y-63151269D01*
X148261418Y-62952000D01*
X148241792Y-62752731D01*
X148183667Y-62561120D01*
X148089278Y-62384531D01*
X147962252Y-62229748D01*
X147807469Y-62102722D01*
X147630880Y-62008333D01*
X147456596Y-61955464D01*
X147439273Y-61950209D01*
X147439271Y-61950208D01*
X147439269Y-61950208D01*
X147240000Y-61930582D01*
X147040731Y-61950208D01*
X147040728Y-61950208D01*
X147040726Y-61950209D01*
X146849120Y-62008333D01*
X146849116Y-62008335D01*
X146672530Y-62102722D01*
X146517750Y-62229746D01*
X146517746Y-62229750D01*
X146390722Y-62384530D01*
X146296335Y-62561116D01*
X146296333Y-62561120D01*
X146238209Y-62752726D01*
X146238208Y-62752728D01*
X146238208Y-62752731D01*
X146218582Y-62952000D01*
X143261418Y-62952000D01*
X143241792Y-62752731D01*
X143183667Y-62561120D01*
X143089278Y-62384531D01*
X142962252Y-62229748D01*
X142807469Y-62102722D01*
X142630880Y-62008333D01*
X142456596Y-61955464D01*
X142439273Y-61950209D01*
X142439271Y-61950208D01*
X142439269Y-61950208D01*
X142240000Y-61930582D01*
X142040731Y-61950208D01*
X142040728Y-61950208D01*
X142040726Y-61950209D01*
X141849120Y-62008333D01*
X141849116Y-62008335D01*
X141672530Y-62102722D01*
X141517750Y-62229746D01*
X141517746Y-62229750D01*
X141390721Y-62384532D01*
X141384313Y-62396521D01*
X141339542Y-62436656D01*
X141279447Y-62438622D01*
X141244638Y-62417239D01*
X141221799Y-62394400D01*
X138612202Y-62394400D01*
X138612201Y-62394401D01*
X138612201Y-62399600D01*
X138591636Y-62456101D01*
X138539565Y-62486165D01*
X138524301Y-62487500D01*
X138482800Y-62487500D01*
X138426299Y-62466935D01*
X138396235Y-62414864D01*
X138394900Y-62399600D01*
X138394900Y-62094399D01*
X138612200Y-62094399D01*
X138612201Y-62094400D01*
X139766999Y-62094400D01*
X139767000Y-62094399D01*
X140067000Y-62094399D01*
X140067001Y-62094400D01*
X141221798Y-62094400D01*
X141221799Y-62094399D01*
X141221799Y-62048889D01*
X141218844Y-62023408D01*
X141218843Y-62023407D01*
X141188596Y-61954906D01*
X141184586Y-61894913D01*
X141188596Y-61883894D01*
X141218843Y-61815393D01*
X141221798Y-61789924D01*
X141221800Y-61789905D01*
X141221800Y-61744401D01*
X141221799Y-61744400D01*
X140067001Y-61744400D01*
X140067000Y-61744401D01*
X140067000Y-62094399D01*
X139767000Y-62094399D01*
X139767000Y-61744401D01*
X139766999Y-61744400D01*
X138612202Y-61744400D01*
X138612201Y-61744401D01*
X138612201Y-61789908D01*
X138615156Y-61815394D01*
X138645402Y-61883894D01*
X138649412Y-61943888D01*
X138645403Y-61954903D01*
X138615156Y-62023406D01*
X138612201Y-62048875D01*
X138612200Y-62048894D01*
X138612200Y-62094399D01*
X138394900Y-62094399D01*
X138394900Y-61444399D01*
X138612200Y-61444399D01*
X138612201Y-61444400D01*
X139766999Y-61444400D01*
X139767000Y-61444399D01*
X140067000Y-61444399D01*
X140067001Y-61444400D01*
X141221798Y-61444400D01*
X141221799Y-61444399D01*
X141221799Y-61398889D01*
X141218844Y-61373408D01*
X141218843Y-61373407D01*
X141188596Y-61304906D01*
X141184586Y-61244913D01*
X141188596Y-61233894D01*
X141218843Y-61165393D01*
X141221798Y-61139924D01*
X141221799Y-61139906D01*
X141221799Y-61054354D01*
X141242363Y-60997853D01*
X141294434Y-60967789D01*
X141353648Y-60978229D01*
X141387218Y-61012915D01*
X141390719Y-61019465D01*
X141390720Y-61019466D01*
X141390722Y-61019469D01*
X141517748Y-61174252D01*
X141672531Y-61301278D01*
X141849120Y-61395667D01*
X142040731Y-61453792D01*
X142240000Y-61473418D01*
X142439269Y-61453792D01*
X142630880Y-61395667D01*
X142807469Y-61301278D01*
X142962252Y-61174252D01*
X143089278Y-61019469D01*
X143183667Y-60842880D01*
X143241792Y-60651269D01*
X143261418Y-60452000D01*
X146218582Y-60452000D01*
X146238208Y-60651269D01*
X146296333Y-60842880D01*
X146390722Y-61019469D01*
X146517748Y-61174252D01*
X146672531Y-61301278D01*
X146849120Y-61395667D01*
X147040731Y-61453792D01*
X147240000Y-61473418D01*
X147439269Y-61453792D01*
X147630880Y-61395667D01*
X147807469Y-61301278D01*
X147962252Y-61174252D01*
X148089278Y-61019469D01*
X148183667Y-60842880D01*
X148241792Y-60651269D01*
X148261418Y-60452000D01*
X148241792Y-60252731D01*
X148183667Y-60061120D01*
X148089278Y-59884531D01*
X147962252Y-59729748D01*
X147807469Y-59602722D01*
X147630880Y-59508333D01*
X147518398Y-59474211D01*
X147439273Y-59450209D01*
X147439271Y-59450208D01*
X147439269Y-59450208D01*
X147240000Y-59430582D01*
X147040731Y-59450208D01*
X147040728Y-59450208D01*
X147040726Y-59450209D01*
X146849120Y-59508333D01*
X146849116Y-59508335D01*
X146672530Y-59602722D01*
X146517750Y-59729746D01*
X146517746Y-59729750D01*
X146390722Y-59884530D01*
X146296335Y-60061116D01*
X146296333Y-60061120D01*
X146238209Y-60252726D01*
X146238208Y-60252728D01*
X146238208Y-60252731D01*
X146218582Y-60452000D01*
X143261418Y-60452000D01*
X143241792Y-60252731D01*
X143183667Y-60061120D01*
X143089278Y-59884531D01*
X142962252Y-59729748D01*
X142807469Y-59602722D01*
X142630880Y-59508333D01*
X142518398Y-59474211D01*
X142439273Y-59450209D01*
X142439271Y-59450208D01*
X142439269Y-59450208D01*
X142240000Y-59430582D01*
X142040731Y-59450208D01*
X142040728Y-59450208D01*
X142040726Y-59450209D01*
X141849120Y-59508333D01*
X141849116Y-59508335D01*
X141672530Y-59602722D01*
X141517750Y-59729746D01*
X141517746Y-59729750D01*
X141390721Y-59884532D01*
X141386528Y-59892376D01*
X141341755Y-59932508D01*
X141281659Y-59934472D01*
X141234362Y-59897347D01*
X141222076Y-59842473D01*
X141221653Y-59842449D01*
X141221738Y-59840964D01*
X141221698Y-59840782D01*
X141221800Y-59839904D01*
X141221800Y-59794401D01*
X141221799Y-59794400D01*
X140067001Y-59794400D01*
X140067000Y-59794401D01*
X140067000Y-61444399D01*
X139767000Y-61444399D01*
X139767000Y-61094401D01*
X139766999Y-61094400D01*
X138612202Y-61094400D01*
X138612201Y-61094401D01*
X138612201Y-61139908D01*
X138615156Y-61165394D01*
X138645402Y-61233894D01*
X138649412Y-61293888D01*
X138645403Y-61304903D01*
X138615156Y-61373406D01*
X138612201Y-61398875D01*
X138612200Y-61398894D01*
X138612200Y-61444399D01*
X138394900Y-61444399D01*
X138394900Y-60794399D01*
X138612200Y-60794399D01*
X138612201Y-60794400D01*
X139766999Y-60794400D01*
X139767000Y-60794399D01*
X139767000Y-60444401D01*
X139766999Y-60444400D01*
X138612202Y-60444400D01*
X138612201Y-60444401D01*
X138612201Y-60489908D01*
X138615156Y-60515394D01*
X138645402Y-60583894D01*
X138649412Y-60643888D01*
X138645403Y-60654903D01*
X138615156Y-60723406D01*
X138612201Y-60748875D01*
X138612200Y-60748894D01*
X138612200Y-60794399D01*
X138394900Y-60794399D01*
X138394900Y-60144399D01*
X138612200Y-60144399D01*
X138612201Y-60144400D01*
X139766999Y-60144400D01*
X139767000Y-60144399D01*
X139767000Y-59794401D01*
X139766999Y-59794400D01*
X138612202Y-59794400D01*
X138612201Y-59794401D01*
X138612201Y-59839908D01*
X138615156Y-59865394D01*
X138645402Y-59933894D01*
X138649412Y-59993888D01*
X138645403Y-60004903D01*
X138615156Y-60073406D01*
X138612201Y-60098875D01*
X138612200Y-60098894D01*
X138612200Y-60144399D01*
X138394900Y-60144399D01*
X138394900Y-59494399D01*
X138612200Y-59494399D01*
X138612201Y-59494400D01*
X139766999Y-59494400D01*
X139767000Y-59494399D01*
X140067000Y-59494399D01*
X140067001Y-59494400D01*
X141221798Y-59494400D01*
X141221799Y-59494399D01*
X141221799Y-59448889D01*
X141218844Y-59423408D01*
X141218843Y-59423407D01*
X141188596Y-59354906D01*
X141184586Y-59294913D01*
X141188596Y-59283894D01*
X141218843Y-59215393D01*
X141221798Y-59189924D01*
X141221800Y-59189905D01*
X141221800Y-59144401D01*
X141221799Y-59144400D01*
X140067001Y-59144400D01*
X140067000Y-59144401D01*
X140067000Y-59494399D01*
X139767000Y-59494399D01*
X139767000Y-59144401D01*
X139766999Y-59144400D01*
X138612202Y-59144400D01*
X138612201Y-59144401D01*
X138612201Y-59189908D01*
X138615156Y-59215394D01*
X138645402Y-59283894D01*
X138649412Y-59343888D01*
X138645403Y-59354903D01*
X138615156Y-59423406D01*
X138612201Y-59448875D01*
X138612200Y-59448894D01*
X138612200Y-59494399D01*
X138394900Y-59494399D01*
X138394900Y-58839200D01*
X138415465Y-58782699D01*
X138467536Y-58752635D01*
X138482800Y-58751300D01*
X138524300Y-58751300D01*
X138580801Y-58771865D01*
X138610865Y-58823936D01*
X138612200Y-58839200D01*
X138612200Y-58844399D01*
X138612201Y-58844400D01*
X141221798Y-58844400D01*
X141221799Y-58844399D01*
X141221799Y-58798891D01*
X141218843Y-58773405D01*
X141172816Y-58669166D01*
X141169634Y-58664521D01*
X141154668Y-58606286D01*
X141155939Y-58597694D01*
X141156732Y-58593702D01*
X141156734Y-58593701D01*
X141171500Y-58519467D01*
X141171499Y-58169334D01*
X141171499Y-58169331D01*
X141165980Y-58141590D01*
X141156734Y-58095099D01*
X141138783Y-58068235D01*
X141124491Y-58009833D01*
X141138782Y-57970565D01*
X141156734Y-57943701D01*
X141171500Y-57869467D01*
X141171499Y-57519334D01*
X141171499Y-57519331D01*
X141162364Y-57473405D01*
X141156734Y-57445099D01*
X141138783Y-57418235D01*
X141124491Y-57359833D01*
X141138782Y-57320565D01*
X141156734Y-57293701D01*
X141171500Y-57219467D01*
X141171499Y-56869334D01*
X141171499Y-56869333D01*
X141171499Y-56869331D01*
X141165980Y-56841590D01*
X141156734Y-56795099D01*
X141100484Y-56710916D01*
X141100098Y-56710658D01*
X141016301Y-56654665D01*
X140963192Y-56644102D01*
X140942067Y-56639900D01*
X140942065Y-56639900D01*
X138891931Y-56639900D01*
X138817699Y-56654666D01*
X138733517Y-56710915D01*
X138733514Y-56710918D01*
X138677265Y-56795098D01*
X138664601Y-56858770D01*
X138662501Y-56869331D01*
X138662500Y-56869334D01*
X138662501Y-57199600D01*
X138641936Y-57256101D01*
X138589865Y-57286165D01*
X138574601Y-57287500D01*
X138254847Y-57287500D01*
X138125954Y-57287500D01*
X138116821Y-57290466D01*
X138101688Y-57295383D01*
X138088285Y-57298600D01*
X138063097Y-57302590D01*
X138063091Y-57302592D01*
X138040367Y-57314170D01*
X138027629Y-57319446D01*
X138003368Y-57327329D01*
X137982728Y-57342324D01*
X137970978Y-57349524D01*
X137948254Y-57361104D01*
X137948249Y-57361107D01*
X137925322Y-57384034D01*
X137745849Y-57563508D01*
X137654709Y-57654647D01*
X137654704Y-57654654D01*
X137643124Y-57677378D01*
X137635924Y-57689128D01*
X137620929Y-57709768D01*
X137613046Y-57734029D01*
X137607770Y-57746767D01*
X137596192Y-57769491D01*
X137596190Y-57769497D01*
X137592200Y-57794685D01*
X137588983Y-57808088D01*
X137581100Y-57832354D01*
X137581100Y-58309245D01*
X137580018Y-58322995D01*
X137576628Y-58344399D01*
X137580018Y-58365804D01*
X137581100Y-58379554D01*
X137581100Y-59149600D01*
X137560535Y-59206101D01*
X137508464Y-59236165D01*
X137493200Y-59237500D01*
X133459400Y-59237500D01*
X133402899Y-59216935D01*
X133372835Y-59164864D01*
X133371500Y-59149600D01*
X133371499Y-58819331D01*
X133362364Y-58773405D01*
X133356734Y-58745099D01*
X133356733Y-58745097D01*
X133355939Y-58741105D01*
X133365086Y-58681678D01*
X133369634Y-58674279D01*
X133372816Y-58669632D01*
X133418842Y-58565396D01*
X133418843Y-58565393D01*
X133421798Y-58539924D01*
X133421800Y-58539905D01*
X133421800Y-58494401D01*
X133421799Y-58494400D01*
X132054900Y-58494400D01*
X131998399Y-58473835D01*
X131968335Y-58421764D01*
X131967000Y-58406500D01*
X131967000Y-58194399D01*
X132267000Y-58194399D01*
X132267001Y-58194400D01*
X133421798Y-58194400D01*
X133421799Y-58194399D01*
X133421799Y-58148889D01*
X133418844Y-58123408D01*
X133418843Y-58123407D01*
X133388596Y-58054906D01*
X133384586Y-57994913D01*
X133388596Y-57983894D01*
X133418843Y-57915393D01*
X133421798Y-57889924D01*
X133421800Y-57889905D01*
X133421800Y-57844401D01*
X133421799Y-57844400D01*
X132267001Y-57844400D01*
X132267000Y-57844401D01*
X132267000Y-58194399D01*
X131967000Y-58194399D01*
X131967000Y-57632300D01*
X131987565Y-57575799D01*
X132039636Y-57545735D01*
X132054900Y-57544400D01*
X133421798Y-57544400D01*
X133421799Y-57544399D01*
X133421799Y-57498891D01*
X133418843Y-57473405D01*
X133372816Y-57369166D01*
X133369634Y-57364521D01*
X133354668Y-57306286D01*
X133355939Y-57297694D01*
X133356732Y-57293702D01*
X133356734Y-57293701D01*
X133371500Y-57219467D01*
X133371499Y-56869334D01*
X133371499Y-56869333D01*
X133371499Y-56869331D01*
X133365980Y-56841590D01*
X133356734Y-56795099D01*
X133300484Y-56710916D01*
X133300098Y-56710658D01*
X133216301Y-56654665D01*
X133163192Y-56644102D01*
X133142067Y-56639900D01*
X133142065Y-56639900D01*
X131091931Y-56639900D01*
X131017699Y-56654666D01*
X130933517Y-56710915D01*
X130933514Y-56710918D01*
X130877265Y-56795098D01*
X130864601Y-56858770D01*
X130862501Y-56869331D01*
X130862500Y-56869334D01*
X130862500Y-57219468D01*
X130878060Y-57297693D01*
X130868913Y-57357121D01*
X130864372Y-57364508D01*
X130861187Y-57369157D01*
X130851810Y-57390395D01*
X130810174Y-57433775D01*
X130750396Y-57440243D01*
X130700446Y-57406773D01*
X130683500Y-57354889D01*
X130683500Y-56476400D01*
X130704065Y-56419899D01*
X130756136Y-56389835D01*
X130771400Y-56388500D01*
X156248600Y-56388500D01*
X156305101Y-56409065D01*
G37*
%TD.AperFunction*%
%TA.AperFunction,Conductor*%
G36*
X137549701Y-60071865D02*
G01*
X137579765Y-60123936D01*
X137581100Y-60139200D01*
X137581100Y-62880714D01*
X137580028Y-62894335D01*
X137580028Y-62894463D01*
X137581100Y-62908087D01*
X137581100Y-63558749D01*
X137560535Y-63615250D01*
X137510348Y-63644960D01*
X137488699Y-63649266D01*
X137404517Y-63705515D01*
X137404514Y-63705518D01*
X137348265Y-63789698D01*
X137335601Y-63853370D01*
X137333501Y-63863931D01*
X137333500Y-63863934D01*
X137333500Y-64431646D01*
X137312935Y-64488147D01*
X137307755Y-64493801D01*
X136598037Y-65203518D01*
X136543543Y-65228929D01*
X136485465Y-65213366D01*
X136480119Y-65209310D01*
X136457472Y-65190724D01*
X136457473Y-65190724D01*
X136369121Y-65143499D01*
X136280880Y-65096333D01*
X136126932Y-65049633D01*
X136089273Y-65038209D01*
X136089271Y-65038208D01*
X136089269Y-65038208D01*
X135890000Y-65018582D01*
X135690731Y-65038208D01*
X135690728Y-65038208D01*
X135690726Y-65038209D01*
X135499120Y-65096333D01*
X135499116Y-65096335D01*
X135322530Y-65190722D01*
X135167750Y-65317746D01*
X135167746Y-65317750D01*
X135040722Y-65472530D01*
X134951021Y-65640350D01*
X134906250Y-65680485D01*
X134846155Y-65682452D01*
X134798855Y-65645331D01*
X134785600Y-65598914D01*
X134785600Y-62932698D01*
X134785766Y-62928886D01*
X134789570Y-62885409D01*
X134788312Y-62880714D01*
X134778275Y-62843255D01*
X134777444Y-62839509D01*
X134769868Y-62796539D01*
X134767983Y-62793274D01*
X134759202Y-62772074D01*
X134758227Y-62768434D01*
X134733195Y-62732685D01*
X134731134Y-62729450D01*
X134709317Y-62691662D01*
X134675899Y-62663621D01*
X134673071Y-62661030D01*
X134025566Y-62013524D01*
X134022981Y-62010704D01*
X133994938Y-61977283D01*
X133979419Y-61968323D01*
X133957148Y-61955464D01*
X133953913Y-61953403D01*
X133918168Y-61928373D01*
X133914517Y-61927395D01*
X133893325Y-61918616D01*
X133890061Y-61916731D01*
X133847081Y-61909152D01*
X133843338Y-61908322D01*
X133801190Y-61897029D01*
X133776258Y-61899211D01*
X133757714Y-61900833D01*
X133753900Y-61901000D01*
X133507599Y-61901000D01*
X133451098Y-61880435D01*
X133421034Y-61828364D01*
X133420285Y-61802967D01*
X133421799Y-61789919D01*
X133421800Y-61789905D01*
X133421800Y-61744401D01*
X133421799Y-61744400D01*
X132054900Y-61744400D01*
X131998399Y-61723835D01*
X131968335Y-61671764D01*
X131967000Y-61656500D01*
X131967000Y-61444399D01*
X132267000Y-61444399D01*
X132267001Y-61444400D01*
X133421798Y-61444400D01*
X133421799Y-61444399D01*
X133421799Y-61398889D01*
X133418844Y-61373408D01*
X133418843Y-61373407D01*
X133388596Y-61304906D01*
X133384586Y-61244913D01*
X133388596Y-61233894D01*
X133418843Y-61165393D01*
X133421798Y-61139924D01*
X133421800Y-61139905D01*
X133421800Y-61094401D01*
X133421799Y-61094400D01*
X132267001Y-61094400D01*
X132267000Y-61094401D01*
X132267000Y-61444399D01*
X131967000Y-61444399D01*
X131967000Y-60794399D01*
X132267000Y-60794399D01*
X132267001Y-60794400D01*
X133421798Y-60794400D01*
X133421799Y-60794399D01*
X133421799Y-60748889D01*
X133418844Y-60723408D01*
X133418843Y-60723407D01*
X133388596Y-60654906D01*
X133384586Y-60594913D01*
X133388596Y-60583894D01*
X133418843Y-60515393D01*
X133421798Y-60489924D01*
X133421800Y-60489905D01*
X133421800Y-60444401D01*
X133421799Y-60444400D01*
X132267001Y-60444400D01*
X132267000Y-60444401D01*
X132267000Y-60794399D01*
X131967000Y-60794399D01*
X131967000Y-60232300D01*
X131987565Y-60175799D01*
X132039636Y-60145735D01*
X132054900Y-60144400D01*
X133421798Y-60144400D01*
X133421799Y-60144399D01*
X133421799Y-60139200D01*
X133442364Y-60082699D01*
X133494435Y-60052635D01*
X133509699Y-60051300D01*
X137493200Y-60051300D01*
X137549701Y-60071865D01*
G37*
%TD.AperFunction*%
%TD*%
M02*
