%TF.GenerationSoftware,KiCad,Pcbnew,7.0.8*%
%TF.CreationDate,2024-03-17T19:54:23-04:00*%
%TF.ProjectId,snes-umd,736e6573-2d75-46d6-942e-6b696361645f,0.1*%
%TF.SameCoordinates,Original*%
%TF.FileFunction,Soldermask,Top*%
%TF.FilePolarity,Negative*%
%FSLAX46Y46*%
G04 Gerber Fmt 4.6, Leading zero omitted, Abs format (unit mm)*
G04 Created by KiCad (PCBNEW 7.0.8) date 2024-03-17 19:54:23*
%MOMM*%
%LPD*%
G01*
G04 APERTURE LIST*
%ADD10C,1.727200*%
G04 APERTURE END LIST*
D10*
%TO.C,CON102*%
X142240000Y-60452000D03*
X142240000Y-62952000D03*
X142240000Y-65452000D03*
X142240000Y-67952000D03*
X142240000Y-75652000D03*
X142240000Y-78152000D03*
X142240000Y-80652000D03*
X142240000Y-83152000D03*
X142240000Y-85652000D03*
X142240000Y-88152000D03*
X142240000Y-90652000D03*
X142240000Y-93152000D03*
X142240000Y-95652000D03*
X142240000Y-98152000D03*
X142240000Y-100652000D03*
X142240000Y-103152000D03*
X142240000Y-105652000D03*
X142240000Y-108152000D03*
X142240000Y-110652000D03*
X142240000Y-113152000D03*
X142240000Y-115652000D03*
X142240000Y-118152000D03*
X142240000Y-120652000D03*
X142240000Y-123152000D03*
X142240000Y-125652000D03*
X142240000Y-128152000D03*
X142240000Y-130652000D03*
X142240000Y-138352000D03*
X142240000Y-140852000D03*
X142240000Y-143352000D03*
X142240000Y-145852000D03*
X147240000Y-60452000D03*
X147240000Y-62952000D03*
X147240000Y-65452000D03*
X147240000Y-67952000D03*
X147240000Y-75652000D03*
X147240000Y-78152000D03*
X147240000Y-80652000D03*
X147240000Y-83152000D03*
X147240000Y-85652000D03*
X147240000Y-88152000D03*
X147240000Y-90652000D03*
X147240000Y-93152000D03*
X147240000Y-95652000D03*
X147240000Y-98152000D03*
X147240000Y-100652000D03*
X147240000Y-103152000D03*
X147240000Y-105652000D03*
X147240000Y-108152000D03*
X147240000Y-110652000D03*
X147240000Y-113152000D03*
X147240000Y-115652000D03*
X147240000Y-118152000D03*
X147240000Y-120652000D03*
X147240000Y-123152000D03*
X147240000Y-125652000D03*
X147240000Y-128152000D03*
X147240000Y-130652000D03*
X147240000Y-138352000D03*
X147240000Y-140852000D03*
X147240000Y-143352000D03*
X147240000Y-145852000D03*
%TD*%
%TO.C,CON101*%
X135890000Y-66040000D03*
X135890000Y-68580000D03*
X135890000Y-71120000D03*
X135890000Y-73660000D03*
X135890000Y-76200000D03*
X135890000Y-78740000D03*
X135890000Y-81280000D03*
X135890000Y-83820000D03*
X135890000Y-86360000D03*
X135890000Y-88900000D03*
X135890000Y-91440000D03*
X135890000Y-93980000D03*
X135890000Y-96520000D03*
X135890000Y-99060000D03*
X135890000Y-101600000D03*
X135890000Y-104140000D03*
X135890000Y-106680000D03*
X135890000Y-109220000D03*
X135890000Y-111760000D03*
X135890000Y-114300000D03*
X135890000Y-116840000D03*
X135890000Y-119380000D03*
X135890000Y-121920000D03*
X135890000Y-124460000D03*
X135890000Y-127000000D03*
X135890000Y-129540000D03*
X135890000Y-132080000D03*
X135890000Y-134620000D03*
X135890000Y-137160000D03*
X135890000Y-139700000D03*
X135890000Y-142240000D03*
X135890000Y-144780000D03*
X153670000Y-144780000D03*
X153670000Y-142240000D03*
X153670000Y-139700000D03*
X153670000Y-137160000D03*
X153670000Y-134620000D03*
X153670000Y-132080000D03*
X153670000Y-129540000D03*
X153670000Y-127000000D03*
X153670000Y-124460000D03*
X153670000Y-121920000D03*
X153670000Y-119380000D03*
X153670000Y-116840000D03*
X153670000Y-114300000D03*
X153670000Y-111760000D03*
X153670000Y-109220000D03*
X153670000Y-106680000D03*
X153670000Y-104140000D03*
X153670000Y-101600000D03*
X153670000Y-99060000D03*
X153670000Y-96520000D03*
X153670000Y-93980000D03*
X153670000Y-91440000D03*
X153670000Y-88900000D03*
X153670000Y-86360000D03*
X153670000Y-83820000D03*
X153670000Y-81280000D03*
X153670000Y-78740000D03*
X153670000Y-76200000D03*
X153670000Y-73660000D03*
X153670000Y-71120000D03*
X153670000Y-68580000D03*
X153670000Y-66040000D03*
%TD*%
M02*
