M48
; DRILL file {KiCad 7.0.8} date Sun Mar 17 19:54:36 2024
; FORMAT={3:3/ absolute / metric / suppress leading zeros}
; #@! TF.CreationDate,2024-03-17T19:54:36-04:00
; #@! TF.GenerationSoftware,Kicad,Pcbnew,7.0.8
; #@! TF.FileFunction,MixedPlating,1,2
FMAT,2
METRIC,TZ
; #@! TA.AperFunction,Plated,PTH,ViaDrill
T1C0.305
; #@! TA.AperFunction,Plated,PTH,ComponentDrill
T2C1.016
%
G90
G05
T1
X131445Y-149225
X134036Y-60935
X134061Y-57683
X136957Y-120650
X139065Y-86360
X140335Y-105410
X140335Y-110490
X144145Y-81280
X144145Y-116840
X145186Y-106426
X145740Y-104313
X145771Y-124511
X148590Y-120015
X149225Y-107950
X149327Y-79350
X150063Y-110134
X150063Y-110922
X150076Y-111760
X150292Y-104978
X150495Y-81280
X150495Y-86360
X150495Y-91440
X155575Y-149225
T2
X135890Y-66040
X135890Y-68580
X135890Y-71120
X135890Y-73660
X135890Y-76200
X135890Y-78740
X135890Y-81280
X135890Y-83820
X135890Y-86360
X135890Y-88900
X135890Y-91440
X135890Y-93980
X135890Y-96520
X135890Y-99060
X135890Y-101600
X135890Y-104140
X135890Y-106680
X135890Y-109220
X135890Y-111760
X135890Y-114300
X135890Y-116840
X135890Y-119380
X135890Y-121920
X135890Y-124460
X135890Y-127000
X135890Y-129540
X135890Y-132080
X135890Y-134620
X135890Y-137160
X135890Y-139700
X135890Y-142240
X135890Y-144780
X142240Y-60452
X142240Y-62952
X142240Y-65452
X142240Y-67952
X142240Y-75652
X142240Y-78152
X142240Y-80652
X142240Y-83152
X142240Y-85652
X142240Y-88152
X142240Y-90652
X142240Y-93152
X142240Y-95652
X142240Y-98152
X142240Y-100652
X142240Y-103152
X142240Y-105652
X142240Y-108152
X142240Y-110652
X142240Y-113152
X142240Y-115652
X142240Y-118152
X142240Y-120652
X142240Y-123152
X142240Y-125652
X142240Y-128152
X142240Y-130652
X142240Y-138352
X142240Y-140852
X142240Y-143352
X142240Y-145852
X147240Y-60452
X147240Y-62952
X147240Y-65452
X147240Y-67952
X147240Y-75652
X147240Y-78152
X147240Y-80652
X147240Y-83152
X147240Y-85652
X147240Y-88152
X147240Y-90652
X147240Y-93152
X147240Y-95652
X147240Y-98152
X147240Y-100652
X147240Y-103152
X147240Y-105652
X147240Y-108152
X147240Y-110652
X147240Y-113152
X147240Y-115652
X147240Y-118152
X147240Y-120652
X147240Y-123152
X147240Y-125652
X147240Y-128152
X147240Y-130652
X147240Y-138352
X147240Y-140852
X147240Y-143352
X147240Y-145852
X153670Y-66040
X153670Y-68580
X153670Y-71120
X153670Y-73660
X153670Y-76200
X153670Y-78740
X153670Y-81280
X153670Y-83820
X153670Y-86360
X153670Y-88900
X153670Y-91440
X153670Y-93980
X153670Y-96520
X153670Y-99060
X153670Y-101600
X153670Y-104140
X153670Y-106680
X153670Y-109220
X153670Y-111760
X153670Y-114300
X153670Y-116840
X153670Y-119380
X153670Y-121920
X153670Y-124460
X153670Y-127000
X153670Y-129540
X153670Y-132080
X153670Y-134620
X153670Y-137160
X153670Y-139700
X153670Y-142240
X153670Y-144780
T0
M30
